<svg width="274" height="378" viewBox="0 0 274 378" fill="none" xmlns="http://www.w3.org/2000/svg">
<rect x="156" y="311" width="115" height="64" rx="7" fill="black" fill-opacity="0.1" stroke="black" stroke-width="5"/>
<path d="M199.604 341.091H194.797C194.763 340.693 194.672 340.332 194.525 340.009C194.382 339.685 194.184 339.406 193.928 339.173C193.678 338.935 193.374 338.753 193.016 338.628C192.658 338.497 192.252 338.432 191.797 338.432C191.002 338.432 190.328 338.625 189.777 339.011C189.232 339.398 188.817 339.952 188.533 340.673C188.255 341.395 188.115 342.261 188.115 343.273C188.115 344.341 188.257 345.236 188.542 345.957C188.831 346.673 189.249 347.213 189.794 347.577C190.34 347.935 190.996 348.114 191.763 348.114C192.201 348.114 192.593 348.06 192.939 347.952C193.286 347.838 193.587 347.676 193.843 347.466C194.098 347.256 194.306 347.003 194.465 346.707C194.63 346.406 194.74 346.068 194.797 345.693L199.604 345.727C199.547 346.466 199.34 347.219 198.982 347.986C198.624 348.747 198.115 349.452 197.456 350.099C196.803 350.741 195.993 351.259 195.027 351.651C194.061 352.043 192.939 352.239 191.661 352.239C190.059 352.239 188.621 351.895 187.348 351.207C186.081 350.52 185.078 349.509 184.34 348.173C183.607 346.838 183.24 345.205 183.24 343.273C183.24 341.33 183.615 339.693 184.365 338.364C185.115 337.028 186.127 336.02 187.4 335.338C188.672 334.651 190.093 334.307 191.661 334.307C192.763 334.307 193.777 334.457 194.703 334.759C195.63 335.06 196.442 335.5 197.141 336.08C197.84 336.653 198.402 337.361 198.828 338.202C199.255 339.043 199.513 340.006 199.604 341.091ZM206.527 344.636V352H201.822V334.545H206.356V341.398H206.493C206.788 340.562 207.279 339.912 207.967 339.446C208.654 338.974 209.481 338.739 210.447 338.739C211.373 338.739 212.177 338.949 212.859 339.369C213.547 339.79 214.078 340.369 214.453 341.108C214.833 341.847 215.021 342.693 215.015 343.648V352H210.311V344.636C210.316 343.989 210.154 343.48 209.825 343.111C209.501 342.741 209.038 342.557 208.436 342.557C208.055 342.557 207.72 342.642 207.43 342.812C207.146 342.977 206.924 343.216 206.765 343.528C206.612 343.835 206.532 344.205 206.527 344.636ZM217.338 352V338.909H222.042V352H217.338ZM219.69 337.545C219.054 337.545 218.508 337.335 218.054 336.915C217.599 336.494 217.372 335.989 217.372 335.398C217.372 334.807 217.599 334.301 218.054 333.881C218.508 333.46 219.054 333.25 219.69 333.25C220.332 333.25 220.877 333.46 221.326 333.881C221.781 334.301 222.008 334.807 222.008 335.398C222.008 335.989 221.781 336.494 221.326 336.915C220.877 337.335 220.332 337.545 219.69 337.545ZM229.144 334.545V352H224.439V334.545H229.144ZM236.279 352.17C235.348 352.17 234.49 351.926 233.706 351.438C232.927 350.949 232.302 350.207 231.831 349.213C231.365 348.219 231.132 346.966 231.132 345.455C231.132 343.875 231.376 342.591 231.865 341.602C232.359 340.614 232.995 339.889 233.774 339.429C234.558 338.969 235.382 338.739 236.245 338.739C236.893 338.739 237.461 338.852 237.95 339.08C238.439 339.301 238.848 339.599 239.177 339.974C239.507 340.344 239.757 340.75 239.927 341.193H239.995V334.545H244.7V352H240.029V349.852H239.927C239.745 350.295 239.484 350.693 239.143 351.045C238.808 351.392 238.399 351.668 237.916 351.872C237.439 352.071 236.893 352.17 236.279 352.17ZM238.018 348.557C238.45 348.557 238.819 348.432 239.126 348.182C239.439 347.926 239.677 347.568 239.842 347.108C240.012 346.642 240.098 346.091 240.098 345.455C240.098 344.807 240.012 344.253 239.842 343.793C239.677 343.327 239.439 342.972 239.126 342.727C238.819 342.477 238.45 342.352 238.018 342.352C237.586 342.352 237.217 342.477 236.91 342.727C236.609 342.972 236.376 343.327 236.211 343.793C236.052 344.253 235.973 344.807 235.973 345.455C235.973 346.102 236.052 346.659 236.211 347.125C236.376 347.585 236.609 347.94 236.91 348.19C237.217 348.435 237.586 348.557 238.018 348.557Z" fill="black"/>
<rect x="3" y="311" width="115" height="64" rx="7" fill="black" fill-opacity="0.1" stroke="black" stroke-width="5"/>
<path d="M45.604 341.091H40.7972C40.7631 340.693 40.6722 340.332 40.5245 340.009C40.3825 339.685 40.1836 339.406 39.9279 339.173C39.6779 338.935 39.3739 338.753 39.016 338.628C38.658 338.497 38.2518 338.432 37.7972 338.432C37.0018 338.432 36.3285 338.625 35.7773 339.011C35.2319 339.398 34.8171 339.952 34.533 340.673C34.2546 341.395 34.1154 342.261 34.1154 343.273C34.1154 344.341 34.2575 345.236 34.5415 345.957C34.8313 346.673 35.2489 347.213 35.7944 347.577C36.3398 347.935 36.9961 348.114 37.7631 348.114C38.2006 348.114 38.5927 348.06 38.9393 347.952C39.2859 347.838 39.587 347.676 39.8427 347.466C40.0984 347.256 40.3058 347.003 40.4648 346.707C40.6296 346.406 40.7404 346.068 40.7972 345.693L45.604 345.727C45.5472 346.466 45.3398 347.219 44.9819 347.986C44.6239 348.747 44.1154 349.452 43.4563 350.099C42.8029 350.741 41.9933 351.259 41.0273 351.651C40.0614 352.043 38.9393 352.239 37.6609 352.239C36.0586 352.239 34.6211 351.895 33.3484 351.207C32.0813 350.52 31.0785 349.509 30.3398 348.173C29.6069 346.838 29.2404 345.205 29.2404 343.273C29.2404 341.33 29.6154 339.693 30.3654 338.364C31.1154 337.028 32.1268 336.02 33.3995 335.338C34.6722 334.651 36.0927 334.307 37.6609 334.307C38.7631 334.307 39.7773 334.457 40.7035 334.759C41.6296 335.06 42.4421 335.5 43.141 336.08C43.8398 336.653 44.4023 337.361 44.8285 338.202C45.2546 339.043 45.5131 340.006 45.604 341.091ZM52.5266 344.636V352H47.8221V334.545H52.3562V341.398H52.4925C52.788 340.562 53.2795 339.912 53.967 339.446C54.6545 338.974 55.4812 338.739 56.4471 338.739C57.3732 338.739 58.1772 338.949 58.859 339.369C59.5465 339.79 60.0778 340.369 60.4528 341.108C60.8335 341.847 61.021 342.693 61.0153 343.648V352H56.3107V344.636C56.3164 343.989 56.1545 343.48 55.8249 343.111C55.5011 342.741 55.038 342.557 54.4357 342.557C54.055 342.557 53.7198 342.642 53.43 342.812C53.146 342.977 52.9244 343.216 52.7653 343.528C52.6119 343.835 52.5323 344.205 52.5266 344.636ZM63.3377 352V338.909H68.0423V352H63.3377ZM65.69 337.545C65.0536 337.545 64.5082 337.335 64.0536 336.915C63.5991 336.494 63.3718 335.989 63.3718 335.398C63.3718 334.807 63.5991 334.301 64.0536 333.881C64.5082 333.46 65.0536 333.25 65.69 333.25C66.332 333.25 66.8775 333.46 67.3263 333.881C67.7809 334.301 68.0082 334.807 68.0082 335.398C68.0082 335.989 67.7809 336.494 67.3263 336.915C66.8775 337.335 66.332 337.545 65.69 337.545ZM75.1438 334.545V352H70.4393V334.545H75.1438ZM82.2795 352.17C81.3477 352.17 80.4897 351.926 79.7056 351.438C78.9272 350.949 78.3022 350.207 77.8306 349.213C77.3647 348.219 77.1317 346.966 77.1317 345.455C77.1317 343.875 77.3761 342.591 77.8647 341.602C78.359 340.614 78.9954 339.889 79.7738 339.429C80.5579 338.969 81.3817 338.739 82.2454 338.739C82.8931 338.739 83.4613 338.852 83.9499 339.08C84.4386 339.301 84.8477 339.599 85.1772 339.974C85.5067 340.344 85.7567 340.75 85.9272 341.193H85.9954V334.545H90.6999V352H86.0295V349.852H85.9272C85.7454 350.295 85.484 350.693 85.1431 351.045C84.8079 351.392 84.3988 351.668 83.9158 351.872C83.4386 352.071 82.8931 352.17 82.2795 352.17ZM84.0181 348.557C84.4499 348.557 84.8192 348.432 85.1261 348.182C85.4386 347.926 85.6772 347.568 85.842 347.108C86.0124 346.642 86.0977 346.091 86.0977 345.455C86.0977 344.807 86.0124 344.253 85.842 343.793C85.6772 343.327 85.4386 342.972 85.1261 342.727C84.8192 342.477 84.4499 342.352 84.0181 342.352C83.5863 342.352 83.217 342.477 82.9102 342.727C82.609 342.972 82.3761 343.327 82.2113 343.793C82.0522 344.253 81.9727 344.807 81.9727 345.455C81.9727 346.102 82.0522 346.659 82.2113 347.125C82.3761 347.585 82.609 347.94 82.9102 348.19C83.217 348.435 83.5863 348.557 84.0181 348.557Z" fill="black"/>
<rect x="156" y="247" width="115" height="64" rx="7" fill="black" fill-opacity="0.1" stroke="black" stroke-width="5"/>
<path d="M199.604 277.091H194.797C194.763 276.693 194.672 276.332 194.525 276.009C194.382 275.685 194.184 275.406 193.928 275.173C193.678 274.935 193.374 274.753 193.016 274.628C192.658 274.497 192.252 274.432 191.797 274.432C191.002 274.432 190.328 274.625 189.777 275.011C189.232 275.398 188.817 275.952 188.533 276.673C188.255 277.395 188.115 278.261 188.115 279.273C188.115 280.341 188.257 281.236 188.542 281.957C188.831 282.673 189.249 283.213 189.794 283.577C190.34 283.935 190.996 284.114 191.763 284.114C192.201 284.114 192.593 284.06 192.939 283.952C193.286 283.838 193.587 283.676 193.843 283.466C194.098 283.256 194.306 283.003 194.465 282.707C194.63 282.406 194.74 282.068 194.797 281.693L199.604 281.727C199.547 282.466 199.34 283.219 198.982 283.986C198.624 284.747 198.115 285.452 197.456 286.099C196.803 286.741 195.993 287.259 195.027 287.651C194.061 288.043 192.939 288.239 191.661 288.239C190.059 288.239 188.621 287.895 187.348 287.207C186.081 286.52 185.078 285.509 184.34 284.173C183.607 282.838 183.24 281.205 183.24 279.273C183.24 277.33 183.615 275.693 184.365 274.364C185.115 273.028 186.127 272.02 187.4 271.338C188.672 270.651 190.093 270.307 191.661 270.307C192.763 270.307 193.777 270.457 194.703 270.759C195.63 271.06 196.442 271.5 197.141 272.08C197.84 272.653 198.402 273.361 198.828 274.202C199.255 275.043 199.513 276.006 199.604 277.091ZM206.527 280.636V288H201.822V270.545H206.356V277.398H206.493C206.788 276.562 207.279 275.912 207.967 275.446C208.654 274.974 209.481 274.739 210.447 274.739C211.373 274.739 212.177 274.949 212.859 275.369C213.547 275.79 214.078 276.369 214.453 277.108C214.833 277.847 215.021 278.693 215.015 279.648V288H210.311V280.636C210.316 279.989 210.154 279.48 209.825 279.111C209.501 278.741 209.038 278.557 208.436 278.557C208.055 278.557 207.72 278.642 207.43 278.812C207.146 278.977 206.924 279.216 206.765 279.528C206.612 279.835 206.532 280.205 206.527 280.636ZM217.338 288V274.909H222.042V288H217.338ZM219.69 273.545C219.054 273.545 218.508 273.335 218.054 272.915C217.599 272.494 217.372 271.989 217.372 271.398C217.372 270.807 217.599 270.301 218.054 269.881C218.508 269.46 219.054 269.25 219.69 269.25C220.332 269.25 220.877 269.46 221.326 269.881C221.781 270.301 222.008 270.807 222.008 271.398C222.008 271.989 221.781 272.494 221.326 272.915C220.877 273.335 220.332 273.545 219.69 273.545ZM229.144 270.545V288H224.439V270.545H229.144ZM236.279 288.17C235.348 288.17 234.49 287.926 233.706 287.438C232.927 286.949 232.302 286.207 231.831 285.213C231.365 284.219 231.132 282.966 231.132 281.455C231.132 279.875 231.376 278.591 231.865 277.602C232.359 276.614 232.995 275.889 233.774 275.429C234.558 274.969 235.382 274.739 236.245 274.739C236.893 274.739 237.461 274.852 237.95 275.08C238.439 275.301 238.848 275.599 239.177 275.974C239.507 276.344 239.757 276.75 239.927 277.193H239.995V270.545H244.7V288H240.029V285.852H239.927C239.745 286.295 239.484 286.693 239.143 287.045C238.808 287.392 238.399 287.668 237.916 287.872C237.439 288.071 236.893 288.17 236.279 288.17ZM238.018 284.557C238.45 284.557 238.819 284.432 239.126 284.182C239.439 283.926 239.677 283.568 239.842 283.108C240.012 282.642 240.098 282.091 240.098 281.455C240.098 280.807 240.012 280.253 239.842 279.793C239.677 279.327 239.439 278.972 239.126 278.727C238.819 278.477 238.45 278.352 238.018 278.352C237.586 278.352 237.217 278.477 236.91 278.727C236.609 278.972 236.376 279.327 236.211 279.793C236.052 280.253 235.973 280.807 235.973 281.455C235.973 282.102 236.052 282.659 236.211 283.125C236.376 283.585 236.609 283.94 236.91 284.19C237.217 284.435 237.586 284.557 238.018 284.557Z" fill="black"/>
<rect x="3" y="247" width="115" height="64" rx="7" fill="black" fill-opacity="0.1" stroke="black" stroke-width="5"/>
<path d="M45.604 277.091H40.7972C40.7631 276.693 40.6722 276.332 40.5245 276.009C40.3825 275.685 40.1836 275.406 39.9279 275.173C39.6779 274.935 39.3739 274.753 39.016 274.628C38.658 274.497 38.2518 274.432 37.7972 274.432C37.0018 274.432 36.3285 274.625 35.7773 275.011C35.2319 275.398 34.8171 275.952 34.533 276.673C34.2546 277.395 34.1154 278.261 34.1154 279.273C34.1154 280.341 34.2575 281.236 34.5415 281.957C34.8313 282.673 35.2489 283.213 35.7944 283.577C36.3398 283.935 36.9961 284.114 37.7631 284.114C38.2006 284.114 38.5927 284.06 38.9393 283.952C39.2859 283.838 39.587 283.676 39.8427 283.466C40.0984 283.256 40.3058 283.003 40.4648 282.707C40.6296 282.406 40.7404 282.068 40.7972 281.693L45.604 281.727C45.5472 282.466 45.3398 283.219 44.9819 283.986C44.6239 284.747 44.1154 285.452 43.4563 286.099C42.8029 286.741 41.9933 287.259 41.0273 287.651C40.0614 288.043 38.9393 288.239 37.6609 288.239C36.0586 288.239 34.6211 287.895 33.3484 287.207C32.0813 286.52 31.0785 285.509 30.3398 284.173C29.6069 282.838 29.2404 281.205 29.2404 279.273C29.2404 277.33 29.6154 275.693 30.3654 274.364C31.1154 273.028 32.1268 272.02 33.3995 271.338C34.6722 270.651 36.0927 270.307 37.6609 270.307C38.7631 270.307 39.7773 270.457 40.7035 270.759C41.6296 271.06 42.4421 271.5 43.141 272.08C43.8398 272.653 44.4023 273.361 44.8285 274.202C45.2546 275.043 45.5131 276.006 45.604 277.091ZM52.5266 280.636V288H47.8221V270.545H52.3562V277.398H52.4925C52.788 276.562 53.2795 275.912 53.967 275.446C54.6545 274.974 55.4812 274.739 56.4471 274.739C57.3732 274.739 58.1772 274.949 58.859 275.369C59.5465 275.79 60.0778 276.369 60.4528 277.108C60.8335 277.847 61.021 278.693 61.0153 279.648V288H56.3107V280.636C56.3164 279.989 56.1545 279.48 55.8249 279.111C55.5011 278.741 55.038 278.557 54.4357 278.557C54.055 278.557 53.7198 278.642 53.43 278.812C53.146 278.977 52.9244 279.216 52.7653 279.528C52.6119 279.835 52.5323 280.205 52.5266 280.636ZM63.3377 288V274.909H68.0423V288H63.3377ZM65.69 273.545C65.0536 273.545 64.5082 273.335 64.0536 272.915C63.5991 272.494 63.3718 271.989 63.3718 271.398C63.3718 270.807 63.5991 270.301 64.0536 269.881C64.5082 269.46 65.0536 269.25 65.69 269.25C66.332 269.25 66.8775 269.46 67.3263 269.881C67.7809 270.301 68.0082 270.807 68.0082 271.398C68.0082 271.989 67.7809 272.494 67.3263 272.915C66.8775 273.335 66.332 273.545 65.69 273.545ZM75.1438 270.545V288H70.4393V270.545H75.1438ZM82.2795 288.17C81.3477 288.17 80.4897 287.926 79.7056 287.438C78.9272 286.949 78.3022 286.207 77.8306 285.213C77.3647 284.219 77.1317 282.966 77.1317 281.455C77.1317 279.875 77.3761 278.591 77.8647 277.602C78.359 276.614 78.9954 275.889 79.7738 275.429C80.5579 274.969 81.3817 274.739 82.2454 274.739C82.8931 274.739 83.4613 274.852 83.9499 275.08C84.4386 275.301 84.8477 275.599 85.1772 275.974C85.5067 276.344 85.7567 276.75 85.9272 277.193H85.9954V270.545H90.6999V288H86.0295V285.852H85.9272C85.7454 286.295 85.484 286.693 85.1431 287.045C84.8079 287.392 84.3988 287.668 83.9158 287.872C83.4386 288.071 82.8931 288.17 82.2795 288.17ZM84.0181 284.557C84.4499 284.557 84.8192 284.432 85.1261 284.182C85.4386 283.926 85.6772 283.568 85.842 283.108C86.0124 282.642 86.0977 282.091 86.0977 281.455C86.0977 280.807 86.0124 280.253 85.842 279.793C85.6772 279.327 85.4386 278.972 85.1261 278.727C84.8192 278.477 84.4499 278.352 84.0181 278.352C83.5863 278.352 83.217 278.477 82.9102 278.727C82.609 278.972 82.3761 279.327 82.2113 279.793C82.0522 280.253 81.9727 280.807 81.9727 281.455C81.9727 282.102 82.0522 282.659 82.2113 283.125C82.3761 283.585 82.609 283.94 82.9102 284.19C83.217 284.435 83.5863 284.557 84.0181 284.557Z" fill="black"/>
<path d="M212.674 236.479C214.043 236.659 215.299 235.695 215.479 234.326L218.411 212.018C218.591 210.649 217.627 209.393 216.258 209.213C214.889 209.033 213.633 209.997 213.453 211.366L210.847 231.196L191.018 228.589C189.649 228.409 188.393 229.373 188.213 230.742C188.033 232.111 188.997 233.367 190.366 233.547L212.674 236.479ZM135.017 136.522L211.017 235.522L214.983 232.478L138.983 133.478L135.017 136.522Z" fill="black"/>
<path d="M57.5193 234.31C57.6906 235.68 58.94 236.652 60.3101 236.481L82.6363 233.69C84.0064 233.519 84.9782 232.269 84.8069 230.899C84.6357 229.529 83.3862 228.557 82.0162 228.729L62.1706 231.209L59.6899 211.364C59.5187 209.994 58.2692 209.022 56.8991 209.193C55.5291 209.364 54.5573 210.614 54.7285 211.984L57.5193 234.31ZM135.027 133.465L58.0266 232.465L61.9734 235.535L138.973 136.535L135.027 133.465Z" fill="black"/>
<rect x="18" y="69" width="238" height="66" rx="7" fill="black" fill-opacity="0.1" stroke="black" stroke-width="5"/>
<path d="M52.9439 100.091H48.1371C48.103 99.6932 48.0121 99.3324 47.8643 99.0085C47.7223 98.6847 47.5234 98.4062 47.2678 98.1733C47.0178 97.9347 46.7138 97.7528 46.3558 97.6278C45.9979 97.4972 45.5916 97.4318 45.1371 97.4318C44.3416 97.4318 43.6683 97.625 43.1172 98.0114C42.5717 98.3977 42.157 98.9517 41.8729 99.6733C41.5945 100.395 41.4553 101.261 41.4553 102.273C41.4553 103.341 41.5973 104.236 41.8814 104.957C42.1712 105.673 42.5888 106.213 43.1342 106.577C43.6797 106.935 44.3359 107.114 45.103 107.114C45.5405 107.114 45.9325 107.06 46.2791 106.952C46.6257 106.838 46.9268 106.676 47.1825 106.466C47.4382 106.256 47.6456 106.003 47.8047 105.707C47.9695 105.406 48.0803 105.068 48.1371 104.693L52.9439 104.727C52.8871 105.466 52.6797 106.219 52.3217 106.986C51.9638 107.747 51.4553 108.452 50.7962 109.099C50.1428 109.741 49.3331 110.259 48.3672 110.651C47.4013 111.043 46.2791 111.239 45.0007 111.239C43.3984 111.239 41.9609 110.895 40.6882 110.207C39.4212 109.52 38.4183 108.509 37.6797 107.173C36.9467 105.838 36.5803 104.205 36.5803 102.273C36.5803 100.33 36.9553 98.6932 37.7053 97.3636C38.4553 96.0284 39.4666 95.0199 40.7393 94.3381C42.0121 93.6506 43.4325 93.3068 45.0007 93.3068C46.103 93.3068 47.1172 93.4574 48.0433 93.7585C48.9695 94.0597 49.782 94.5 50.4808 95.0795C51.1797 95.6534 51.7422 96.3608 52.1683 97.2017C52.5945 98.0426 52.853 99.0057 52.9439 100.091ZM61.4688 111.239C60.0483 111.239 58.8324 110.957 57.821 110.395C56.8097 109.827 56.0341 109.037 55.4943 108.026C54.9545 107.009 54.6847 105.83 54.6847 104.489C54.6847 103.148 54.9545 101.972 55.4943 100.96C56.0341 99.9432 56.8097 99.1534 57.821 98.5909C58.8324 98.0227 60.0483 97.7386 61.4688 97.7386C62.8892 97.7386 64.1051 98.0227 65.1165 98.5909C66.1278 99.1534 66.9034 99.9432 67.4432 100.96C67.983 101.972 68.2528 103.148 68.2528 104.489C68.2528 105.83 67.983 107.009 67.4432 108.026C66.9034 109.037 66.1278 109.827 65.1165 110.395C64.1051 110.957 62.8892 111.239 61.4688 111.239ZM61.5028 107.761C61.9006 107.761 62.2443 107.628 62.5341 107.361C62.8239 107.094 63.0483 106.713 63.2074 106.219C63.3665 105.724 63.446 105.136 63.446 104.455C63.446 103.767 63.3665 103.179 63.2074 102.69C63.0483 102.196 62.8239 101.815 62.5341 101.548C62.2443 101.281 61.9006 101.148 61.5028 101.148C61.0824 101.148 60.7216 101.281 60.4205 101.548C60.1193 101.815 59.8892 102.196 59.7301 102.69C59.571 103.179 59.4915 103.767 59.4915 104.455C59.4915 105.136 59.571 105.724 59.7301 106.219C59.8892 106.713 60.1193 107.094 60.4205 107.361C60.7216 107.628 61.0824 107.761 61.5028 107.761ZM74.8665 103.636V111H70.1619V97.9091H74.6278V100.398H74.7642C75.0483 99.5682 75.5483 98.9176 76.2642 98.446C76.9858 97.9744 77.8267 97.7386 78.7869 97.7386C79.7131 97.7386 80.517 97.9517 81.1989 98.3778C81.8864 98.7983 82.4176 99.3778 82.7926 100.116C83.1733 100.855 83.3608 101.699 83.3551 102.648V111H78.6506V103.636C78.6563 102.989 78.4915 102.48 78.1562 102.111C77.8267 101.741 77.3665 101.557 76.7756 101.557C76.3892 101.557 76.0511 101.642 75.7614 101.812C75.4773 101.977 75.2585 102.216 75.1051 102.528C74.9517 102.835 74.8722 103.205 74.8665 103.636ZM93.4844 97.9091V101.318H84.8594V97.9091H93.4844ZM86.5298 94.7727H91.2344V106.79C91.2344 106.972 91.2656 107.125 91.3281 107.25C91.3906 107.369 91.4872 107.46 91.6179 107.523C91.7486 107.58 91.9162 107.608 92.1207 107.608C92.2628 107.608 92.4276 107.591 92.6151 107.557C92.8082 107.523 92.9503 107.494 93.0412 107.472L93.723 110.778C93.5128 110.841 93.2116 110.918 92.8196 111.009C92.4332 111.099 91.973 111.159 91.4389 111.188C90.3594 111.244 89.4531 111.134 88.7202 110.855C87.9872 110.571 87.4361 110.125 87.0668 109.517C86.6974 108.909 86.5185 108.148 86.5298 107.233V94.7727ZM101.536 111.239C100.138 111.239 98.9339 110.972 97.9226 110.438C96.9169 109.898 96.1413 109.125 95.5959 108.119C95.0561 107.108 94.7862 105.898 94.7862 104.489C94.7862 103.136 95.0589 101.955 95.6044 100.943C96.1499 99.9318 96.9197 99.1449 97.9141 98.5824C98.9084 98.0199 100.082 97.7386 101.434 97.7386C102.423 97.7386 103.317 97.892 104.119 98.1989C104.92 98.5057 105.604 98.9517 106.173 99.5369C106.741 100.116 107.178 100.821 107.485 101.651C107.792 102.48 107.945 103.415 107.945 104.455V105.545H96.2521V102.955H103.616C103.61 102.58 103.513 102.25 103.326 101.966C103.144 101.676 102.897 101.452 102.585 101.293C102.278 101.128 101.928 101.045 101.536 101.045C101.156 101.045 100.806 101.128 100.488 101.293C100.17 101.452 99.9141 101.673 99.7209 101.957C99.5334 102.241 99.4339 102.574 99.4226 102.955V105.75C99.4226 106.17 99.5107 106.545 99.6868 106.875C99.8629 107.205 100.116 107.463 100.445 107.651C100.775 107.838 101.173 107.932 101.638 107.932C101.962 107.932 102.258 107.886 102.525 107.795C102.798 107.705 103.031 107.574 103.224 107.403C103.417 107.227 103.559 107.017 103.65 106.773H107.945C107.798 107.682 107.448 108.472 106.897 109.142C106.346 109.807 105.616 110.324 104.707 110.693C103.803 111.057 102.746 111.239 101.536 111.239ZM113.781 97.9091L115.69 101.966L117.702 97.9091H122.372L118.861 104.455L122.543 111H117.906L115.69 106.841L113.543 111H108.838L112.554 104.455L109.077 97.9091H113.781ZM131.852 97.9091V101.318H123.227V97.9091H131.852ZM124.897 94.7727H129.602V106.79C129.602 106.972 129.633 107.125 129.695 107.25C129.758 107.369 129.854 107.46 129.985 107.523C130.116 107.58 130.283 107.608 130.488 107.608C130.63 107.608 130.795 107.591 130.982 107.557C131.175 107.523 131.317 107.494 131.408 107.472L132.09 110.778C131.88 110.841 131.579 110.918 131.187 111.009C130.8 111.099 130.34 111.159 129.806 111.188C128.727 111.244 127.82 111.134 127.087 110.855C126.354 110.571 125.803 110.125 125.434 109.517C125.065 108.909 124.886 108.148 124.897 107.233V94.7727ZM138.484 111V93.5455H146.018C147.314 93.5455 148.447 93.8011 149.419 94.3125C150.391 94.8239 151.146 95.5426 151.686 96.4688C152.226 97.3949 152.496 98.4773 152.496 99.7159C152.496 100.966 152.217 102.048 151.661 102.963C151.109 103.878 150.334 104.582 149.334 105.077C148.339 105.571 147.178 105.818 145.848 105.818H141.348V102.136H144.893C145.45 102.136 145.925 102.04 146.317 101.847C146.714 101.648 147.018 101.366 147.229 101.003C147.445 100.639 147.553 100.21 147.553 99.7159C147.553 99.2159 147.445 98.7898 147.229 98.4375C147.018 98.0795 146.714 97.8068 146.317 97.6193C145.925 97.4261 145.45 97.3295 144.893 97.3295H143.223V111H138.484ZM154.303 111V97.9091H158.871V100.398H159.007C159.246 99.4773 159.624 98.804 160.141 98.3778C160.663 97.9517 161.274 97.7386 161.973 97.7386C162.178 97.7386 162.379 97.7557 162.578 97.7898C162.783 97.8182 162.979 97.8608 163.166 97.9176V101.932C162.933 101.852 162.646 101.793 162.305 101.753C161.964 101.713 161.672 101.693 161.428 101.693C160.967 101.693 160.553 101.798 160.183 102.009C159.82 102.213 159.533 102.503 159.322 102.878C159.112 103.247 159.007 103.682 159.007 104.182V111H154.303ZM170.266 111.239C168.845 111.239 167.629 110.957 166.618 110.395C165.607 109.827 164.831 109.037 164.291 108.026C163.751 107.009 163.482 105.83 163.482 104.489C163.482 103.148 163.751 101.972 164.291 100.96C164.831 99.9432 165.607 99.1534 166.618 98.5909C167.629 98.0227 168.845 97.7386 170.266 97.7386C171.686 97.7386 172.902 98.0227 173.913 98.5909C174.925 99.1534 175.7 99.9432 176.24 100.96C176.78 101.972 177.05 103.148 177.05 104.489C177.05 105.83 176.78 107.009 176.24 108.026C175.7 109.037 174.925 109.827 173.913 110.395C172.902 110.957 171.686 111.239 170.266 111.239ZM170.3 107.761C170.697 107.761 171.041 107.628 171.331 107.361C171.621 107.094 171.845 106.713 172.004 106.219C172.163 105.724 172.243 105.136 172.243 104.455C172.243 103.767 172.163 103.179 172.004 102.69C171.845 102.196 171.621 101.815 171.331 101.548C171.041 101.281 170.697 101.148 170.3 101.148C169.879 101.148 169.518 101.281 169.217 101.548C168.916 101.815 168.686 102.196 168.527 102.69C168.368 103.179 168.288 103.767 168.288 104.455C168.288 105.136 168.368 105.724 168.527 106.219C168.686 106.713 168.916 107.094 169.217 107.361C169.518 107.628 169.879 107.761 170.3 107.761ZM191.754 97.9091L187.356 111H181.901L177.504 97.9091H182.447L184.56 106.568H184.697L186.81 97.9091H191.754ZM193.092 111V97.9091H197.796V111H193.092ZM195.444 96.5455C194.808 96.5455 194.262 96.3352 193.808 95.9148C193.353 95.4943 193.126 94.9886 193.126 94.3977C193.126 93.8068 193.353 93.3011 193.808 92.8807C194.262 92.4602 194.808 92.25 195.444 92.25C196.086 92.25 196.631 92.4602 197.08 92.8807C197.535 93.3011 197.762 93.8068 197.762 94.3977C197.762 94.9886 197.535 95.4943 197.08 95.9148C196.631 96.3352 196.086 96.5455 195.444 96.5455ZM204.932 111.17C204 111.17 203.142 110.926 202.358 110.438C201.58 109.949 200.955 109.207 200.483 108.213C200.017 107.219 199.784 105.966 199.784 104.455C199.784 102.875 200.028 101.591 200.517 100.602C201.011 99.6136 201.648 98.8892 202.426 98.429C203.21 97.9688 204.034 97.7386 204.898 97.7386C205.545 97.7386 206.114 97.8523 206.602 98.0795C207.091 98.3011 207.5 98.5994 207.83 98.9744C208.159 99.3437 208.409 99.75 208.58 100.193H208.648V93.5455H213.352V111H208.682V108.852H208.58C208.398 109.295 208.136 109.693 207.795 110.045C207.46 110.392 207.051 110.668 206.568 110.872C206.091 111.071 205.545 111.17 204.932 111.17ZM206.67 107.557C207.102 107.557 207.472 107.432 207.778 107.182C208.091 106.926 208.33 106.568 208.494 106.108C208.665 105.642 208.75 105.091 208.75 104.455C208.75 103.807 208.665 103.253 208.494 102.793C208.33 102.327 208.091 101.972 207.778 101.727C207.472 101.477 207.102 101.352 206.67 101.352C206.239 101.352 205.869 101.477 205.562 101.727C205.261 101.972 205.028 102.327 204.864 102.793C204.705 103.253 204.625 103.807 204.625 104.455C204.625 105.102 204.705 105.659 204.864 106.125C205.028 106.585 205.261 106.94 205.562 107.19C205.869 107.435 206.239 107.557 206.67 107.557ZM221.935 111.239C220.537 111.239 219.332 110.972 218.321 110.438C217.315 109.898 216.54 109.125 215.994 108.119C215.455 107.108 215.185 105.898 215.185 104.489C215.185 103.136 215.457 101.955 216.003 100.943C216.548 99.9318 217.318 99.1449 218.312 98.5824C219.307 98.0199 220.48 97.7386 221.832 97.7386C222.821 97.7386 223.716 97.892 224.517 98.1989C225.318 98.5057 226.003 98.9517 226.571 99.5369C227.139 100.116 227.577 100.821 227.884 101.651C228.19 102.48 228.344 103.415 228.344 104.455V105.545H216.651V102.955H224.014C224.009 102.58 223.912 102.25 223.724 101.966C223.543 101.676 223.295 101.452 222.983 101.293C222.676 101.128 222.327 101.045 221.935 101.045C221.554 101.045 221.205 101.128 220.886 101.293C220.568 101.452 220.313 101.673 220.119 101.957C219.932 102.241 219.832 102.574 219.821 102.955V105.75C219.821 106.17 219.909 106.545 220.085 106.875C220.261 107.205 220.514 107.463 220.844 107.651C221.173 107.838 221.571 107.932 222.037 107.932C222.361 107.932 222.656 107.886 222.923 107.795C223.196 107.705 223.429 107.574 223.622 107.403C223.815 107.227 223.957 107.017 224.048 106.773H228.344C228.196 107.682 227.847 108.472 227.295 109.142C226.744 109.807 226.014 110.324 225.105 110.693C224.202 111.057 223.145 111.239 221.935 111.239ZM230.263 111V97.9091H234.832V100.398H234.968C235.207 99.4773 235.585 98.804 236.102 98.3778C236.624 97.9517 237.235 97.7386 237.934 97.7386C238.138 97.7386 238.34 97.7557 238.539 97.7898C238.744 97.8182 238.94 97.8608 239.127 97.9176V101.932C238.894 101.852 238.607 101.793 238.266 101.753C237.925 101.713 237.633 101.693 237.388 101.693C236.928 101.693 236.513 101.798 236.144 102.009C235.781 102.213 235.494 102.503 235.283 102.878C235.073 103.247 234.968 103.682 234.968 104.182V111H230.263Z" fill="black"/>
<rect x="18" y="3" width="238" height="66" rx="7" fill="black" fill-opacity="0.1" stroke="black" stroke-width="5"/>
<path d="M99.2031 45V27.5455H106.737C108.033 27.5455 109.166 27.8011 110.138 28.3125C111.109 28.8239 111.865 29.5426 112.405 30.4688C112.945 31.3949 113.214 32.4773 113.214 33.7159C113.214 34.9659 112.936 36.0483 112.379 36.9631C111.828 37.8778 111.053 38.5824 110.053 39.0767C109.058 39.571 107.896 39.8182 106.567 39.8182H102.067V36.1364H105.612C106.169 36.1364 106.643 36.0398 107.036 35.8466C107.433 35.6477 107.737 35.3665 107.947 35.0028C108.163 34.6392 108.271 34.2102 108.271 33.7159C108.271 33.2159 108.163 32.7898 107.947 32.4375C107.737 32.0795 107.433 31.8068 107.036 31.6193C106.643 31.4261 106.169 31.3295 105.612 31.3295H103.942V45H99.2031ZM118.083 45.2045C117.248 45.2045 116.509 45.0682 115.867 44.7955C115.231 44.517 114.731 44.0966 114.367 43.5341C114.004 42.9716 113.822 42.2557 113.822 41.3864C113.822 40.6705 113.944 40.0597 114.188 39.554C114.433 39.0426 114.773 38.625 115.211 38.3011C115.648 37.9773 116.157 37.7301 116.737 37.5597C117.322 37.3892 117.952 37.2784 118.629 37.2273C119.362 37.1705 119.95 37.1023 120.393 37.0227C120.842 36.9375 121.165 36.821 121.364 36.6733C121.563 36.5199 121.663 36.3182 121.663 36.0682V36.0341C121.663 35.6932 121.532 35.4318 121.271 35.25C121.009 35.0682 120.674 34.9773 120.265 34.9773C119.816 34.9773 119.45 35.0767 119.165 35.2756C118.887 35.4687 118.719 35.767 118.663 36.1705H114.333C114.39 35.375 114.643 34.642 115.092 33.9716C115.546 33.2955 116.208 32.7557 117.077 32.3523C117.947 31.9432 119.032 31.7386 120.333 31.7386C121.271 31.7386 122.112 31.8494 122.856 32.071C123.6 32.2869 124.234 32.5909 124.756 32.983C125.279 33.3693 125.677 33.8239 125.95 34.3466C126.228 34.8636 126.367 35.4261 126.367 36.0341V45H121.969V43.1591H121.867C121.606 43.6477 121.288 44.0426 120.913 44.3438C120.543 44.6449 120.12 44.8636 119.643 45C119.171 45.1364 118.651 45.2045 118.083 45.2045ZM119.617 42.2386C119.975 42.2386 120.31 42.1648 120.623 42.017C120.941 41.8693 121.2 41.6562 121.398 41.3778C121.597 41.0994 121.697 40.7614 121.697 40.3636V39.2727C121.572 39.3239 121.438 39.3722 121.296 39.4176C121.16 39.4631 121.012 39.5057 120.853 39.5455C120.7 39.5852 120.535 39.6222 120.359 39.6562C120.188 39.6903 120.009 39.7216 119.822 39.75C119.458 39.8068 119.16 39.9006 118.927 40.0312C118.7 40.1562 118.529 40.3125 118.415 40.5C118.308 40.6818 118.254 40.8864 118.254 41.1136C118.254 41.4773 118.381 41.7557 118.637 41.9489C118.893 42.142 119.219 42.2386 119.617 42.2386ZM128.615 45V31.9091H133.183V34.3977H133.32C133.558 33.4773 133.936 32.804 134.453 32.3778C134.976 31.9517 135.587 31.7386 136.286 31.7386C136.49 31.7386 136.692 31.7557 136.891 31.7898C137.095 31.8182 137.291 31.8608 137.479 31.9176V35.9318C137.246 35.8523 136.959 35.7926 136.618 35.7528C136.277 35.7131 135.984 35.6932 135.74 35.6932C135.28 35.6932 134.865 35.7983 134.496 36.0085C134.132 36.2131 133.845 36.5028 133.635 36.8778C133.425 37.2472 133.32 37.6818 133.32 38.1818V45H128.615ZM144.544 45.2386C143.146 45.2386 141.942 44.9716 140.93 44.4375C139.925 43.8977 139.149 43.125 138.604 42.1193C138.064 41.108 137.794 39.8977 137.794 38.4886C137.794 37.1364 138.067 35.9545 138.612 34.9432C139.158 33.9318 139.928 33.1449 140.922 32.5824C141.916 32.0199 143.089 31.7386 144.442 31.7386C145.43 31.7386 146.325 31.892 147.126 32.1989C147.928 32.5057 148.612 32.9517 149.18 33.5369C149.749 34.1165 150.186 34.821 150.493 35.6506C150.8 36.4801 150.953 37.4148 150.953 38.4545V39.5455H139.26V36.9545H146.624C146.618 36.5795 146.521 36.25 146.334 35.9659C146.152 35.6761 145.905 35.4517 145.592 35.2926C145.286 35.1278 144.936 35.0455 144.544 35.0455C144.163 35.0455 143.814 35.1278 143.496 35.2926C143.178 35.4517 142.922 35.6733 142.729 35.9574C142.541 36.2415 142.442 36.5739 142.43 36.9545V39.75C142.43 40.1705 142.518 40.5455 142.695 40.875C142.871 41.2045 143.124 41.4631 143.453 41.6506C143.783 41.8381 144.18 41.9318 144.646 41.9318C144.97 41.9318 145.266 41.8864 145.533 41.7955C145.805 41.7045 146.038 41.5739 146.232 41.4034C146.425 41.2273 146.567 41.017 146.658 40.7727H150.953C150.805 41.6818 150.456 42.4716 149.905 43.142C149.354 43.8068 148.624 44.3239 147.714 44.6932C146.811 45.0568 145.754 45.2386 144.544 45.2386ZM157.577 37.6364V45H152.873V31.9091H157.339V34.3977H157.475C157.759 33.5682 158.259 32.9176 158.975 32.446C159.697 31.9744 160.538 31.7386 161.498 31.7386C162.424 31.7386 163.228 31.9517 163.91 32.3778C164.597 32.7983 165.129 33.3778 165.504 34.1165C165.884 34.8551 166.072 35.6989 166.066 36.6477V45H161.362V37.6364C161.367 36.9886 161.202 36.4801 160.867 36.1108C160.538 35.7415 160.077 35.5568 159.487 35.5568C159.1 35.5568 158.762 35.642 158.472 35.8125C158.188 35.9773 157.969 36.2159 157.816 36.5284C157.663 36.8352 157.583 37.2045 157.577 37.6364ZM176.195 31.9091V35.3182H167.57V31.9091H176.195ZM169.241 28.7727H173.945V40.7898C173.945 40.9716 173.977 41.125 174.039 41.25C174.102 41.3693 174.198 41.4602 174.329 41.5227C174.46 41.5795 174.627 41.608 174.832 41.608C174.974 41.608 175.138 41.5909 175.326 41.5568C175.519 41.5227 175.661 41.4943 175.752 41.4716L176.434 44.7784C176.224 44.8409 175.923 44.9176 175.531 45.0085C175.144 45.0994 174.684 45.1591 174.15 45.1875C173.07 45.2443 172.164 45.1335 171.431 44.8551C170.698 44.571 170.147 44.125 169.778 43.517C169.408 42.9091 169.229 42.1477 169.241 41.233V28.7727Z" fill="black"/>
</svg>
