<svg width="274" height="378" viewBox="0 0 274 378" fill="none" xmlns="http://www.w3.org/2000/svg">
<rect x="156" y="311" width="115" height="64" rx="7" fill="black" fill-opacity="0.1" stroke="black" stroke-width="5"/>
<path d="M199.604 341.091H194.797C194.763 340.693 194.672 340.332 194.525 340.009C194.382 339.685 194.184 339.406 193.928 339.173C193.678 338.935 193.374 338.753 193.016 338.628C192.658 338.497 192.252 338.432 191.797 338.432C191.002 338.432 190.328 338.625 189.777 339.011C189.232 339.398 188.817 339.952 188.533 340.673C188.255 341.395 188.115 342.261 188.115 343.273C188.115 344.341 188.257 345.236 188.542 345.957C188.831 346.673 189.249 347.213 189.794 347.577C190.34 347.935 190.996 348.114 191.763 348.114C192.201 348.114 192.593 348.06 192.939 347.952C193.286 347.838 193.587 347.676 193.843 347.466C194.098 347.256 194.306 347.003 194.465 346.707C194.63 346.406 194.74 346.068 194.797 345.693L199.604 345.727C199.547 346.466 199.34 347.219 198.982 347.986C198.624 348.747 198.115 349.452 197.456 350.099C196.803 350.741 195.993 351.259 195.027 351.651C194.061 352.043 192.939 352.239 191.661 352.239C190.059 352.239 188.621 351.895 187.348 351.207C186.081 350.52 185.078 349.509 184.34 348.173C183.607 346.838 183.24 345.205 183.24 343.273C183.24 341.33 183.615 339.693 184.365 338.364C185.115 337.028 186.127 336.02 187.4 335.338C188.672 334.651 190.093 334.307 191.661 334.307C192.763 334.307 193.777 334.457 194.703 334.759C195.63 335.06 196.442 335.5 197.141 336.08C197.84 336.653 198.402 337.361 198.828 338.202C199.255 339.043 199.513 340.006 199.604 341.091ZM206.527 344.636V352H201.822V334.545H206.356V341.398H206.493C206.788 340.562 207.279 339.912 207.967 339.446C208.654 338.974 209.481 338.739 210.447 338.739C211.373 338.739 212.177 338.949 212.859 339.369C213.547 339.79 214.078 340.369 214.453 341.108C214.833 341.847 215.021 342.693 215.015 343.648V352H210.311V344.636C210.316 343.989 210.154 343.48 209.825 343.111C209.501 342.741 209.038 342.557 208.436 342.557C208.055 342.557 207.72 342.642 207.43 342.812C207.146 342.977 206.924 343.216 206.765 343.528C206.612 343.835 206.532 344.205 206.527 344.636ZM217.338 352V338.909H222.042V352H217.338ZM219.69 337.545C219.054 337.545 218.508 337.335 218.054 336.915C217.599 336.494 217.372 335.989 217.372 335.398C217.372 334.807 217.599 334.301 218.054 333.881C218.508 333.46 219.054 333.25 219.69 333.25C220.332 333.25 220.877 333.46 221.326 333.881C221.781 334.301 222.008 334.807 222.008 335.398C222.008 335.989 221.781 336.494 221.326 336.915C220.877 337.335 220.332 337.545 219.69 337.545ZM229.144 334.545V352H224.439V334.545H229.144ZM236.279 352.17C235.348 352.17 234.49 351.926 233.706 351.438C232.927 350.949 232.302 350.207 231.831 349.213C231.365 348.219 231.132 346.966 231.132 345.455C231.132 343.875 231.376 342.591 231.865 341.602C232.359 340.614 232.995 339.889 233.774 339.429C234.558 338.969 235.382 338.739 236.245 338.739C236.893 338.739 237.461 338.852 237.95 339.08C238.439 339.301 238.848 339.599 239.177 339.974C239.507 340.344 239.757 340.75 239.927 341.193H239.995V334.545H244.7V352H240.029V349.852H239.927C239.745 350.295 239.484 350.693 239.143 351.045C238.808 351.392 238.399 351.668 237.916 351.872C237.439 352.071 236.893 352.17 236.279 352.17ZM238.018 348.557C238.45 348.557 238.819 348.432 239.126 348.182C239.439 347.926 239.677 347.568 239.842 347.108C240.012 346.642 240.098 346.091 240.098 345.455C240.098 344.807 240.012 344.253 239.842 343.793C239.677 343.327 239.439 342.972 239.126 342.727C238.819 342.477 238.45 342.352 238.018 342.352C237.586 342.352 237.217 342.477 236.91 342.727C236.609 342.972 236.376 343.327 236.211 343.793C236.052 344.253 235.973 344.807 235.973 345.455C235.973 346.102 236.052 346.659 236.211 347.125C236.376 347.585 236.609 347.94 236.91 348.19C237.217 348.435 237.586 348.557 238.018 348.557Z" fill="black"/>
<rect x="3" y="311" width="115" height="64" rx="7" fill="black" fill-opacity="0.1" stroke="black" stroke-width="5"/>
<path d="M45.604 341.091H40.7972C40.7631 340.693 40.6722 340.332 40.5245 340.009C40.3825 339.685 40.1836 339.406 39.9279 339.173C39.6779 338.935 39.3739 338.753 39.016 338.628C38.658 338.497 38.2518 338.432 37.7972 338.432C37.0018 338.432 36.3285 338.625 35.7773 339.011C35.2319 339.398 34.8171 339.952 34.533 340.673C34.2546 341.395 34.1154 342.261 34.1154 343.273C34.1154 344.341 34.2575 345.236 34.5415 345.957C34.8313 346.673 35.2489 347.213 35.7944 347.577C36.3398 347.935 36.9961 348.114 37.7631 348.114C38.2006 348.114 38.5927 348.06 38.9393 347.952C39.2859 347.838 39.587 347.676 39.8427 347.466C40.0984 347.256 40.3058 347.003 40.4648 346.707C40.6296 346.406 40.7404 346.068 40.7972 345.693L45.604 345.727C45.5472 346.466 45.3398 347.219 44.9819 347.986C44.6239 348.747 44.1154 349.452 43.4563 350.099C42.8029 350.741 41.9933 351.259 41.0273 351.651C40.0614 352.043 38.9393 352.239 37.6609 352.239C36.0586 352.239 34.6211 351.895 33.3484 351.207C32.0813 350.52 31.0785 349.509 30.3398 348.173C29.6069 346.838 29.2404 345.205 29.2404 343.273C29.2404 341.33 29.6154 339.693 30.3654 338.364C31.1154 337.028 32.1268 336.02 33.3995 335.338C34.6722 334.651 36.0927 334.307 37.6609 334.307C38.7631 334.307 39.7773 334.457 40.7035 334.759C41.6296 335.06 42.4421 335.5 43.141 336.08C43.8398 336.653 44.4023 337.361 44.8285 338.202C45.2546 339.043 45.5131 340.006 45.604 341.091ZM52.5266 344.636V352H47.8221V334.545H52.3562V341.398H52.4925C52.788 340.562 53.2795 339.912 53.967 339.446C54.6545 338.974 55.4812 338.739 56.4471 338.739C57.3732 338.739 58.1772 338.949 58.859 339.369C59.5465 339.79 60.0778 340.369 60.4528 341.108C60.8335 341.847 61.021 342.693 61.0153 343.648V352H56.3107V344.636C56.3164 343.989 56.1545 343.48 55.8249 343.111C55.5011 342.741 55.038 342.557 54.4357 342.557C54.055 342.557 53.7198 342.642 53.43 342.812C53.146 342.977 52.9244 343.216 52.7653 343.528C52.6119 343.835 52.5323 344.205 52.5266 344.636ZM63.3377 352V338.909H68.0423V352H63.3377ZM65.69 337.545C65.0536 337.545 64.5082 337.335 64.0536 336.915C63.5991 336.494 63.3718 335.989 63.3718 335.398C63.3718 334.807 63.5991 334.301 64.0536 333.881C64.5082 333.46 65.0536 333.25 65.69 333.25C66.332 333.25 66.8775 333.46 67.3263 333.881C67.7809 334.301 68.0082 334.807 68.0082 335.398C68.0082 335.989 67.7809 336.494 67.3263 336.915C66.8775 337.335 66.332 337.545 65.69 337.545ZM75.1438 334.545V352H70.4393V334.545H75.1438ZM82.2795 352.17C81.3477 352.17 80.4897 351.926 79.7056 351.438C78.9272 350.949 78.3022 350.207 77.8306 349.213C77.3647 348.219 77.1317 346.966 77.1317 345.455C77.1317 343.875 77.3761 342.591 77.8647 341.602C78.359 340.614 78.9954 339.889 79.7738 339.429C80.5579 338.969 81.3817 338.739 82.2454 338.739C82.8931 338.739 83.4613 338.852 83.9499 339.08C84.4386 339.301 84.8477 339.599 85.1772 339.974C85.5067 340.344 85.7567 340.75 85.9272 341.193H85.9954V334.545H90.6999V352H86.0295V349.852H85.9272C85.7454 350.295 85.484 350.693 85.1431 351.045C84.8079 351.392 84.3988 351.668 83.9158 351.872C83.4386 352.071 82.8931 352.17 82.2795 352.17ZM84.0181 348.557C84.4499 348.557 84.8192 348.432 85.1261 348.182C85.4386 347.926 85.6772 347.568 85.842 347.108C86.0124 346.642 86.0977 346.091 86.0977 345.455C86.0977 344.807 86.0124 344.253 85.842 343.793C85.6772 343.327 85.4386 342.972 85.1261 342.727C84.8192 342.477 84.4499 342.352 84.0181 342.352C83.5863 342.352 83.217 342.477 82.9102 342.727C82.609 342.972 82.3761 343.327 82.2113 343.793C82.0522 344.253 81.9727 344.807 81.9727 345.455C81.9727 346.102 82.0522 346.659 82.2113 347.125C82.3761 347.585 82.609 347.94 82.9102 348.19C83.217 348.435 83.5863 348.557 84.0181 348.557Z" fill="black"/>
<rect x="3" y="247" width="115" height="64" rx="7" fill="black" fill-opacity="0.1" stroke="black" stroke-width="5"/>
<path d="M38.995 276C38.9496 275.432 38.7365 274.989 38.3558 274.67C37.9808 274.352 37.4098 274.193 36.6428 274.193C36.1541 274.193 35.7536 274.253 35.4411 274.372C35.1342 274.486 34.907 274.642 34.7592 274.841C34.6115 275.04 34.5348 275.267 34.5291 275.523C34.5178 275.733 34.5547 275.923 34.6399 276.094C34.7308 276.259 34.8729 276.409 35.0661 276.545C35.2592 276.676 35.5064 276.795 35.8075 276.903C36.1087 277.011 36.4666 277.108 36.8814 277.193L38.3132 277.5C39.2791 277.705 40.1058 277.974 40.7933 278.31C41.4808 278.645 42.0433 279.04 42.4808 279.494C42.9183 279.943 43.2393 280.449 43.4439 281.011C43.6541 281.574 43.7621 282.187 43.7678 282.852C43.7621 284 43.4751 284.972 42.907 285.767C42.3388 286.562 41.5263 287.168 40.4695 287.582C39.4183 287.997 38.1541 288.205 36.6768 288.205C35.1598 288.205 33.8359 287.98 32.7053 287.531C31.5803 287.082 30.7053 286.392 30.0803 285.46C29.4609 284.523 29.1484 283.324 29.1428 281.864H33.6428C33.6712 282.398 33.8047 282.847 34.0433 283.21C34.282 283.574 34.6172 283.849 35.049 284.037C35.4865 284.224 36.0064 284.318 36.6087 284.318C37.1143 284.318 37.5376 284.256 37.8786 284.131C38.2195 284.006 38.478 283.832 38.6541 283.611C38.8303 283.389 38.9212 283.136 38.9268 282.852C38.9212 282.585 38.8331 282.352 38.6626 282.153C38.4979 281.949 38.2251 281.767 37.8445 281.608C37.4638 281.443 36.9496 281.29 36.3018 281.148L34.5632 280.773C33.0178 280.437 31.799 279.878 30.907 279.094C30.0206 278.304 29.5803 277.227 29.5859 275.864C29.5803 274.756 29.8757 273.787 30.4723 272.957C31.0746 272.122 31.907 271.472 32.9695 271.006C34.0376 270.54 35.2621 270.307 36.6428 270.307C38.0518 270.307 39.2706 270.543 40.299 271.014C41.3274 271.486 42.12 272.151 42.6768 273.009C43.2393 273.861 43.5234 274.858 43.5291 276H38.995ZM53.4453 274.909V278.318H44.8203V274.909H53.4453ZM46.4908 271.773H51.1953V283.79C51.1953 283.972 51.2266 284.125 51.2891 284.25C51.3516 284.369 51.4482 284.46 51.5788 284.523C51.7095 284.58 51.8771 284.608 52.0817 284.608C52.2237 284.608 52.3885 284.591 52.576 284.557C52.7692 284.523 52.9112 284.494 53.0021 284.472L53.6839 287.778C53.4737 287.841 53.1726 287.918 52.7805 288.009C52.3942 288.099 51.9339 288.159 51.3999 288.188C50.3203 288.244 49.4141 288.134 48.6811 287.855C47.9482 287.571 47.397 287.125 47.0277 286.517C46.6584 285.909 46.4794 285.148 46.4908 284.233V271.773ZM59.0128 288.205C58.1776 288.205 57.4389 288.068 56.7969 287.795C56.1605 287.517 55.6605 287.097 55.2969 286.534C54.9332 285.972 54.7514 285.256 54.7514 284.386C54.7514 283.67 54.8736 283.06 55.1179 282.554C55.3622 282.043 55.7031 281.625 56.1406 281.301C56.5781 280.977 57.0866 280.73 57.6662 280.56C58.2514 280.389 58.8821 280.278 59.5582 280.227C60.2912 280.17 60.8793 280.102 61.3224 280.023C61.7713 279.937 62.0952 279.821 62.294 279.673C62.4929 279.52 62.5923 279.318 62.5923 279.068V279.034C62.5923 278.693 62.4616 278.432 62.2003 278.25C61.9389 278.068 61.6037 277.977 61.1946 277.977C60.7457 277.977 60.3793 278.077 60.0952 278.276C59.8168 278.469 59.6491 278.767 59.5923 279.17H55.2628C55.3196 278.375 55.5724 277.642 56.0213 276.972C56.4759 276.295 57.1378 275.756 58.0071 275.352C58.8764 274.943 59.9616 274.739 61.2628 274.739C62.2003 274.739 63.0412 274.849 63.7855 275.071C64.5298 275.287 65.1634 275.591 65.6861 275.983C66.2088 276.369 66.6065 276.824 66.8793 277.347C67.1577 277.864 67.2969 278.426 67.2969 279.034V288H62.8991V286.159H62.7969C62.5355 286.648 62.2173 287.043 61.8423 287.344C61.473 287.645 61.0497 287.864 60.5724 288C60.1009 288.136 59.581 288.205 59.0128 288.205ZM60.5469 285.239C60.9048 285.239 61.2401 285.165 61.5526 285.017C61.8707 284.869 62.1293 284.656 62.3281 284.378C62.527 284.099 62.6264 283.761 62.6264 283.364V282.273C62.5014 282.324 62.3679 282.372 62.2259 282.418C62.0895 282.463 61.9418 282.506 61.7827 282.545C61.6293 282.585 61.4645 282.622 61.2884 282.656C61.1179 282.69 60.9389 282.722 60.7514 282.75C60.3878 282.807 60.0895 282.901 59.8565 283.031C59.6293 283.156 59.4588 283.312 59.3452 283.5C59.2372 283.682 59.1832 283.886 59.1832 284.114C59.1832 284.477 59.3111 284.756 59.5668 284.949C59.8224 285.142 60.1491 285.239 60.5469 285.239ZM77.3516 274.909V278.318H68.7266V274.909H77.3516ZM70.397 271.773H75.1016V283.79C75.1016 283.972 75.1328 284.125 75.1953 284.25C75.2578 284.369 75.3544 284.46 75.4851 284.523C75.6158 284.58 75.7834 284.608 75.9879 284.608C76.13 284.608 76.2947 284.591 76.4822 284.557C76.6754 284.523 76.8175 284.494 76.9084 284.472L77.5902 287.778C77.38 287.841 77.0788 287.918 76.6868 288.009C76.3004 288.099 75.8402 288.159 75.3061 288.188C74.2266 288.244 73.3203 288.134 72.5874 287.855C71.8544 287.571 71.3033 287.125 70.9339 286.517C70.5646 285.909 70.3857 285.148 70.397 284.233V271.773ZM85.4034 288.239C84.0057 288.239 82.8011 287.972 81.7898 287.438C80.7841 286.898 80.0085 286.125 79.4631 285.119C78.9233 284.108 78.6534 282.898 78.6534 281.489C78.6534 280.136 78.9261 278.955 79.4716 277.943C80.017 276.932 80.7869 276.145 81.7812 275.582C82.7756 275.02 83.9489 274.739 85.3011 274.739C86.2898 274.739 87.1847 274.892 87.9858 275.199C88.7869 275.506 89.4716 275.952 90.0398 276.537C90.608 277.116 91.0455 277.821 91.3523 278.651C91.6591 279.48 91.8125 280.415 91.8125 281.455V282.545H80.1193V279.955H87.483C87.4773 279.58 87.3807 279.25 87.1932 278.966C87.0114 278.676 86.7642 278.452 86.4517 278.293C86.1449 278.128 85.7955 278.045 85.4034 278.045C85.0227 278.045 84.6733 278.128 84.3551 278.293C84.0369 278.452 83.7813 278.673 83.5881 278.957C83.4006 279.241 83.3011 279.574 83.2898 279.955V282.75C83.2898 283.17 83.3778 283.545 83.554 283.875C83.7301 284.205 83.983 284.463 84.3125 284.651C84.642 284.838 85.0398 284.932 85.5057 284.932C85.8295 284.932 86.125 284.886 86.392 284.795C86.6648 284.705 86.8977 284.574 87.0909 284.403C87.2841 284.227 87.4261 284.017 87.517 283.773H91.8125C91.6648 284.682 91.3153 285.472 90.7642 286.142C90.2131 286.807 89.483 287.324 88.5739 287.693C87.6705 288.057 86.6136 288.239 85.4034 288.239Z" fill="black"/>
<rect x="155" y="248" width="115" height="64" rx="7" fill="black" fill-opacity="0.1" stroke="black" stroke-width="5"/>
<path d="M190.995 277C190.95 276.432 190.737 275.989 190.356 275.67C189.981 275.352 189.41 275.193 188.643 275.193C188.154 275.193 187.754 275.253 187.441 275.372C187.134 275.486 186.907 275.642 186.759 275.841C186.612 276.04 186.535 276.267 186.529 276.523C186.518 276.733 186.555 276.923 186.64 277.094C186.731 277.259 186.873 277.409 187.066 277.545C187.259 277.676 187.506 277.795 187.808 277.903C188.109 278.011 188.467 278.108 188.881 278.193L190.313 278.5C191.279 278.705 192.106 278.974 192.793 279.31C193.481 279.645 194.043 280.04 194.481 280.494C194.918 280.943 195.239 281.449 195.444 282.011C195.654 282.574 195.762 283.187 195.768 283.852C195.762 285 195.475 285.972 194.907 286.767C194.339 287.562 193.526 288.168 192.469 288.582C191.418 288.997 190.154 289.205 188.677 289.205C187.16 289.205 185.836 288.98 184.705 288.531C183.58 288.082 182.705 287.392 182.08 286.46C181.461 285.523 181.148 284.324 181.143 282.864H185.643C185.671 283.398 185.805 283.847 186.043 284.21C186.282 284.574 186.617 284.849 187.049 285.037C187.487 285.224 188.006 285.318 188.609 285.318C189.114 285.318 189.538 285.256 189.879 285.131C190.219 285.006 190.478 284.832 190.654 284.611C190.83 284.389 190.921 284.136 190.927 283.852C190.921 283.585 190.833 283.352 190.663 283.153C190.498 282.949 190.225 282.767 189.844 282.608C189.464 282.443 188.95 282.29 188.302 282.148L186.563 281.773C185.018 281.437 183.799 280.878 182.907 280.094C182.021 279.304 181.58 278.227 181.586 276.864C181.58 275.756 181.876 274.787 182.472 273.957C183.075 273.122 183.907 272.472 184.969 272.006C186.038 271.54 187.262 271.307 188.643 271.307C190.052 271.307 191.271 271.543 192.299 272.014C193.327 272.486 194.12 273.151 194.677 274.009C195.239 274.861 195.523 275.858 195.529 277H190.995ZM205.445 275.909V279.318H196.82V275.909H205.445ZM198.491 272.773H203.195V284.79C203.195 284.972 203.227 285.125 203.289 285.25C203.352 285.369 203.448 285.46 203.579 285.523C203.71 285.58 203.877 285.608 204.082 285.608C204.224 285.608 204.388 285.591 204.576 285.557C204.769 285.523 204.911 285.494 205.002 285.472L205.684 288.778C205.474 288.841 205.173 288.918 204.781 289.009C204.394 289.099 203.934 289.159 203.4 289.188C202.32 289.244 201.414 289.134 200.681 288.855C199.948 288.571 199.397 288.125 199.028 287.517C198.658 286.909 198.479 286.148 198.491 285.233V272.773ZM211.013 289.205C210.178 289.205 209.439 289.068 208.797 288.795C208.161 288.517 207.661 288.097 207.297 287.534C206.933 286.972 206.751 286.256 206.751 285.386C206.751 284.67 206.874 284.06 207.118 283.554C207.362 283.043 207.703 282.625 208.141 282.301C208.578 281.977 209.087 281.73 209.666 281.56C210.251 281.389 210.882 281.278 211.558 281.227C212.291 281.17 212.879 281.102 213.322 281.023C213.771 280.937 214.095 280.821 214.294 280.673C214.493 280.52 214.592 280.318 214.592 280.068V280.034C214.592 279.693 214.462 279.432 214.2 279.25C213.939 279.068 213.604 278.977 213.195 278.977C212.746 278.977 212.379 279.077 212.095 279.276C211.817 279.469 211.649 279.767 211.592 280.17H207.263C207.32 279.375 207.572 278.642 208.021 277.972C208.476 277.295 209.138 276.756 210.007 276.352C210.876 275.943 211.962 275.739 213.263 275.739C214.2 275.739 215.041 275.849 215.786 276.071C216.53 276.287 217.163 276.591 217.686 276.983C218.209 277.369 218.607 277.824 218.879 278.347C219.158 278.864 219.297 279.426 219.297 280.034V289H214.899V287.159H214.797C214.536 287.648 214.217 288.043 213.842 288.344C213.473 288.645 213.05 288.864 212.572 289C212.101 289.136 211.581 289.205 211.013 289.205ZM212.547 286.239C212.905 286.239 213.24 286.165 213.553 286.017C213.871 285.869 214.129 285.656 214.328 285.378C214.527 285.099 214.626 284.761 214.626 284.364V283.273C214.501 283.324 214.368 283.372 214.226 283.418C214.089 283.463 213.942 283.506 213.783 283.545C213.629 283.585 213.464 283.622 213.288 283.656C213.118 283.69 212.939 283.722 212.751 283.75C212.388 283.807 212.089 283.901 211.857 284.031C211.629 284.156 211.459 284.312 211.345 284.5C211.237 284.682 211.183 284.886 211.183 285.114C211.183 285.477 211.311 285.756 211.567 285.949C211.822 286.142 212.149 286.239 212.547 286.239ZM229.352 275.909V279.318H220.727V275.909H229.352ZM222.397 272.773H227.102V284.79C227.102 284.972 227.133 285.125 227.195 285.25C227.258 285.369 227.354 285.46 227.485 285.523C227.616 285.58 227.783 285.608 227.988 285.608C228.13 285.608 228.295 285.591 228.482 285.557C228.675 285.523 228.817 285.494 228.908 285.472L229.59 288.778C229.38 288.841 229.079 288.918 228.687 289.009C228.3 289.099 227.84 289.159 227.306 289.188C226.227 289.244 225.32 289.134 224.587 288.855C223.854 288.571 223.303 288.125 222.934 287.517C222.565 286.909 222.386 286.148 222.397 285.233V272.773ZM237.403 289.239C236.006 289.239 234.801 288.972 233.79 288.438C232.784 287.898 232.009 287.125 231.463 286.119C230.923 285.108 230.653 283.898 230.653 282.489C230.653 281.136 230.926 279.955 231.472 278.943C232.017 277.932 232.787 277.145 233.781 276.582C234.776 276.02 235.949 275.739 237.301 275.739C238.29 275.739 239.185 275.892 239.986 276.199C240.787 276.506 241.472 276.952 242.04 277.537C242.608 278.116 243.045 278.821 243.352 279.651C243.659 280.48 243.812 281.415 243.812 282.455V283.545H232.119V280.955H239.483C239.477 280.58 239.381 280.25 239.193 279.966C239.011 279.676 238.764 279.452 238.452 279.293C238.145 279.128 237.795 279.045 237.403 279.045C237.023 279.045 236.673 279.128 236.355 279.293C236.037 279.452 235.781 279.673 235.588 279.957C235.401 280.241 235.301 280.574 235.29 280.955V283.75C235.29 284.17 235.378 284.545 235.554 284.875C235.73 285.205 235.983 285.463 236.312 285.651C236.642 285.838 237.04 285.932 237.506 285.932C237.83 285.932 238.125 285.886 238.392 285.795C238.665 285.705 238.898 285.574 239.091 285.403C239.284 285.227 239.426 285.017 239.517 284.773H243.812C243.665 285.682 243.315 286.472 242.764 287.142C242.213 287.807 241.483 288.324 240.574 288.693C239.67 289.057 238.614 289.239 237.403 289.239Z" fill="black"/>
<path d="M212.674 236.479C214.043 236.659 215.299 235.695 215.479 234.326L218.411 212.018C218.591 210.649 217.627 209.393 216.258 209.213C214.889 209.033 213.633 209.997 213.453 211.366L210.847 231.196L191.018 228.589C189.649 228.409 188.393 229.373 188.213 230.742C188.033 232.111 188.997 233.367 190.366 233.547L212.674 236.479ZM135.017 136.522L211.017 235.522L214.983 232.478L138.983 133.478L135.017 136.522Z" fill="black"/>
<path d="M57.5193 234.31C57.6906 235.68 58.94 236.652 60.3101 236.481L82.6363 233.69C84.0064 233.519 84.9782 232.269 84.8069 230.899C84.6357 229.529 83.3862 228.557 82.0162 228.729L62.1706 231.209L59.6899 211.364C59.5187 209.994 58.2692 209.022 56.8991 209.193C55.5291 209.364 54.5573 210.614 54.7285 211.984L57.5193 234.31ZM135.027 133.465L58.0266 232.465L61.9734 235.535L138.973 136.535L135.027 133.465Z" fill="black"/>
<rect x="18" y="3" width="238" height="132" rx="7" fill="black" fill-opacity="0.1" stroke="black" stroke-width="5"/>
<path d="M98.2031 77V59.5455H105.737C107.033 59.5455 108.166 59.8011 109.138 60.3125C110.109 60.8239 110.865 61.5426 111.405 62.4688C111.945 63.3949 112.214 64.4773 112.214 65.7159C112.214 66.9659 111.936 68.0483 111.379 68.9631C110.828 69.8778 110.053 70.5824 109.053 71.0767C108.058 71.571 106.896 71.8182 105.567 71.8182H101.067V68.1364H104.612C105.169 68.1364 105.643 68.0398 106.036 67.8466C106.433 67.6477 106.737 67.3665 106.947 67.0028C107.163 66.6392 107.271 66.2102 107.271 65.7159C107.271 65.2159 107.163 64.7898 106.947 64.4375C106.737 64.0795 106.433 63.8068 106.036 63.6193C105.643 63.4261 105.169 63.3295 104.612 63.3295H102.942V77H98.2031ZM117.083 77.2045C116.248 77.2045 115.509 77.0682 114.867 76.7955C114.231 76.517 113.731 76.0966 113.367 75.5341C113.004 74.9716 112.822 74.2557 112.822 73.3864C112.822 72.6705 112.944 72.0597 113.188 71.554C113.433 71.0426 113.773 70.625 114.211 70.3011C114.648 69.9773 115.157 69.7301 115.737 69.5597C116.322 69.3892 116.952 69.2784 117.629 69.2273C118.362 69.1705 118.95 69.1023 119.393 69.0227C119.842 68.9375 120.165 68.821 120.364 68.6733C120.563 68.5199 120.663 68.3182 120.663 68.0682V68.0341C120.663 67.6932 120.532 67.4318 120.271 67.25C120.009 67.0682 119.674 66.9773 119.265 66.9773C118.816 66.9773 118.45 67.0767 118.165 67.2756C117.887 67.4687 117.719 67.767 117.663 68.1705H113.333C113.39 67.375 113.643 66.642 114.092 65.9716C114.546 65.2955 115.208 64.7557 116.077 64.3523C116.947 63.9432 118.032 63.7386 119.333 63.7386C120.271 63.7386 121.112 63.8494 121.856 64.071C122.6 64.2869 123.234 64.5909 123.756 64.983C124.279 65.3693 124.677 65.8239 124.95 66.3466C125.228 66.8636 125.367 67.4261 125.367 68.0341V77H120.969V75.1591H120.867C120.606 75.6477 120.288 76.0426 119.913 76.3438C119.543 76.6449 119.12 76.8636 118.643 77C118.171 77.1364 117.651 77.2045 117.083 77.2045ZM118.617 74.2386C118.975 74.2386 119.31 74.1648 119.623 74.017C119.941 73.8693 120.2 73.6562 120.398 73.3778C120.597 73.0994 120.697 72.7614 120.697 72.3636V71.2727C120.572 71.3239 120.438 71.3722 120.296 71.4176C120.16 71.4631 120.012 71.5057 119.853 71.5455C119.7 71.5852 119.535 71.6222 119.359 71.6562C119.188 71.6903 119.009 71.7216 118.822 71.75C118.458 71.8068 118.16 71.9006 117.927 72.0312C117.7 72.1562 117.529 72.3125 117.415 72.5C117.308 72.6818 117.254 72.8864 117.254 73.1136C117.254 73.4773 117.381 73.7557 117.637 73.9489C117.893 74.142 118.219 74.2386 118.617 74.2386ZM127.615 77V63.9091H132.183V66.3977H132.32C132.558 65.4773 132.936 64.804 133.453 64.3778C133.976 63.9517 134.587 63.7386 135.286 63.7386C135.49 63.7386 135.692 63.7557 135.891 63.7898C136.095 63.8182 136.291 63.8608 136.479 63.9176V67.9318C136.246 67.8523 135.959 67.7926 135.618 67.7528C135.277 67.7131 134.984 67.6932 134.74 67.6932C134.28 67.6932 133.865 67.7983 133.496 68.0085C133.132 68.2131 132.845 68.5028 132.635 68.8778C132.425 69.2472 132.32 69.6818 132.32 70.1818V77H127.615ZM143.544 77.2386C142.146 77.2386 140.942 76.9716 139.93 76.4375C138.925 75.8977 138.149 75.125 137.604 74.1193C137.064 73.108 136.794 71.8977 136.794 70.4886C136.794 69.1364 137.067 67.9545 137.612 66.9432C138.158 65.9318 138.928 65.1449 139.922 64.5824C140.916 64.0199 142.089 63.7386 143.442 63.7386C144.43 63.7386 145.325 63.892 146.126 64.1989C146.928 64.5057 147.612 64.9517 148.18 65.5369C148.749 66.1165 149.186 66.821 149.493 67.6506C149.8 68.4801 149.953 69.4148 149.953 70.4545V71.5455H138.26V68.9545H145.624C145.618 68.5795 145.521 68.25 145.334 67.9659C145.152 67.6761 144.905 67.4517 144.592 67.2926C144.286 67.1278 143.936 67.0455 143.544 67.0455C143.163 67.0455 142.814 67.1278 142.496 67.2926C142.178 67.4517 141.922 67.6733 141.729 67.9574C141.541 68.2415 141.442 68.5739 141.43 68.9545V71.75C141.43 72.1705 141.518 72.5455 141.695 72.875C141.871 73.2045 142.124 73.4631 142.453 73.6506C142.783 73.8381 143.18 73.9318 143.646 73.9318C143.97 73.9318 144.266 73.8864 144.533 73.7955C144.805 73.7045 145.038 73.5739 145.232 73.4034C145.425 73.2273 145.567 73.017 145.658 72.7727H149.953C149.805 73.6818 149.456 74.4716 148.905 75.142C148.354 75.8068 147.624 76.3239 146.714 76.6932C145.811 77.0568 144.754 77.2386 143.544 77.2386ZM156.577 69.6364V77H151.873V63.9091H156.339V66.3977H156.475C156.759 65.5682 157.259 64.9176 157.975 64.446C158.697 63.9744 159.538 63.7386 160.498 63.7386C161.424 63.7386 162.228 63.9517 162.91 64.3778C163.597 64.7983 164.129 65.3778 164.504 66.1165C164.884 66.8551 165.072 67.6989 165.066 68.6477V77H160.362V69.6364C160.367 68.9886 160.202 68.4801 159.867 68.1108C159.538 67.7415 159.077 67.5568 158.487 67.5568C158.1 67.5568 157.762 67.642 157.472 67.8125C157.188 67.9773 156.969 68.2159 156.816 68.5284C156.663 68.8352 156.583 69.2045 156.577 69.6364ZM175.195 63.9091V67.3182H166.57V63.9091H175.195ZM168.241 60.7727H172.945V72.7898C172.945 72.9716 172.977 73.125 173.039 73.25C173.102 73.3693 173.198 73.4602 173.329 73.5227C173.46 73.5795 173.627 73.608 173.832 73.608C173.974 73.608 174.138 73.5909 174.326 73.5568C174.519 73.5227 174.661 73.4943 174.752 73.4716L175.434 76.7784C175.224 76.8409 174.923 76.9176 174.531 77.0085C174.144 77.0994 173.684 77.1591 173.15 77.1875C172.07 77.2443 171.164 77.1335 170.431 76.8551C169.698 76.571 169.147 76.125 168.778 75.517C168.408 74.9091 168.229 74.1477 168.241 73.233V60.7727Z" fill="black"/>
</svg>
