<svg width="274" height="444" viewBox="0 0 274 444" fill="none" xmlns="http://www.w3.org/2000/svg">
<rect x="156" y="377" width="115" height="64" rx="7" fill="black" fill-opacity="0.1" stroke="black" stroke-width="5"/>
<path d="M199.604 407.091H194.797C194.763 406.693 194.672 406.332 194.525 406.009C194.382 405.685 194.184 405.406 193.928 405.173C193.678 404.935 193.374 404.753 193.016 404.628C192.658 404.497 192.252 404.432 191.797 404.432C191.002 404.432 190.328 404.625 189.777 405.011C189.232 405.398 188.817 405.952 188.533 406.673C188.255 407.395 188.115 408.261 188.115 409.273C188.115 410.341 188.257 411.236 188.542 411.957C188.831 412.673 189.249 413.213 189.794 413.577C190.34 413.935 190.996 414.114 191.763 414.114C192.201 414.114 192.593 414.06 192.939 413.952C193.286 413.838 193.587 413.676 193.843 413.466C194.098 413.256 194.306 413.003 194.465 412.707C194.63 412.406 194.74 412.068 194.797 411.693L199.604 411.727C199.547 412.466 199.34 413.219 198.982 413.986C198.624 414.747 198.115 415.452 197.456 416.099C196.803 416.741 195.993 417.259 195.027 417.651C194.061 418.043 192.939 418.239 191.661 418.239C190.059 418.239 188.621 417.895 187.348 417.207C186.081 416.52 185.078 415.509 184.34 414.173C183.607 412.838 183.24 411.205 183.24 409.273C183.24 407.33 183.615 405.693 184.365 404.364C185.115 403.028 186.127 402.02 187.4 401.338C188.672 400.651 190.093 400.307 191.661 400.307C192.763 400.307 193.777 400.457 194.703 400.759C195.63 401.06 196.442 401.5 197.141 402.08C197.84 402.653 198.402 403.361 198.828 404.202C199.255 405.043 199.513 406.006 199.604 407.091ZM206.527 410.636V418H201.822V400.545H206.356V407.398H206.493C206.788 406.562 207.279 405.912 207.967 405.446C208.654 404.974 209.481 404.739 210.447 404.739C211.373 404.739 212.177 404.949 212.859 405.369C213.547 405.79 214.078 406.369 214.453 407.108C214.833 407.847 215.021 408.693 215.015 409.648V418H210.311V410.636C210.316 409.989 210.154 409.48 209.825 409.111C209.501 408.741 209.038 408.557 208.436 408.557C208.055 408.557 207.72 408.642 207.43 408.812C207.146 408.977 206.924 409.216 206.765 409.528C206.612 409.835 206.532 410.205 206.527 410.636ZM217.338 418V404.909H222.042V418H217.338ZM219.69 403.545C219.054 403.545 218.508 403.335 218.054 402.915C217.599 402.494 217.372 401.989 217.372 401.398C217.372 400.807 217.599 400.301 218.054 399.881C218.508 399.46 219.054 399.25 219.69 399.25C220.332 399.25 220.877 399.46 221.326 399.881C221.781 400.301 222.008 400.807 222.008 401.398C222.008 401.989 221.781 402.494 221.326 402.915C220.877 403.335 220.332 403.545 219.69 403.545ZM229.144 400.545V418H224.439V400.545H229.144ZM236.279 418.17C235.348 418.17 234.49 417.926 233.706 417.438C232.927 416.949 232.302 416.207 231.831 415.213C231.365 414.219 231.132 412.966 231.132 411.455C231.132 409.875 231.376 408.591 231.865 407.602C232.359 406.614 232.995 405.889 233.774 405.429C234.558 404.969 235.382 404.739 236.245 404.739C236.893 404.739 237.461 404.852 237.95 405.08C238.439 405.301 238.848 405.599 239.177 405.974C239.507 406.344 239.757 406.75 239.927 407.193H239.995V400.545H244.7V418H240.029V415.852H239.927C239.745 416.295 239.484 416.693 239.143 417.045C238.808 417.392 238.399 417.668 237.916 417.872C237.439 418.071 236.893 418.17 236.279 418.17ZM238.018 414.557C238.45 414.557 238.819 414.432 239.126 414.182C239.439 413.926 239.677 413.568 239.842 413.108C240.012 412.642 240.098 412.091 240.098 411.455C240.098 410.807 240.012 410.253 239.842 409.793C239.677 409.327 239.439 408.972 239.126 408.727C238.819 408.477 238.45 408.352 238.018 408.352C237.586 408.352 237.217 408.477 236.91 408.727C236.609 408.972 236.376 409.327 236.211 409.793C236.052 410.253 235.973 410.807 235.973 411.455C235.973 412.102 236.052 412.659 236.211 413.125C236.376 413.585 236.609 413.94 236.91 414.19C237.217 414.435 237.586 414.557 238.018 414.557Z" fill="black"/>
<rect x="3" y="377" width="115" height="64" rx="7" fill="black" fill-opacity="0.1" stroke="black" stroke-width="5"/>
<path d="M45.604 407.091H40.7972C40.7631 406.693 40.6722 406.332 40.5245 406.009C40.3825 405.685 40.1836 405.406 39.9279 405.173C39.6779 404.935 39.3739 404.753 39.016 404.628C38.658 404.497 38.2518 404.432 37.7972 404.432C37.0018 404.432 36.3285 404.625 35.7773 405.011C35.2319 405.398 34.8171 405.952 34.533 406.673C34.2546 407.395 34.1154 408.261 34.1154 409.273C34.1154 410.341 34.2575 411.236 34.5415 411.957C34.8313 412.673 35.2489 413.213 35.7944 413.577C36.3398 413.935 36.9961 414.114 37.7631 414.114C38.2006 414.114 38.5927 414.06 38.9393 413.952C39.2859 413.838 39.587 413.676 39.8427 413.466C40.0984 413.256 40.3058 413.003 40.4648 412.707C40.6296 412.406 40.7404 412.068 40.7972 411.693L45.604 411.727C45.5472 412.466 45.3398 413.219 44.9819 413.986C44.6239 414.747 44.1154 415.452 43.4563 416.099C42.8029 416.741 41.9933 417.259 41.0273 417.651C40.0614 418.043 38.9393 418.239 37.6609 418.239C36.0586 418.239 34.6211 417.895 33.3484 417.207C32.0813 416.52 31.0785 415.509 30.3398 414.173C29.6069 412.838 29.2404 411.205 29.2404 409.273C29.2404 407.33 29.6154 405.693 30.3654 404.364C31.1154 403.028 32.1268 402.02 33.3995 401.338C34.6722 400.651 36.0927 400.307 37.6609 400.307C38.7631 400.307 39.7773 400.457 40.7035 400.759C41.6296 401.06 42.4421 401.5 43.141 402.08C43.8398 402.653 44.4023 403.361 44.8285 404.202C45.2546 405.043 45.5131 406.006 45.604 407.091ZM52.5266 410.636V418H47.8221V400.545H52.3562V407.398H52.4925C52.788 406.562 53.2795 405.912 53.967 405.446C54.6545 404.974 55.4812 404.739 56.4471 404.739C57.3732 404.739 58.1772 404.949 58.859 405.369C59.5465 405.79 60.0778 406.369 60.4528 407.108C60.8335 407.847 61.021 408.693 61.0153 409.648V418H56.3107V410.636C56.3164 409.989 56.1545 409.48 55.8249 409.111C55.5011 408.741 55.038 408.557 54.4357 408.557C54.055 408.557 53.7198 408.642 53.43 408.812C53.146 408.977 52.9244 409.216 52.7653 409.528C52.6119 409.835 52.5323 410.205 52.5266 410.636ZM63.3377 418V404.909H68.0423V418H63.3377ZM65.69 403.545C65.0536 403.545 64.5082 403.335 64.0536 402.915C63.5991 402.494 63.3718 401.989 63.3718 401.398C63.3718 400.807 63.5991 400.301 64.0536 399.881C64.5082 399.46 65.0536 399.25 65.69 399.25C66.332 399.25 66.8775 399.46 67.3263 399.881C67.7809 400.301 68.0082 400.807 68.0082 401.398C68.0082 401.989 67.7809 402.494 67.3263 402.915C66.8775 403.335 66.332 403.545 65.69 403.545ZM75.1438 400.545V418H70.4393V400.545H75.1438ZM82.2795 418.17C81.3477 418.17 80.4897 417.926 79.7056 417.438C78.9272 416.949 78.3022 416.207 77.8306 415.213C77.3647 414.219 77.1317 412.966 77.1317 411.455C77.1317 409.875 77.3761 408.591 77.8647 407.602C78.359 406.614 78.9954 405.889 79.7738 405.429C80.5579 404.969 81.3817 404.739 82.2454 404.739C82.8931 404.739 83.4613 404.852 83.9499 405.08C84.4386 405.301 84.8477 405.599 85.1772 405.974C85.5067 406.344 85.7567 406.75 85.9272 407.193H85.9954V400.545H90.6999V418H86.0295V415.852H85.9272C85.7454 416.295 85.484 416.693 85.1431 417.045C84.8079 417.392 84.3988 417.668 83.9158 417.872C83.4386 418.071 82.8931 418.17 82.2795 418.17ZM84.0181 414.557C84.4499 414.557 84.8192 414.432 85.1261 414.182C85.4386 413.926 85.6772 413.568 85.842 413.108C86.0124 412.642 86.0977 412.091 86.0977 411.455C86.0977 410.807 86.0124 410.253 85.842 409.793C85.6772 409.327 85.4386 408.972 85.1261 408.727C84.8192 408.477 84.4499 408.352 84.0181 408.352C83.5863 408.352 83.217 408.477 82.9102 408.727C82.609 408.972 82.3761 409.327 82.2113 409.793C82.0522 410.253 81.9727 410.807 81.9727 411.455C81.9727 412.102 82.0522 412.659 82.2113 413.125C82.3761 413.585 82.609 413.94 82.9102 414.19C83.217 414.435 83.5863 414.557 84.0181 414.557Z" fill="black"/>
<rect x="156" y="313" width="115" height="64" rx="7" fill="black" fill-opacity="0.1" stroke="black" stroke-width="5"/>
<path d="M199.604 343.091H194.797C194.763 342.693 194.672 342.332 194.525 342.009C194.382 341.685 194.184 341.406 193.928 341.173C193.678 340.935 193.374 340.753 193.016 340.628C192.658 340.497 192.252 340.432 191.797 340.432C191.002 340.432 190.328 340.625 189.777 341.011C189.232 341.398 188.817 341.952 188.533 342.673C188.255 343.395 188.115 344.261 188.115 345.273C188.115 346.341 188.257 347.236 188.542 347.957C188.831 348.673 189.249 349.213 189.794 349.577C190.34 349.935 190.996 350.114 191.763 350.114C192.201 350.114 192.593 350.06 192.939 349.952C193.286 349.838 193.587 349.676 193.843 349.466C194.098 349.256 194.306 349.003 194.465 348.707C194.63 348.406 194.74 348.068 194.797 347.693L199.604 347.727C199.547 348.466 199.34 349.219 198.982 349.986C198.624 350.747 198.115 351.452 197.456 352.099C196.803 352.741 195.993 353.259 195.027 353.651C194.061 354.043 192.939 354.239 191.661 354.239C190.059 354.239 188.621 353.895 187.348 353.207C186.081 352.52 185.078 351.509 184.34 350.173C183.607 348.838 183.24 347.205 183.24 345.273C183.24 343.33 183.615 341.693 184.365 340.364C185.115 339.028 186.127 338.02 187.4 337.338C188.672 336.651 190.093 336.307 191.661 336.307C192.763 336.307 193.777 336.457 194.703 336.759C195.63 337.06 196.442 337.5 197.141 338.08C197.84 338.653 198.402 339.361 198.828 340.202C199.255 341.043 199.513 342.006 199.604 343.091ZM206.527 346.636V354H201.822V336.545H206.356V343.398H206.493C206.788 342.562 207.279 341.912 207.967 341.446C208.654 340.974 209.481 340.739 210.447 340.739C211.373 340.739 212.177 340.949 212.859 341.369C213.547 341.79 214.078 342.369 214.453 343.108C214.833 343.847 215.021 344.693 215.015 345.648V354H210.311V346.636C210.316 345.989 210.154 345.48 209.825 345.111C209.501 344.741 209.038 344.557 208.436 344.557C208.055 344.557 207.72 344.642 207.43 344.812C207.146 344.977 206.924 345.216 206.765 345.528C206.612 345.835 206.532 346.205 206.527 346.636ZM217.338 354V340.909H222.042V354H217.338ZM219.69 339.545C219.054 339.545 218.508 339.335 218.054 338.915C217.599 338.494 217.372 337.989 217.372 337.398C217.372 336.807 217.599 336.301 218.054 335.881C218.508 335.46 219.054 335.25 219.69 335.25C220.332 335.25 220.877 335.46 221.326 335.881C221.781 336.301 222.008 336.807 222.008 337.398C222.008 337.989 221.781 338.494 221.326 338.915C220.877 339.335 220.332 339.545 219.69 339.545ZM229.144 336.545V354H224.439V336.545H229.144ZM236.279 354.17C235.348 354.17 234.49 353.926 233.706 353.438C232.927 352.949 232.302 352.207 231.831 351.213C231.365 350.219 231.132 348.966 231.132 347.455C231.132 345.875 231.376 344.591 231.865 343.602C232.359 342.614 232.995 341.889 233.774 341.429C234.558 340.969 235.382 340.739 236.245 340.739C236.893 340.739 237.461 340.852 237.95 341.08C238.439 341.301 238.848 341.599 239.177 341.974C239.507 342.344 239.757 342.75 239.927 343.193H239.995V336.545H244.7V354H240.029V351.852H239.927C239.745 352.295 239.484 352.693 239.143 353.045C238.808 353.392 238.399 353.668 237.916 353.872C237.439 354.071 236.893 354.17 236.279 354.17ZM238.018 350.557C238.45 350.557 238.819 350.432 239.126 350.182C239.439 349.926 239.677 349.568 239.842 349.108C240.012 348.642 240.098 348.091 240.098 347.455C240.098 346.807 240.012 346.253 239.842 345.793C239.677 345.327 239.439 344.972 239.126 344.727C238.819 344.477 238.45 344.352 238.018 344.352C237.586 344.352 237.217 344.477 236.91 344.727C236.609 344.972 236.376 345.327 236.211 345.793C236.052 346.253 235.973 346.807 235.973 347.455C235.973 348.102 236.052 348.659 236.211 349.125C236.376 349.585 236.609 349.94 236.91 350.19C237.217 350.435 237.586 350.557 238.018 350.557Z" fill="black"/>
<rect x="3" y="313" width="115" height="64" rx="7" fill="black" fill-opacity="0.1" stroke="black" stroke-width="5"/>
<path d="M45.604 343.091H40.7972C40.7631 342.693 40.6722 342.332 40.5245 342.009C40.3825 341.685 40.1836 341.406 39.9279 341.173C39.6779 340.935 39.3739 340.753 39.016 340.628C38.658 340.497 38.2518 340.432 37.7972 340.432C37.0018 340.432 36.3285 340.625 35.7773 341.011C35.2319 341.398 34.8171 341.952 34.533 342.673C34.2546 343.395 34.1154 344.261 34.1154 345.273C34.1154 346.341 34.2575 347.236 34.5415 347.957C34.8313 348.673 35.2489 349.213 35.7944 349.577C36.3398 349.935 36.9961 350.114 37.7631 350.114C38.2006 350.114 38.5927 350.06 38.9393 349.952C39.2859 349.838 39.587 349.676 39.8427 349.466C40.0984 349.256 40.3058 349.003 40.4648 348.707C40.6296 348.406 40.7404 348.068 40.7972 347.693L45.604 347.727C45.5472 348.466 45.3398 349.219 44.9819 349.986C44.6239 350.747 44.1154 351.452 43.4563 352.099C42.8029 352.741 41.9933 353.259 41.0273 353.651C40.0614 354.043 38.9393 354.239 37.6609 354.239C36.0586 354.239 34.6211 353.895 33.3484 353.207C32.0813 352.52 31.0785 351.509 30.3398 350.173C29.6069 348.838 29.2404 347.205 29.2404 345.273C29.2404 343.33 29.6154 341.693 30.3654 340.364C31.1154 339.028 32.1268 338.02 33.3995 337.338C34.6722 336.651 36.0927 336.307 37.6609 336.307C38.7631 336.307 39.7773 336.457 40.7035 336.759C41.6296 337.06 42.4421 337.5 43.141 338.08C43.8398 338.653 44.4023 339.361 44.8285 340.202C45.2546 341.043 45.5131 342.006 45.604 343.091ZM52.5266 346.636V354H47.8221V336.545H52.3562V343.398H52.4925C52.788 342.562 53.2795 341.912 53.967 341.446C54.6545 340.974 55.4812 340.739 56.4471 340.739C57.3732 340.739 58.1772 340.949 58.859 341.369C59.5465 341.79 60.0778 342.369 60.4528 343.108C60.8335 343.847 61.021 344.693 61.0153 345.648V354H56.3107V346.636C56.3164 345.989 56.1545 345.48 55.8249 345.111C55.5011 344.741 55.038 344.557 54.4357 344.557C54.055 344.557 53.7198 344.642 53.43 344.812C53.146 344.977 52.9244 345.216 52.7653 345.528C52.6119 345.835 52.5323 346.205 52.5266 346.636ZM63.3377 354V340.909H68.0423V354H63.3377ZM65.69 339.545C65.0536 339.545 64.5082 339.335 64.0536 338.915C63.5991 338.494 63.3718 337.989 63.3718 337.398C63.3718 336.807 63.5991 336.301 64.0536 335.881C64.5082 335.46 65.0536 335.25 65.69 335.25C66.332 335.25 66.8775 335.46 67.3263 335.881C67.7809 336.301 68.0082 336.807 68.0082 337.398C68.0082 337.989 67.7809 338.494 67.3263 338.915C66.8775 339.335 66.332 339.545 65.69 339.545ZM75.1438 336.545V354H70.4393V336.545H75.1438ZM82.2795 354.17C81.3477 354.17 80.4897 353.926 79.7056 353.438C78.9272 352.949 78.3022 352.207 77.8306 351.213C77.3647 350.219 77.1317 348.966 77.1317 347.455C77.1317 345.875 77.3761 344.591 77.8647 343.602C78.359 342.614 78.9954 341.889 79.7738 341.429C80.5579 340.969 81.3817 340.739 82.2454 340.739C82.8931 340.739 83.4613 340.852 83.9499 341.08C84.4386 341.301 84.8477 341.599 85.1772 341.974C85.5067 342.344 85.7567 342.75 85.9272 343.193H85.9954V336.545H90.6999V354H86.0295V351.852H85.9272C85.7454 352.295 85.484 352.693 85.1431 353.045C84.8079 353.392 84.3988 353.668 83.9158 353.872C83.4386 354.071 82.8931 354.17 82.2795 354.17ZM84.0181 350.557C84.4499 350.557 84.8192 350.432 85.1261 350.182C85.4386 349.926 85.6772 349.568 85.842 349.108C86.0124 348.642 86.0977 348.091 86.0977 347.455C86.0977 346.807 86.0124 346.253 85.842 345.793C85.6772 345.327 85.4386 344.972 85.1261 344.727C84.8192 344.477 84.4499 344.352 84.0181 344.352C83.5863 344.352 83.217 344.477 82.9102 344.727C82.609 344.972 82.3761 345.327 82.2113 345.793C82.0522 346.253 81.9727 346.807 81.9727 347.455C81.9727 348.102 82.0522 348.659 82.2113 349.125C82.3761 349.585 82.609 349.94 82.9102 350.19C83.217 350.435 83.5863 350.557 84.0181 350.557Z" fill="black"/>
<path d="M212.674 302.479C214.043 302.659 215.299 301.695 215.479 300.326L218.411 278.018C218.591 276.649 217.627 275.393 216.258 275.213C214.889 275.033 213.633 275.997 213.453 277.366L210.847 297.196L191.018 294.589C189.649 294.409 188.393 295.373 188.213 296.742C188.033 298.111 188.997 299.367 190.366 299.547L212.674 302.479ZM135.017 202.522L211.017 301.522L214.983 298.478L138.983 199.478L135.017 202.522Z" fill="black"/>
<path d="M57.5193 300.31C57.6906 301.68 58.94 302.652 60.3101 302.481L82.6363 299.69C84.0064 299.519 84.9782 298.269 84.8069 296.899C84.6357 295.529 83.3862 294.557 82.0162 294.729L62.1706 297.209L59.6899 277.364C59.5187 275.994 58.2692 275.022 56.8991 275.193C55.5291 275.364 54.5573 276.614 54.7285 277.984L57.5193 300.31ZM135.027 199.465L58.0266 298.465L61.9734 301.535L138.973 202.535L135.027 199.465Z" fill="black"/>
<rect x="18" y="135" width="238" height="66" rx="7" fill="black" fill-opacity="0.1" stroke="black" stroke-width="5"/>
<path d="M42.7955 166.091H37.9886C37.9545 165.693 37.8636 165.332 37.7159 165.009C37.5739 164.685 37.375 164.406 37.1193 164.173C36.8693 163.935 36.5653 163.753 36.2074 163.628C35.8494 163.497 35.4432 163.432 34.9886 163.432C34.1932 163.432 33.5199 163.625 32.9688 164.011C32.4233 164.398 32.0085 164.952 31.7244 165.673C31.446 166.395 31.3068 167.261 31.3068 168.273C31.3068 169.341 31.4489 170.236 31.733 170.957C32.0227 171.673 32.4403 172.213 32.9858 172.577C33.5313 172.935 34.1875 173.114 34.9545 173.114C35.392 173.114 35.7841 173.06 36.1307 172.952C36.4773 172.838 36.7784 172.676 37.0341 172.466C37.2898 172.256 37.4972 172.003 37.6562 171.707C37.821 171.406 37.9318 171.068 37.9886 170.693L42.7955 170.727C42.7386 171.466 42.5313 172.219 42.1733 172.986C41.8153 173.747 41.3068 174.452 40.6477 175.099C39.9943 175.741 39.1847 176.259 38.2188 176.651C37.2528 177.043 36.1307 177.239 34.8523 177.239C33.25 177.239 31.8125 176.895 30.5398 176.207C29.2727 175.52 28.2699 174.509 27.5312 173.173C26.7983 171.838 26.4318 170.205 26.4318 168.273C26.4318 166.33 26.8068 164.693 27.5568 163.364C28.3068 162.028 29.3182 161.02 30.5909 160.338C31.8636 159.651 33.2841 159.307 34.8523 159.307C35.9545 159.307 36.9688 159.457 37.8949 159.759C38.821 160.06 39.6335 160.5 40.3324 161.08C41.0313 161.653 41.5938 162.361 42.0199 163.202C42.446 164.043 42.7045 165.006 42.7955 166.091ZM51.3203 177.239C49.8999 177.239 48.6839 176.957 47.6726 176.395C46.6612 175.827 45.8857 175.037 45.3459 174.026C44.8061 173.009 44.5362 171.83 44.5362 170.489C44.5362 169.148 44.8061 167.972 45.3459 166.96C45.8857 165.943 46.6612 165.153 47.6726 164.591C48.6839 164.023 49.8999 163.739 51.3203 163.739C52.7408 163.739 53.9567 164.023 54.968 164.591C55.9794 165.153 56.755 165.943 57.2947 166.96C57.8345 167.972 58.1044 169.148 58.1044 170.489C58.1044 171.83 57.8345 173.009 57.2947 174.026C56.755 175.037 55.9794 175.827 54.968 176.395C53.9567 176.957 52.7408 177.239 51.3203 177.239ZM51.3544 173.761C51.7521 173.761 52.0959 173.628 52.3857 173.361C52.6754 173.094 52.8999 172.713 53.0589 172.219C53.218 171.724 53.2976 171.136 53.2976 170.455C53.2976 169.767 53.218 169.179 53.0589 168.69C52.8999 168.196 52.6754 167.815 52.3857 167.548C52.0959 167.281 51.7521 167.148 51.3544 167.148C50.9339 167.148 50.5732 167.281 50.272 167.548C49.9709 167.815 49.7408 168.196 49.5817 168.69C49.4226 169.179 49.343 169.767 49.343 170.455C49.343 171.136 49.4226 171.724 49.5817 172.219C49.7408 172.713 49.9709 173.094 50.272 173.361C50.5732 173.628 50.9339 173.761 51.3544 173.761ZM64.718 169.636V177H60.0135V163.909H64.4794V166.398H64.6158C64.8999 165.568 65.3999 164.918 66.1158 164.446C66.8374 163.974 67.6783 163.739 68.6385 163.739C69.5646 163.739 70.3686 163.952 71.0504 164.378C71.7379 164.798 72.2692 165.378 72.6442 166.116C73.0249 166.855 73.2124 167.699 73.2067 168.648V177H68.5021V169.636C68.5078 168.989 68.343 168.48 68.0078 168.111C67.6783 167.741 67.218 167.557 66.6271 167.557C66.2408 167.557 65.9027 167.642 65.6129 167.812C65.3288 167.977 65.1101 168.216 64.9567 168.528C64.8033 168.835 64.7237 169.205 64.718 169.636ZM83.3359 163.909V167.318H74.7109V163.909H83.3359ZM76.3814 160.773H81.0859V172.79C81.0859 172.972 81.1172 173.125 81.1797 173.25C81.2422 173.369 81.3388 173.46 81.4695 173.523C81.6001 173.58 81.7678 173.608 81.9723 173.608C82.1143 173.608 82.2791 173.591 82.4666 173.557C82.6598 173.523 82.8018 173.494 82.8928 173.472L83.5746 176.778C83.3643 176.841 83.0632 176.918 82.6712 177.009C82.2848 177.099 81.8246 177.159 81.2905 177.188C80.2109 177.244 79.3047 177.134 78.5717 176.855C77.8388 176.571 77.2876 176.125 76.9183 175.517C76.549 174.909 76.37 174.148 76.3814 173.233V160.773ZM91.3878 177.239C89.9901 177.239 88.7855 176.972 87.7741 176.438C86.7685 175.898 85.9929 175.125 85.4474 174.119C84.9077 173.108 84.6378 171.898 84.6378 170.489C84.6378 169.136 84.9105 167.955 85.456 166.943C86.0014 165.932 86.7713 165.145 87.7656 164.582C88.7599 164.02 89.9332 163.739 91.2855 163.739C92.2741 163.739 93.169 163.892 93.9702 164.199C94.7713 164.506 95.456 164.952 96.0241 165.537C96.5923 166.116 97.0298 166.821 97.3366 167.651C97.6435 168.48 97.7969 169.415 97.7969 170.455V171.545H86.1037V168.955H93.4673C93.4616 168.58 93.3651 168.25 93.1776 167.966C92.9957 167.676 92.7486 167.452 92.4361 167.293C92.1293 167.128 91.7798 167.045 91.3878 167.045C91.0071 167.045 90.6577 167.128 90.3395 167.293C90.0213 167.452 89.7656 167.673 89.5724 167.957C89.3849 168.241 89.2855 168.574 89.2741 168.955V171.75C89.2741 172.17 89.3622 172.545 89.5384 172.875C89.7145 173.205 89.9673 173.463 90.2969 173.651C90.6264 173.838 91.0241 173.932 91.4901 173.932C91.8139 173.932 92.1094 173.886 92.3764 173.795C92.6491 173.705 92.8821 173.574 93.0753 173.403C93.2685 173.227 93.4105 173.017 93.5014 172.773H97.7969C97.6491 173.682 97.2997 174.472 96.7486 175.142C96.1974 175.807 95.4673 176.324 94.5582 176.693C93.6548 177.057 92.598 177.239 91.3878 177.239ZM103.633 163.909L105.542 167.966L107.553 163.909H112.224L108.712 170.455L112.394 177H107.758L105.542 172.841L103.394 177H98.6896L102.406 170.455L98.9283 163.909H103.633ZM121.703 163.909V167.318H113.078V163.909H121.703ZM114.749 160.773H119.453V172.79C119.453 172.972 119.484 173.125 119.547 173.25C119.609 173.369 119.706 173.46 119.837 173.523C119.967 173.58 120.135 173.608 120.339 173.608C120.482 173.608 120.646 173.591 120.834 173.557C121.027 173.523 121.169 173.494 121.26 173.472L121.942 176.778C121.732 176.841 121.43 176.918 121.038 177.009C120.652 177.099 120.192 177.159 119.658 177.188C118.578 177.244 117.672 177.134 116.939 176.855C116.206 176.571 115.655 176.125 115.286 175.517C114.916 174.909 114.737 174.148 114.749 173.233V160.773ZM128.336 177V159.545H135.87C137.165 159.545 138.299 159.801 139.271 160.312C140.242 160.824 140.998 161.543 141.538 162.469C142.077 163.395 142.347 164.477 142.347 165.716C142.347 166.966 142.069 168.048 141.512 168.963C140.961 169.878 140.185 170.582 139.185 171.077C138.191 171.571 137.029 171.818 135.7 171.818H131.2V168.136H134.745C135.302 168.136 135.776 168.04 136.168 167.847C136.566 167.648 136.87 167.366 137.08 167.003C137.296 166.639 137.404 166.21 137.404 165.716C137.404 165.216 137.296 164.79 137.08 164.438C136.87 164.08 136.566 163.807 136.168 163.619C135.776 163.426 135.302 163.33 134.745 163.33H133.075V177H128.336ZM144.154 177V163.909H148.722V166.398H148.859C149.097 165.477 149.475 164.804 149.992 164.378C150.515 163.952 151.126 163.739 151.825 163.739C152.029 163.739 152.231 163.756 152.43 163.79C152.634 163.818 152.83 163.861 153.018 163.918V167.932C152.785 167.852 152.498 167.793 152.157 167.753C151.816 167.713 151.523 167.693 151.279 167.693C150.819 167.693 150.404 167.798 150.035 168.009C149.671 168.213 149.384 168.503 149.174 168.878C148.964 169.247 148.859 169.682 148.859 170.182V177H144.154ZM160.117 177.239C158.697 177.239 157.481 176.957 156.469 176.395C155.458 175.827 154.683 175.037 154.143 174.026C153.603 173.009 153.333 171.83 153.333 170.489C153.333 169.148 153.603 167.972 154.143 166.96C154.683 165.943 155.458 165.153 156.469 164.591C157.481 164.023 158.697 163.739 160.117 163.739C161.538 163.739 162.754 164.023 163.765 164.591C164.776 165.153 165.552 165.943 166.092 166.96C166.631 167.972 166.901 169.148 166.901 170.489C166.901 171.83 166.631 173.009 166.092 174.026C165.552 175.037 164.776 175.827 163.765 176.395C162.754 176.957 161.538 177.239 160.117 177.239ZM160.151 173.761C160.549 173.761 160.893 173.628 161.183 173.361C161.472 173.094 161.697 172.713 161.856 172.219C162.015 171.724 162.094 171.136 162.094 170.455C162.094 169.767 162.015 169.179 161.856 168.69C161.697 168.196 161.472 167.815 161.183 167.548C160.893 167.281 160.549 167.148 160.151 167.148C159.731 167.148 159.37 167.281 159.069 167.548C158.768 167.815 158.538 168.196 158.379 168.69C158.219 169.179 158.14 169.767 158.14 170.455C158.14 171.136 158.219 171.724 158.379 172.219C158.538 172.713 158.768 173.094 159.069 173.361C159.37 173.628 159.731 173.761 160.151 173.761ZM181.605 163.909L177.207 177H171.753L167.355 163.909H172.298L174.412 172.568H174.548L176.662 163.909H181.605ZM182.943 177V163.909H187.648V177H182.943ZM185.295 162.545C184.659 162.545 184.114 162.335 183.659 161.915C183.205 161.494 182.977 160.989 182.977 160.398C182.977 159.807 183.205 159.301 183.659 158.881C184.114 158.46 184.659 158.25 185.295 158.25C185.938 158.25 186.483 158.46 186.932 158.881C187.386 159.301 187.614 159.807 187.614 160.398C187.614 160.989 187.386 161.494 186.932 161.915C186.483 162.335 185.938 162.545 185.295 162.545ZM194.783 177.17C193.852 177.17 192.994 176.926 192.21 176.438C191.431 175.949 190.806 175.207 190.335 174.213C189.869 173.219 189.636 171.966 189.636 170.455C189.636 168.875 189.88 167.591 190.369 166.602C190.863 165.614 191.499 164.889 192.278 164.429C193.062 163.969 193.886 163.739 194.749 163.739C195.397 163.739 195.965 163.852 196.454 164.08C196.942 164.301 197.352 164.599 197.681 164.974C198.011 165.344 198.261 165.75 198.431 166.193H198.499V159.545H203.204V177H198.533V174.852H198.431C198.249 175.295 197.988 175.693 197.647 176.045C197.312 176.392 196.903 176.668 196.42 176.872C195.942 177.071 195.397 177.17 194.783 177.17ZM196.522 173.557C196.954 173.557 197.323 173.432 197.63 173.182C197.942 172.926 198.181 172.568 198.346 172.108C198.516 171.642 198.602 171.091 198.602 170.455C198.602 169.807 198.516 169.253 198.346 168.793C198.181 168.327 197.942 167.972 197.63 167.727C197.323 167.477 196.954 167.352 196.522 167.352C196.09 167.352 195.721 167.477 195.414 167.727C195.113 167.972 194.88 168.327 194.715 168.793C194.556 169.253 194.477 169.807 194.477 170.455C194.477 171.102 194.556 171.659 194.715 172.125C194.88 172.585 195.113 172.94 195.414 173.19C195.721 173.435 196.09 173.557 196.522 173.557ZM211.786 177.239C210.388 177.239 209.184 176.972 208.173 176.438C207.167 175.898 206.391 175.125 205.846 174.119C205.306 173.108 205.036 171.898 205.036 170.489C205.036 169.136 205.309 167.955 205.854 166.943C206.4 165.932 207.17 165.145 208.164 164.582C209.158 164.02 210.332 163.739 211.684 163.739C212.673 163.739 213.567 163.892 214.369 164.199C215.17 164.506 215.854 164.952 216.423 165.537C216.991 166.116 217.428 166.821 217.735 167.651C218.042 168.48 218.195 169.415 218.195 170.455V171.545H206.502V168.955H213.866C213.86 168.58 213.763 168.25 213.576 167.966C213.394 167.676 213.147 167.452 212.835 167.293C212.528 167.128 212.178 167.045 211.786 167.045C211.406 167.045 211.056 167.128 210.738 167.293C210.42 167.452 210.164 167.673 209.971 167.957C209.783 168.241 209.684 168.574 209.673 168.955V171.75C209.673 172.17 209.761 172.545 209.937 172.875C210.113 173.205 210.366 173.463 210.695 173.651C211.025 173.838 211.423 173.932 211.888 173.932C212.212 173.932 212.508 173.886 212.775 173.795C213.048 173.705 213.281 173.574 213.474 173.403C213.667 173.227 213.809 173.017 213.9 172.773H218.195C218.048 173.682 217.698 174.472 217.147 175.142C216.596 175.807 215.866 176.324 214.957 176.693C214.053 177.057 212.996 177.239 211.786 177.239ZM220.115 177V163.909H224.683V166.398H224.82C225.058 165.477 225.436 164.804 225.953 164.378C226.476 163.952 227.087 163.739 227.786 163.739C227.99 163.739 228.192 163.756 228.391 163.79C228.595 163.818 228.791 163.861 228.979 163.918V167.932C228.746 167.852 228.459 167.793 228.118 167.753C227.777 167.713 227.484 167.693 227.24 167.693C226.78 167.693 226.365 167.798 225.996 168.009C225.632 168.213 225.345 168.503 225.135 168.878C224.925 169.247 224.82 169.682 224.82 170.182V177H220.115ZM235.268 177V173.591L241.78 168.205C242.212 167.847 242.581 167.511 242.888 167.199C243.2 166.881 243.439 166.554 243.604 166.219C243.774 165.884 243.859 165.511 243.859 165.102C243.859 164.653 243.763 164.27 243.57 163.952C243.382 163.634 243.121 163.389 242.786 163.219C242.45 163.043 242.064 162.955 241.626 162.955C241.189 162.955 240.803 163.043 240.467 163.219C240.138 163.395 239.882 163.653 239.7 163.994C239.518 164.335 239.428 164.75 239.428 165.239H234.928C234.928 164.011 235.203 162.955 235.754 162.068C236.305 161.182 237.084 160.5 238.089 160.023C239.095 159.545 240.274 159.307 241.626 159.307C243.024 159.307 244.234 159.531 245.257 159.98C246.286 160.423 247.078 161.048 247.635 161.855C248.197 162.662 248.479 163.608 248.479 164.693C248.479 165.364 248.339 166.031 248.061 166.696C247.783 167.355 247.283 168.085 246.561 168.886C245.839 169.688 244.814 170.642 243.484 171.75L241.848 173.114V173.216H248.666V177H235.268Z" fill="black"/>
<rect x="18" y="69" width="238" height="66" rx="7" fill="black" fill-opacity="0.1" stroke="black" stroke-width="5"/>
<path d="M44.483 100.091H39.6761C39.642 99.6932 39.5511 99.3324 39.4034 99.0085C39.2614 98.6847 39.0625 98.4062 38.8068 98.1733C38.5568 97.9347 38.2528 97.7528 37.8949 97.6278C37.5369 97.4972 37.1307 97.4318 36.6761 97.4318C35.8807 97.4318 35.2074 97.625 34.6562 98.0114C34.1108 98.3977 33.696 98.9517 33.4119 99.6733C33.1335 100.395 32.9943 101.261 32.9943 102.273C32.9943 103.341 33.1364 104.236 33.4205 104.957C33.7102 105.673 34.1278 106.213 34.6733 106.577C35.2188 106.935 35.875 107.114 36.642 107.114C37.0795 107.114 37.4716 107.06 37.8182 106.952C38.1648 106.838 38.4659 106.676 38.7216 106.466C38.9773 106.256 39.1847 106.003 39.3438 105.707C39.5085 105.406 39.6193 105.068 39.6761 104.693L44.483 104.727C44.4261 105.466 44.2188 106.219 43.8608 106.986C43.5028 107.747 42.9943 108.452 42.3352 109.099C41.6818 109.741 40.8722 110.259 39.9062 110.651C38.9403 111.043 37.8182 111.239 36.5398 111.239C34.9375 111.239 33.5 110.895 32.2273 110.207C30.9602 109.52 29.9574 108.509 29.2188 107.173C28.4858 105.838 28.1193 104.205 28.1193 102.273C28.1193 100.33 28.4943 98.6932 29.2443 97.3636C29.9943 96.0284 31.0057 95.0199 32.2784 94.3381C33.5511 93.6506 34.9716 93.3068 36.5398 93.3068C37.642 93.3068 38.6563 93.4574 39.5824 93.7585C40.5085 94.0597 41.321 94.5 42.0199 95.0795C42.7188 95.6534 43.2813 96.3608 43.7074 97.2017C44.1335 98.0426 44.392 99.0057 44.483 100.091ZM53.0078 111.239C51.5874 111.239 50.3714 110.957 49.3601 110.395C48.3487 109.827 47.5732 109.037 47.0334 108.026C46.4936 107.009 46.2237 105.83 46.2237 104.489C46.2237 103.148 46.4936 101.972 47.0334 100.96C47.5732 99.9432 48.3487 99.1534 49.3601 98.5909C50.3714 98.0227 51.5874 97.7386 53.0078 97.7386C54.4283 97.7386 55.6442 98.0227 56.6555 98.5909C57.6669 99.1534 58.4425 99.9432 58.9822 100.96C59.522 101.972 59.7919 103.148 59.7919 104.489C59.7919 105.83 59.522 107.009 58.9822 108.026C58.4425 109.037 57.6669 109.827 56.6555 110.395C55.6442 110.957 54.4283 111.239 53.0078 111.239ZM53.0419 107.761C53.4396 107.761 53.7834 107.628 54.0732 107.361C54.3629 107.094 54.5874 106.713 54.7464 106.219C54.9055 105.724 54.9851 105.136 54.9851 104.455C54.9851 103.767 54.9055 103.179 54.7464 102.69C54.5874 102.196 54.3629 101.815 54.0732 101.548C53.7834 101.281 53.4396 101.148 53.0419 101.148C52.6214 101.148 52.2607 101.281 51.9595 101.548C51.6584 101.815 51.4283 102.196 51.2692 102.69C51.1101 103.179 51.0305 103.767 51.0305 104.455C51.0305 105.136 51.1101 105.724 51.2692 106.219C51.4283 106.713 51.6584 107.094 51.9595 107.361C52.2607 107.628 52.6214 107.761 53.0419 107.761ZM66.4055 103.636V111H61.701V97.9091H66.1669V100.398H66.3033C66.5874 99.5682 67.0874 98.9176 67.8033 98.446C68.5249 97.9744 69.3658 97.7386 70.326 97.7386C71.2521 97.7386 72.0561 97.9517 72.7379 98.3778C73.4254 98.7983 73.9567 99.3778 74.3317 100.116C74.7124 100.855 74.8999 101.699 74.8942 102.648V111H70.1896V103.636C70.1953 102.989 70.0305 102.48 69.6953 102.111C69.3658 101.741 68.9055 101.557 68.3146 101.557C67.9283 101.557 67.5902 101.642 67.3004 101.812C67.0163 101.977 66.7976 102.216 66.6442 102.528C66.4908 102.835 66.4112 103.205 66.4055 103.636ZM85.0234 97.9091V101.318H76.3984V97.9091H85.0234ZM78.0689 94.7727H82.7734V106.79C82.7734 106.972 82.8047 107.125 82.8672 107.25C82.9297 107.369 83.0263 107.46 83.157 107.523C83.2876 107.58 83.4553 107.608 83.6598 107.608C83.8018 107.608 83.9666 107.591 84.1541 107.557C84.3473 107.523 84.4893 107.494 84.5803 107.472L85.2621 110.778C85.0518 110.841 84.7507 110.918 84.3587 111.009C83.9723 111.099 83.5121 111.159 82.978 111.188C81.8984 111.244 80.9922 111.134 80.2592 110.855C79.5263 110.571 78.9751 110.125 78.6058 109.517C78.2365 108.909 78.0575 108.148 78.0689 107.233V94.7727ZM93.0753 111.239C91.6776 111.239 90.473 110.972 89.4616 110.438C88.456 109.898 87.6804 109.125 87.1349 108.119C86.5952 107.108 86.3253 105.898 86.3253 104.489C86.3253 103.136 86.598 101.955 87.1435 100.943C87.6889 99.9318 88.4588 99.1449 89.4531 98.5824C90.4474 98.0199 91.6207 97.7386 92.973 97.7386C93.9616 97.7386 94.8565 97.892 95.6577 98.1989C96.4588 98.5057 97.1435 98.9517 97.7116 99.5369C98.2798 100.116 98.7173 100.821 99.0241 101.651C99.331 102.48 99.4844 103.415 99.4844 104.455V105.545H87.7912V102.955H95.1548C95.1491 102.58 95.0526 102.25 94.8651 101.966C94.6832 101.676 94.4361 101.452 94.1236 101.293C93.8168 101.128 93.4673 101.045 93.0753 101.045C92.6946 101.045 92.3452 101.128 92.027 101.293C91.7088 101.452 91.4531 101.673 91.2599 101.957C91.0724 102.241 90.973 102.574 90.9616 102.955V105.75C90.9616 106.17 91.0497 106.545 91.2259 106.875C91.402 107.205 91.6548 107.463 91.9844 107.651C92.3139 107.838 92.7116 107.932 93.1776 107.932C93.5014 107.932 93.7969 107.886 94.0639 107.795C94.3366 107.705 94.5696 107.574 94.7628 107.403C94.956 107.227 95.098 107.017 95.1889 106.773H99.4844C99.3366 107.682 98.9872 108.472 98.4361 109.142C97.8849 109.807 97.1548 110.324 96.2457 110.693C95.3423 111.057 94.2855 111.239 93.0753 111.239ZM105.32 97.9091L107.229 101.966L109.241 97.9091H113.911L110.4 104.455L114.082 111H109.445L107.229 106.841L105.082 111H100.377L104.093 104.455L100.616 97.9091H105.32ZM123.391 97.9091V101.318H114.766V97.9091H123.391ZM116.436 94.7727H121.141V106.79C121.141 106.972 121.172 107.125 121.234 107.25C121.297 107.369 121.393 107.46 121.524 107.523C121.655 107.58 121.822 107.608 122.027 107.608C122.169 107.608 122.334 107.591 122.521 107.557C122.714 107.523 122.857 107.494 122.947 107.472L123.629 110.778C123.419 110.841 123.118 110.918 122.726 111.009C122.339 111.099 121.879 111.159 121.345 111.188C120.266 111.244 119.359 111.134 118.626 110.855C117.893 110.571 117.342 110.125 116.973 109.517C116.604 108.909 116.425 108.148 116.436 107.233V94.7727ZM130.023 111V93.5455H137.558C138.853 93.5455 139.987 93.8011 140.958 94.3125C141.93 94.8239 142.685 95.5426 143.225 96.4688C143.765 97.3949 144.035 98.4773 144.035 99.7159C144.035 100.966 143.756 102.048 143.2 102.963C142.648 103.878 141.873 104.582 140.873 105.077C139.879 105.571 138.717 105.818 137.387 105.818H132.887V102.136H136.433C136.989 102.136 137.464 102.04 137.856 101.847C138.254 101.648 138.558 101.366 138.768 101.003C138.984 100.639 139.092 100.21 139.092 99.7159C139.092 99.2159 138.984 98.7898 138.768 98.4375C138.558 98.0795 138.254 97.8068 137.856 97.6193C137.464 97.4261 136.989 97.3295 136.433 97.3295H134.762V111H130.023ZM145.842 111V97.9091H150.41V100.398H150.546C150.785 99.4773 151.163 98.804 151.68 98.3778C152.202 97.9517 152.813 97.7386 153.512 97.7386C153.717 97.7386 153.918 97.7557 154.117 97.7898C154.322 97.8182 154.518 97.8608 154.705 97.9176V101.932C154.472 101.852 154.185 101.793 153.844 101.753C153.504 101.713 153.211 101.693 152.967 101.693C152.506 101.693 152.092 101.798 151.722 102.009C151.359 102.213 151.072 102.503 150.862 102.878C150.651 103.247 150.546 103.682 150.546 104.182V111H145.842ZM161.805 111.239C160.384 111.239 159.168 110.957 158.157 110.395C157.146 109.827 156.37 109.037 155.83 108.026C155.29 107.009 155.021 105.83 155.021 104.489C155.021 103.148 155.29 101.972 155.83 100.96C156.37 99.9432 157.146 99.1534 158.157 98.5909C159.168 98.0227 160.384 97.7386 161.805 97.7386C163.225 97.7386 164.441 98.0227 165.452 98.5909C166.464 99.1534 167.239 99.9432 167.779 100.96C168.319 101.972 168.589 103.148 168.589 104.489C168.589 105.83 168.319 107.009 167.779 108.026C167.239 109.037 166.464 109.827 165.452 110.395C164.441 110.957 163.225 111.239 161.805 111.239ZM161.839 107.761C162.237 107.761 162.58 107.628 162.87 107.361C163.16 107.094 163.384 106.713 163.543 106.219C163.702 105.724 163.782 105.136 163.782 104.455C163.782 103.767 163.702 103.179 163.543 102.69C163.384 102.196 163.16 101.815 162.87 101.548C162.58 101.281 162.237 101.148 161.839 101.148C161.418 101.148 161.058 101.281 160.756 101.548C160.455 101.815 160.225 102.196 160.066 102.69C159.907 103.179 159.827 103.767 159.827 104.455C159.827 105.136 159.907 105.724 160.066 106.219C160.225 106.713 160.455 107.094 160.756 107.361C161.058 107.628 161.418 107.761 161.839 107.761ZM183.293 97.9091L178.895 111H173.44L169.043 97.9091H173.986L176.099 106.568H176.236L178.349 97.9091H183.293ZM184.631 111V97.9091H189.335V111H184.631ZM186.983 96.5455C186.347 96.5455 185.801 96.3352 185.347 95.9148C184.892 95.4943 184.665 94.9886 184.665 94.3977C184.665 93.8068 184.892 93.3011 185.347 92.8807C185.801 92.4602 186.347 92.25 186.983 92.25C187.625 92.25 188.17 92.4602 188.619 92.8807C189.074 93.3011 189.301 93.8068 189.301 94.3977C189.301 94.9886 189.074 95.4943 188.619 95.9148C188.17 96.3352 187.625 96.5455 186.983 96.5455ZM196.471 111.17C195.539 111.17 194.681 110.926 193.897 110.438C193.119 109.949 192.494 109.207 192.022 108.213C191.556 107.219 191.323 105.966 191.323 104.455C191.323 102.875 191.567 101.591 192.056 100.602C192.55 99.6136 193.187 98.8892 193.965 98.429C194.749 97.9688 195.573 97.7386 196.437 97.7386C197.085 97.7386 197.653 97.8523 198.141 98.0795C198.63 98.3011 199.039 98.5994 199.369 98.9744C199.698 99.3437 199.948 99.75 200.119 100.193H200.187V93.5455H204.891V111H200.221V108.852H200.119C199.937 109.295 199.675 109.693 199.335 110.045C198.999 110.392 198.59 110.668 198.107 110.872C197.63 111.071 197.085 111.17 196.471 111.17ZM198.21 107.557C198.641 107.557 199.011 107.432 199.317 107.182C199.63 106.926 199.869 106.568 200.033 106.108C200.204 105.642 200.289 105.091 200.289 104.455C200.289 103.807 200.204 103.253 200.033 102.793C199.869 102.327 199.63 101.972 199.317 101.727C199.011 101.477 198.641 101.352 198.21 101.352C197.778 101.352 197.408 101.477 197.102 101.727C196.8 101.972 196.567 102.327 196.403 102.793C196.244 103.253 196.164 103.807 196.164 104.455C196.164 105.102 196.244 105.659 196.403 106.125C196.567 106.585 196.8 106.94 197.102 107.19C197.408 107.435 197.778 107.557 198.21 107.557ZM213.474 111.239C212.076 111.239 210.871 110.972 209.86 110.438C208.854 109.898 208.079 109.125 207.533 108.119C206.994 107.108 206.724 105.898 206.724 104.489C206.724 103.136 206.996 101.955 207.542 100.943C208.087 99.9318 208.857 99.1449 209.852 98.5824C210.846 98.0199 212.019 97.7386 213.371 97.7386C214.36 97.7386 215.255 97.892 216.056 98.1989C216.857 98.5057 217.542 98.9517 218.11 99.5369C218.678 100.116 219.116 100.821 219.423 101.651C219.729 102.48 219.883 103.415 219.883 104.455V105.545H208.19V102.955H215.553C215.548 102.58 215.451 102.25 215.263 101.966C215.082 101.676 214.835 101.452 214.522 101.293C214.215 101.128 213.866 101.045 213.474 101.045C213.093 101.045 212.744 101.128 212.425 101.293C212.107 101.452 211.852 101.673 211.658 101.957C211.471 102.241 211.371 102.574 211.36 102.955V105.75C211.36 106.17 211.448 106.545 211.624 106.875C211.8 107.205 212.053 107.463 212.383 107.651C212.712 107.838 213.11 107.932 213.576 107.932C213.9 107.932 214.195 107.886 214.462 107.795C214.735 107.705 214.968 107.574 215.161 107.403C215.354 107.227 215.496 107.017 215.587 106.773H219.883C219.735 107.682 219.386 108.472 218.835 109.142C218.283 109.807 217.553 110.324 216.644 110.693C215.741 111.057 214.684 111.239 213.474 111.239ZM221.803 111V97.9091H226.371V100.398H226.507C226.746 99.4773 227.124 98.804 227.641 98.3778C228.163 97.9517 228.774 97.7386 229.473 97.7386C229.678 97.7386 229.879 97.7557 230.078 97.7898C230.283 97.8182 230.479 97.8608 230.666 97.9176V101.932C230.433 101.852 230.146 101.793 229.805 101.753C229.464 101.713 229.172 101.693 228.928 101.693C228.467 101.693 228.053 101.798 227.683 102.009C227.32 102.213 227.033 102.503 226.822 102.878C226.612 103.247 226.507 103.682 226.507 104.182V111H221.803ZM245.513 93.5455V111H240.774V97.9091H240.672L236.854 100.193V96.1705L241.149 93.5455H245.513Z" fill="black"/>
<rect x="18" y="3" width="238" height="66" rx="7" fill="black" fill-opacity="0.1" stroke="black" stroke-width="5"/>
<path d="M99.2031 45V27.5455H106.737C108.033 27.5455 109.166 27.8011 110.138 28.3125C111.109 28.8239 111.865 29.5426 112.405 30.4688C112.945 31.3949 113.214 32.4773 113.214 33.7159C113.214 34.9659 112.936 36.0483 112.379 36.9631C111.828 37.8778 111.053 38.5824 110.053 39.0767C109.058 39.571 107.896 39.8182 106.567 39.8182H102.067V36.1364H105.612C106.169 36.1364 106.643 36.0398 107.036 35.8466C107.433 35.6477 107.737 35.3665 107.947 35.0028C108.163 34.6392 108.271 34.2102 108.271 33.7159C108.271 33.2159 108.163 32.7898 107.947 32.4375C107.737 32.0795 107.433 31.8068 107.036 31.6193C106.643 31.4261 106.169 31.3295 105.612 31.3295H103.942V45H99.2031ZM118.083 45.2045C117.248 45.2045 116.509 45.0682 115.867 44.7955C115.231 44.517 114.731 44.0966 114.367 43.5341C114.004 42.9716 113.822 42.2557 113.822 41.3864C113.822 40.6705 113.944 40.0597 114.188 39.554C114.433 39.0426 114.773 38.625 115.211 38.3011C115.648 37.9773 116.157 37.7301 116.737 37.5597C117.322 37.3892 117.952 37.2784 118.629 37.2273C119.362 37.1705 119.95 37.1023 120.393 37.0227C120.842 36.9375 121.165 36.821 121.364 36.6733C121.563 36.5199 121.663 36.3182 121.663 36.0682V36.0341C121.663 35.6932 121.532 35.4318 121.271 35.25C121.009 35.0682 120.674 34.9773 120.265 34.9773C119.816 34.9773 119.45 35.0767 119.165 35.2756C118.887 35.4687 118.719 35.767 118.663 36.1705H114.333C114.39 35.375 114.643 34.642 115.092 33.9716C115.546 33.2955 116.208 32.7557 117.077 32.3523C117.947 31.9432 119.032 31.7386 120.333 31.7386C121.271 31.7386 122.112 31.8494 122.856 32.071C123.6 32.2869 124.234 32.5909 124.756 32.983C125.279 33.3693 125.677 33.8239 125.95 34.3466C126.228 34.8636 126.367 35.4261 126.367 36.0341V45H121.969V43.1591H121.867C121.606 43.6477 121.288 44.0426 120.913 44.3438C120.543 44.6449 120.12 44.8636 119.643 45C119.171 45.1364 118.651 45.2045 118.083 45.2045ZM119.617 42.2386C119.975 42.2386 120.31 42.1648 120.623 42.017C120.941 41.8693 121.2 41.6562 121.398 41.3778C121.597 41.0994 121.697 40.7614 121.697 40.3636V39.2727C121.572 39.3239 121.438 39.3722 121.296 39.4176C121.16 39.4631 121.012 39.5057 120.853 39.5455C120.7 39.5852 120.535 39.6222 120.359 39.6562C120.188 39.6903 120.009 39.7216 119.822 39.75C119.458 39.8068 119.16 39.9006 118.927 40.0312C118.7 40.1562 118.529 40.3125 118.415 40.5C118.308 40.6818 118.254 40.8864 118.254 41.1136C118.254 41.4773 118.381 41.7557 118.637 41.9489C118.893 42.142 119.219 42.2386 119.617 42.2386ZM128.615 45V31.9091H133.183V34.3977H133.32C133.558 33.4773 133.936 32.804 134.453 32.3778C134.976 31.9517 135.587 31.7386 136.286 31.7386C136.49 31.7386 136.692 31.7557 136.891 31.7898C137.095 31.8182 137.291 31.8608 137.479 31.9176V35.9318C137.246 35.8523 136.959 35.7926 136.618 35.7528C136.277 35.7131 135.984 35.6932 135.74 35.6932C135.28 35.6932 134.865 35.7983 134.496 36.0085C134.132 36.2131 133.845 36.5028 133.635 36.8778C133.425 37.2472 133.32 37.6818 133.32 38.1818V45H128.615ZM144.544 45.2386C143.146 45.2386 141.942 44.9716 140.93 44.4375C139.925 43.8977 139.149 43.125 138.604 42.1193C138.064 41.108 137.794 39.8977 137.794 38.4886C137.794 37.1364 138.067 35.9545 138.612 34.9432C139.158 33.9318 139.928 33.1449 140.922 32.5824C141.916 32.0199 143.089 31.7386 144.442 31.7386C145.43 31.7386 146.325 31.892 147.126 32.1989C147.928 32.5057 148.612 32.9517 149.18 33.5369C149.749 34.1165 150.186 34.821 150.493 35.6506C150.8 36.4801 150.953 37.4148 150.953 38.4545V39.5455H139.26V36.9545H146.624C146.618 36.5795 146.521 36.25 146.334 35.9659C146.152 35.6761 145.905 35.4517 145.592 35.2926C145.286 35.1278 144.936 35.0455 144.544 35.0455C144.163 35.0455 143.814 35.1278 143.496 35.2926C143.178 35.4517 142.922 35.6733 142.729 35.9574C142.541 36.2415 142.442 36.5739 142.43 36.9545V39.75C142.43 40.1705 142.518 40.5455 142.695 40.875C142.871 41.2045 143.124 41.4631 143.453 41.6506C143.783 41.8381 144.18 41.9318 144.646 41.9318C144.97 41.9318 145.266 41.8864 145.533 41.7955C145.805 41.7045 146.038 41.5739 146.232 41.4034C146.425 41.2273 146.567 41.017 146.658 40.7727H150.953C150.805 41.6818 150.456 42.4716 149.905 43.142C149.354 43.8068 148.624 44.3239 147.714 44.6932C146.811 45.0568 145.754 45.2386 144.544 45.2386ZM157.577 37.6364V45H152.873V31.9091H157.339V34.3977H157.475C157.759 33.5682 158.259 32.9176 158.975 32.446C159.697 31.9744 160.538 31.7386 161.498 31.7386C162.424 31.7386 163.228 31.9517 163.91 32.3778C164.597 32.7983 165.129 33.3778 165.504 34.1165C165.884 34.8551 166.072 35.6989 166.066 36.6477V45H161.362V37.6364C161.367 36.9886 161.202 36.4801 160.867 36.1108C160.538 35.7415 160.077 35.5568 159.487 35.5568C159.1 35.5568 158.762 35.642 158.472 35.8125C158.188 35.9773 157.969 36.2159 157.816 36.5284C157.663 36.8352 157.583 37.2045 157.577 37.6364ZM176.195 31.9091V35.3182H167.57V31.9091H176.195ZM169.241 28.7727H173.945V40.7898C173.945 40.9716 173.977 41.125 174.039 41.25C174.102 41.3693 174.198 41.4602 174.329 41.5227C174.46 41.5795 174.627 41.608 174.832 41.608C174.974 41.608 175.138 41.5909 175.326 41.5568C175.519 41.5227 175.661 41.4943 175.752 41.4716L176.434 44.7784C176.224 44.8409 175.923 44.9176 175.531 45.0085C175.144 45.0994 174.684 45.1591 174.15 45.1875C173.07 45.2443 172.164 45.1335 171.431 44.8551C170.698 44.571 170.147 44.125 169.778 43.517C169.408 42.9091 169.229 42.1477 169.241 41.233V28.7727Z" fill="black"/>
</svg>
