<svg width="624" height="378" viewBox="0 0 624 378" fill="none" xmlns="http://www.w3.org/2000/svg">
<rect x="156" y="311" width="115" height="64" rx="7" fill="black" fill-opacity="0.1" stroke="black" stroke-width="5"/>
<path d="M199.604 341.091H194.797C194.763 340.693 194.672 340.332 194.525 340.009C194.382 339.685 194.184 339.406 193.928 339.173C193.678 338.935 193.374 338.753 193.016 338.628C192.658 338.497 192.252 338.432 191.797 338.432C191.002 338.432 190.328 338.625 189.777 339.011C189.232 339.398 188.817 339.952 188.533 340.673C188.255 341.395 188.115 342.261 188.115 343.273C188.115 344.341 188.257 345.236 188.542 345.957C188.831 346.673 189.249 347.213 189.794 347.577C190.34 347.935 190.996 348.114 191.763 348.114C192.201 348.114 192.593 348.06 192.939 347.952C193.286 347.838 193.587 347.676 193.843 347.466C194.098 347.256 194.306 347.003 194.465 346.707C194.63 346.406 194.74 346.068 194.797 345.693L199.604 345.727C199.547 346.466 199.34 347.219 198.982 347.986C198.624 348.747 198.115 349.452 197.456 350.099C196.803 350.741 195.993 351.259 195.027 351.651C194.061 352.043 192.939 352.239 191.661 352.239C190.059 352.239 188.621 351.895 187.348 351.207C186.081 350.52 185.078 349.509 184.34 348.173C183.607 346.838 183.24 345.205 183.24 343.273C183.24 341.33 183.615 339.693 184.365 338.364C185.115 337.028 186.127 336.02 187.4 335.338C188.672 334.651 190.093 334.307 191.661 334.307C192.763 334.307 193.777 334.457 194.703 334.759C195.63 335.06 196.442 335.5 197.141 336.08C197.84 336.653 198.402 337.361 198.828 338.202C199.255 339.043 199.513 340.006 199.604 341.091ZM206.527 344.636V352H201.822V334.545H206.356V341.398H206.493C206.788 340.562 207.279 339.912 207.967 339.446C208.654 338.974 209.481 338.739 210.447 338.739C211.373 338.739 212.177 338.949 212.859 339.369C213.547 339.79 214.078 340.369 214.453 341.108C214.833 341.847 215.021 342.693 215.015 343.648V352H210.311V344.636C210.316 343.989 210.154 343.48 209.825 343.111C209.501 342.741 209.038 342.557 208.436 342.557C208.055 342.557 207.72 342.642 207.43 342.812C207.146 342.977 206.924 343.216 206.765 343.528C206.612 343.835 206.532 344.205 206.527 344.636ZM217.338 352V338.909H222.042V352H217.338ZM219.69 337.545C219.054 337.545 218.508 337.335 218.054 336.915C217.599 336.494 217.372 335.989 217.372 335.398C217.372 334.807 217.599 334.301 218.054 333.881C218.508 333.46 219.054 333.25 219.69 333.25C220.332 333.25 220.877 333.46 221.326 333.881C221.781 334.301 222.008 334.807 222.008 335.398C222.008 335.989 221.781 336.494 221.326 336.915C220.877 337.335 220.332 337.545 219.69 337.545ZM229.144 334.545V352H224.439V334.545H229.144ZM236.279 352.17C235.348 352.17 234.49 351.926 233.706 351.438C232.927 350.949 232.302 350.207 231.831 349.213C231.365 348.219 231.132 346.966 231.132 345.455C231.132 343.875 231.376 342.591 231.865 341.602C232.359 340.614 232.995 339.889 233.774 339.429C234.558 338.969 235.382 338.739 236.245 338.739C236.893 338.739 237.461 338.852 237.95 339.08C238.439 339.301 238.848 339.599 239.177 339.974C239.507 340.344 239.757 340.75 239.927 341.193H239.995V334.545H244.7V352H240.029V349.852H239.927C239.745 350.295 239.484 350.693 239.143 351.045C238.808 351.392 238.399 351.668 237.916 351.872C237.439 352.071 236.893 352.17 236.279 352.17ZM238.018 348.557C238.45 348.557 238.819 348.432 239.126 348.182C239.439 347.926 239.677 347.568 239.842 347.108C240.012 346.642 240.098 346.091 240.098 345.455C240.098 344.807 240.012 344.253 239.842 343.793C239.677 343.327 239.439 342.972 239.126 342.727C238.819 342.477 238.45 342.352 238.018 342.352C237.586 342.352 237.217 342.477 236.91 342.727C236.609 342.972 236.376 343.327 236.211 343.793C236.052 344.253 235.973 344.807 235.973 345.455C235.973 346.102 236.052 346.659 236.211 347.125C236.376 347.585 236.609 347.94 236.91 348.19C237.217 348.435 237.586 348.557 238.018 348.557Z" fill="black"/>
<rect x="3" y="311" width="115" height="64" rx="7" fill="black" fill-opacity="0.1" stroke="black" stroke-width="5"/>
<path d="M45.604 341.091H40.7972C40.7631 340.693 40.6722 340.332 40.5245 340.009C40.3825 339.685 40.1836 339.406 39.9279 339.173C39.6779 338.935 39.3739 338.753 39.016 338.628C38.658 338.497 38.2518 338.432 37.7972 338.432C37.0018 338.432 36.3285 338.625 35.7773 339.011C35.2319 339.398 34.8171 339.952 34.533 340.673C34.2546 341.395 34.1154 342.261 34.1154 343.273C34.1154 344.341 34.2575 345.236 34.5415 345.957C34.8313 346.673 35.2489 347.213 35.7944 347.577C36.3398 347.935 36.9961 348.114 37.7631 348.114C38.2006 348.114 38.5927 348.06 38.9393 347.952C39.2859 347.838 39.587 347.676 39.8427 347.466C40.0984 347.256 40.3058 347.003 40.4648 346.707C40.6296 346.406 40.7404 346.068 40.7972 345.693L45.604 345.727C45.5472 346.466 45.3398 347.219 44.9819 347.986C44.6239 348.747 44.1154 349.452 43.4563 350.099C42.8029 350.741 41.9933 351.259 41.0273 351.651C40.0614 352.043 38.9393 352.239 37.6609 352.239C36.0586 352.239 34.6211 351.895 33.3484 351.207C32.0813 350.52 31.0785 349.509 30.3398 348.173C29.6069 346.838 29.2404 345.205 29.2404 343.273C29.2404 341.33 29.6154 339.693 30.3654 338.364C31.1154 337.028 32.1268 336.02 33.3995 335.338C34.6722 334.651 36.0927 334.307 37.6609 334.307C38.7631 334.307 39.7773 334.457 40.7035 334.759C41.6296 335.06 42.4421 335.5 43.141 336.08C43.8398 336.653 44.4023 337.361 44.8285 338.202C45.2546 339.043 45.5131 340.006 45.604 341.091ZM52.5266 344.636V352H47.8221V334.545H52.3562V341.398H52.4925C52.788 340.562 53.2795 339.912 53.967 339.446C54.6545 338.974 55.4812 338.739 56.4471 338.739C57.3732 338.739 58.1772 338.949 58.859 339.369C59.5465 339.79 60.0778 340.369 60.4528 341.108C60.8335 341.847 61.021 342.693 61.0153 343.648V352H56.3107V344.636C56.3164 343.989 56.1545 343.48 55.8249 343.111C55.5011 342.741 55.038 342.557 54.4357 342.557C54.055 342.557 53.7198 342.642 53.43 342.812C53.146 342.977 52.9244 343.216 52.7653 343.528C52.6119 343.835 52.5323 344.205 52.5266 344.636ZM63.3377 352V338.909H68.0423V352H63.3377ZM65.69 337.545C65.0536 337.545 64.5082 337.335 64.0536 336.915C63.5991 336.494 63.3718 335.989 63.3718 335.398C63.3718 334.807 63.5991 334.301 64.0536 333.881C64.5082 333.46 65.0536 333.25 65.69 333.25C66.332 333.25 66.8775 333.46 67.3263 333.881C67.7809 334.301 68.0082 334.807 68.0082 335.398C68.0082 335.989 67.7809 336.494 67.3263 336.915C66.8775 337.335 66.332 337.545 65.69 337.545ZM75.1438 334.545V352H70.4393V334.545H75.1438ZM82.2795 352.17C81.3477 352.17 80.4897 351.926 79.7056 351.438C78.9272 350.949 78.3022 350.207 77.8306 349.213C77.3647 348.219 77.1317 346.966 77.1317 345.455C77.1317 343.875 77.3761 342.591 77.8647 341.602C78.359 340.614 78.9954 339.889 79.7738 339.429C80.5579 338.969 81.3817 338.739 82.2454 338.739C82.8931 338.739 83.4613 338.852 83.9499 339.08C84.4386 339.301 84.8477 339.599 85.1772 339.974C85.5067 340.344 85.7567 340.75 85.9272 341.193H85.9954V334.545H90.6999V352H86.0295V349.852H85.9272C85.7454 350.295 85.484 350.693 85.1431 351.045C84.8079 351.392 84.3988 351.668 83.9158 351.872C83.4386 352.071 82.8931 352.17 82.2795 352.17ZM84.0181 348.557C84.4499 348.557 84.8192 348.432 85.1261 348.182C85.4386 347.926 85.6772 347.568 85.842 347.108C86.0124 346.642 86.0977 346.091 86.0977 345.455C86.0977 344.807 86.0124 344.253 85.842 343.793C85.6772 343.327 85.4386 342.972 85.1261 342.727C84.8192 342.477 84.4499 342.352 84.0181 342.352C83.5863 342.352 83.217 342.477 82.9102 342.727C82.609 342.972 82.3761 343.327 82.2113 343.793C82.0522 344.253 81.9727 344.807 81.9727 345.455C81.9727 346.102 82.0522 346.659 82.2113 347.125C82.3761 347.585 82.609 347.94 82.9102 348.19C83.217 348.435 83.5863 348.557 84.0181 348.557Z" fill="black"/>
<rect x="156" y="247" width="115" height="64" rx="7" fill="black" fill-opacity="0.1" stroke="black" stroke-width="5"/>
<path d="M199.604 277.091H194.797C194.763 276.693 194.672 276.332 194.525 276.009C194.382 275.685 194.184 275.406 193.928 275.173C193.678 274.935 193.374 274.753 193.016 274.628C192.658 274.497 192.252 274.432 191.797 274.432C191.002 274.432 190.328 274.625 189.777 275.011C189.232 275.398 188.817 275.952 188.533 276.673C188.255 277.395 188.115 278.261 188.115 279.273C188.115 280.341 188.257 281.236 188.542 281.957C188.831 282.673 189.249 283.213 189.794 283.577C190.34 283.935 190.996 284.114 191.763 284.114C192.201 284.114 192.593 284.06 192.939 283.952C193.286 283.838 193.587 283.676 193.843 283.466C194.098 283.256 194.306 283.003 194.465 282.707C194.63 282.406 194.74 282.068 194.797 281.693L199.604 281.727C199.547 282.466 199.34 283.219 198.982 283.986C198.624 284.747 198.115 285.452 197.456 286.099C196.803 286.741 195.993 287.259 195.027 287.651C194.061 288.043 192.939 288.239 191.661 288.239C190.059 288.239 188.621 287.895 187.348 287.207C186.081 286.52 185.078 285.509 184.34 284.173C183.607 282.838 183.24 281.205 183.24 279.273C183.24 277.33 183.615 275.693 184.365 274.364C185.115 273.028 186.127 272.02 187.4 271.338C188.672 270.651 190.093 270.307 191.661 270.307C192.763 270.307 193.777 270.457 194.703 270.759C195.63 271.06 196.442 271.5 197.141 272.08C197.84 272.653 198.402 273.361 198.828 274.202C199.255 275.043 199.513 276.006 199.604 277.091ZM206.527 280.636V288H201.822V270.545H206.356V277.398H206.493C206.788 276.562 207.279 275.912 207.967 275.446C208.654 274.974 209.481 274.739 210.447 274.739C211.373 274.739 212.177 274.949 212.859 275.369C213.547 275.79 214.078 276.369 214.453 277.108C214.833 277.847 215.021 278.693 215.015 279.648V288H210.311V280.636C210.316 279.989 210.154 279.48 209.825 279.111C209.501 278.741 209.038 278.557 208.436 278.557C208.055 278.557 207.72 278.642 207.43 278.812C207.146 278.977 206.924 279.216 206.765 279.528C206.612 279.835 206.532 280.205 206.527 280.636ZM217.338 288V274.909H222.042V288H217.338ZM219.69 273.545C219.054 273.545 218.508 273.335 218.054 272.915C217.599 272.494 217.372 271.989 217.372 271.398C217.372 270.807 217.599 270.301 218.054 269.881C218.508 269.46 219.054 269.25 219.69 269.25C220.332 269.25 220.877 269.46 221.326 269.881C221.781 270.301 222.008 270.807 222.008 271.398C222.008 271.989 221.781 272.494 221.326 272.915C220.877 273.335 220.332 273.545 219.69 273.545ZM229.144 270.545V288H224.439V270.545H229.144ZM236.279 288.17C235.348 288.17 234.49 287.926 233.706 287.438C232.927 286.949 232.302 286.207 231.831 285.213C231.365 284.219 231.132 282.966 231.132 281.455C231.132 279.875 231.376 278.591 231.865 277.602C232.359 276.614 232.995 275.889 233.774 275.429C234.558 274.969 235.382 274.739 236.245 274.739C236.893 274.739 237.461 274.852 237.95 275.08C238.439 275.301 238.848 275.599 239.177 275.974C239.507 276.344 239.757 276.75 239.927 277.193H239.995V270.545H244.7V288H240.029V285.852H239.927C239.745 286.295 239.484 286.693 239.143 287.045C238.808 287.392 238.399 287.668 237.916 287.872C237.439 288.071 236.893 288.17 236.279 288.17ZM238.018 284.557C238.45 284.557 238.819 284.432 239.126 284.182C239.439 283.926 239.677 283.568 239.842 283.108C240.012 282.642 240.098 282.091 240.098 281.455C240.098 280.807 240.012 280.253 239.842 279.793C239.677 279.327 239.439 278.972 239.126 278.727C238.819 278.477 238.45 278.352 238.018 278.352C237.586 278.352 237.217 278.477 236.91 278.727C236.609 278.972 236.376 279.327 236.211 279.793C236.052 280.253 235.973 280.807 235.973 281.455C235.973 282.102 236.052 282.659 236.211 283.125C236.376 283.585 236.609 283.94 236.91 284.19C237.217 284.435 237.586 284.557 238.018 284.557Z" fill="black"/>
<rect x="3" y="247" width="115" height="64" rx="7" fill="black" fill-opacity="0.1" stroke="black" stroke-width="5"/>
<path d="M45.604 277.091H40.7972C40.7631 276.693 40.6722 276.332 40.5245 276.009C40.3825 275.685 40.1836 275.406 39.9279 275.173C39.6779 274.935 39.3739 274.753 39.016 274.628C38.658 274.497 38.2518 274.432 37.7972 274.432C37.0018 274.432 36.3285 274.625 35.7773 275.011C35.2319 275.398 34.8171 275.952 34.533 276.673C34.2546 277.395 34.1154 278.261 34.1154 279.273C34.1154 280.341 34.2575 281.236 34.5415 281.957C34.8313 282.673 35.2489 283.213 35.7944 283.577C36.3398 283.935 36.9961 284.114 37.7631 284.114C38.2006 284.114 38.5927 284.06 38.9393 283.952C39.2859 283.838 39.587 283.676 39.8427 283.466C40.0984 283.256 40.3058 283.003 40.4648 282.707C40.6296 282.406 40.7404 282.068 40.7972 281.693L45.604 281.727C45.5472 282.466 45.3398 283.219 44.9819 283.986C44.6239 284.747 44.1154 285.452 43.4563 286.099C42.8029 286.741 41.9933 287.259 41.0273 287.651C40.0614 288.043 38.9393 288.239 37.6609 288.239C36.0586 288.239 34.6211 287.895 33.3484 287.207C32.0813 286.52 31.0785 285.509 30.3398 284.173C29.6069 282.838 29.2404 281.205 29.2404 279.273C29.2404 277.33 29.6154 275.693 30.3654 274.364C31.1154 273.028 32.1268 272.02 33.3995 271.338C34.6722 270.651 36.0927 270.307 37.6609 270.307C38.7631 270.307 39.7773 270.457 40.7035 270.759C41.6296 271.06 42.4421 271.5 43.141 272.08C43.8398 272.653 44.4023 273.361 44.8285 274.202C45.2546 275.043 45.5131 276.006 45.604 277.091ZM52.5266 280.636V288H47.8221V270.545H52.3562V277.398H52.4925C52.788 276.562 53.2795 275.912 53.967 275.446C54.6545 274.974 55.4812 274.739 56.4471 274.739C57.3732 274.739 58.1772 274.949 58.859 275.369C59.5465 275.79 60.0778 276.369 60.4528 277.108C60.8335 277.847 61.021 278.693 61.0153 279.648V288H56.3107V280.636C56.3164 279.989 56.1545 279.48 55.8249 279.111C55.5011 278.741 55.038 278.557 54.4357 278.557C54.055 278.557 53.7198 278.642 53.43 278.812C53.146 278.977 52.9244 279.216 52.7653 279.528C52.6119 279.835 52.5323 280.205 52.5266 280.636ZM63.3377 288V274.909H68.0423V288H63.3377ZM65.69 273.545C65.0536 273.545 64.5082 273.335 64.0536 272.915C63.5991 272.494 63.3718 271.989 63.3718 271.398C63.3718 270.807 63.5991 270.301 64.0536 269.881C64.5082 269.46 65.0536 269.25 65.69 269.25C66.332 269.25 66.8775 269.46 67.3263 269.881C67.7809 270.301 68.0082 270.807 68.0082 271.398C68.0082 271.989 67.7809 272.494 67.3263 272.915C66.8775 273.335 66.332 273.545 65.69 273.545ZM75.1438 270.545V288H70.4393V270.545H75.1438ZM82.2795 288.17C81.3477 288.17 80.4897 287.926 79.7056 287.438C78.9272 286.949 78.3022 286.207 77.8306 285.213C77.3647 284.219 77.1317 282.966 77.1317 281.455C77.1317 279.875 77.3761 278.591 77.8647 277.602C78.359 276.614 78.9954 275.889 79.7738 275.429C80.5579 274.969 81.3817 274.739 82.2454 274.739C82.8931 274.739 83.4613 274.852 83.9499 275.08C84.4386 275.301 84.8477 275.599 85.1772 275.974C85.5067 276.344 85.7567 276.75 85.9272 277.193H85.9954V270.545H90.6999V288H86.0295V285.852H85.9272C85.7454 286.295 85.484 286.693 85.1431 287.045C84.8079 287.392 84.3988 287.668 83.9158 287.872C83.4386 288.071 82.8931 288.17 82.2795 288.17ZM84.0181 284.557C84.4499 284.557 84.8192 284.432 85.1261 284.182C85.4386 283.926 85.6772 283.568 85.842 283.108C86.0124 282.642 86.0977 282.091 86.0977 281.455C86.0977 280.807 86.0124 280.253 85.842 279.793C85.6772 279.327 85.4386 278.972 85.1261 278.727C84.8192 278.477 84.4499 278.352 84.0181 278.352C83.5863 278.352 83.217 278.477 82.9102 278.727C82.609 278.972 82.3761 279.327 82.2113 279.793C82.0522 280.253 81.9727 280.807 81.9727 281.455C81.9727 282.102 82.0522 282.659 82.2113 283.125C82.3761 283.585 82.609 283.94 82.9102 284.19C83.217 284.435 83.5863 284.557 84.0181 284.557Z" fill="black"/>
<path d="M212.674 236.479C214.043 236.659 215.299 235.695 215.479 234.326L218.411 212.018C218.591 210.649 217.627 209.393 216.258 209.213C214.889 209.033 213.633 209.997 213.453 211.366L210.847 231.196L191.018 228.589C189.649 228.409 188.393 229.373 188.213 230.742C188.033 232.111 188.997 233.367 190.366 233.547L212.674 236.479ZM135.017 136.522L211.017 235.522L214.983 232.478L138.983 133.478L135.017 136.522Z" fill="black"/>
<path d="M270.677 38.521C269.308 38.6996 268.342 39.9542 268.521 41.3233L271.431 63.6344C271.61 65.0035 272.864 65.9686 274.233 65.79C275.603 65.6114 276.568 64.3568 276.389 62.9877L273.802 43.1557L293.634 40.5689C295.003 40.3903 295.969 39.1356 295.79 37.7665C295.611 36.3974 294.357 35.4323 292.988 35.6109L270.677 38.521ZM311.524 69.0184L272.524 39.0184L269.476 42.9816L308.476 72.9816L311.524 69.0184Z" fill="black"/>
<path d="M57.5193 234.31C57.6906 235.68 58.94 236.652 60.3101 236.481L82.6363 233.69C84.0064 233.519 84.9782 232.269 84.8069 230.899C84.6357 229.529 83.3862 228.557 82.0162 228.729L62.1706 231.209L59.6899 211.364C59.5187 209.994 58.2692 209.022 56.8991 209.193C55.5291 209.364 54.5573 210.614 54.7285 211.984L57.5193 234.31ZM135.027 133.465L58.0266 232.465L61.9734 235.535L138.973 136.535L135.027 133.465Z" fill="black"/>
<rect x="18" y="69" width="238" height="66" rx="7" fill="black" fill-opacity="0.1" stroke="black" stroke-width="5"/>
<path d="M99.2031 111V93.5455H106.737C108.033 93.5455 109.166 93.8011 110.138 94.3125C111.109 94.8239 111.865 95.5426 112.405 96.4688C112.945 97.3949 113.214 98.4773 113.214 99.7159C113.214 100.966 112.936 102.048 112.379 102.963C111.828 103.878 111.053 104.582 110.053 105.077C109.058 105.571 107.896 105.818 106.567 105.818H102.067V102.136H105.612C106.169 102.136 106.643 102.04 107.036 101.847C107.433 101.648 107.737 101.366 107.947 101.003C108.163 100.639 108.271 100.21 108.271 99.7159C108.271 99.2159 108.163 98.7898 107.947 98.4375C107.737 98.0795 107.433 97.8068 107.036 97.6193C106.643 97.4261 106.169 97.3295 105.612 97.3295H103.942V111H99.2031ZM118.083 111.205C117.248 111.205 116.509 111.068 115.867 110.795C115.231 110.517 114.731 110.097 114.367 109.534C114.004 108.972 113.822 108.256 113.822 107.386C113.822 106.67 113.944 106.06 114.188 105.554C114.433 105.043 114.773 104.625 115.211 104.301C115.648 103.977 116.157 103.73 116.737 103.56C117.322 103.389 117.952 103.278 118.629 103.227C119.362 103.17 119.95 103.102 120.393 103.023C120.842 102.937 121.165 102.821 121.364 102.673C121.563 102.52 121.663 102.318 121.663 102.068V102.034C121.663 101.693 121.532 101.432 121.271 101.25C121.009 101.068 120.674 100.977 120.265 100.977C119.816 100.977 119.45 101.077 119.165 101.276C118.887 101.469 118.719 101.767 118.663 102.17H114.333C114.39 101.375 114.643 100.642 115.092 99.9716C115.546 99.2955 116.208 98.7557 117.077 98.3523C117.947 97.9432 119.032 97.7386 120.333 97.7386C121.271 97.7386 122.112 97.8494 122.856 98.071C123.6 98.2869 124.234 98.5909 124.756 98.983C125.279 99.3693 125.677 99.8239 125.95 100.347C126.228 100.864 126.367 101.426 126.367 102.034V111H121.969V109.159H121.867C121.606 109.648 121.288 110.043 120.913 110.344C120.543 110.645 120.12 110.864 119.643 111C119.171 111.136 118.651 111.205 118.083 111.205ZM119.617 108.239C119.975 108.239 120.31 108.165 120.623 108.017C120.941 107.869 121.2 107.656 121.398 107.378C121.597 107.099 121.697 106.761 121.697 106.364V105.273C121.572 105.324 121.438 105.372 121.296 105.418C121.16 105.463 121.012 105.506 120.853 105.545C120.7 105.585 120.535 105.622 120.359 105.656C120.188 105.69 120.009 105.722 119.822 105.75C119.458 105.807 119.16 105.901 118.927 106.031C118.7 106.156 118.529 106.312 118.415 106.5C118.308 106.682 118.254 106.886 118.254 107.114C118.254 107.477 118.381 107.756 118.637 107.949C118.893 108.142 119.219 108.239 119.617 108.239ZM128.615 111V97.9091H133.183V100.398H133.32C133.558 99.4773 133.936 98.804 134.453 98.3778C134.976 97.9517 135.587 97.7386 136.286 97.7386C136.49 97.7386 136.692 97.7557 136.891 97.7898C137.095 97.8182 137.291 97.8608 137.479 97.9176V101.932C137.246 101.852 136.959 101.793 136.618 101.753C136.277 101.713 135.984 101.693 135.74 101.693C135.28 101.693 134.865 101.798 134.496 102.009C134.132 102.213 133.845 102.503 133.635 102.878C133.425 103.247 133.32 103.682 133.32 104.182V111H128.615ZM144.544 111.239C143.146 111.239 141.942 110.972 140.93 110.438C139.925 109.898 139.149 109.125 138.604 108.119C138.064 107.108 137.794 105.898 137.794 104.489C137.794 103.136 138.067 101.955 138.612 100.943C139.158 99.9318 139.928 99.1449 140.922 98.5824C141.916 98.0199 143.089 97.7386 144.442 97.7386C145.43 97.7386 146.325 97.892 147.126 98.1989C147.928 98.5057 148.612 98.9517 149.18 99.5369C149.749 100.116 150.186 100.821 150.493 101.651C150.8 102.48 150.953 103.415 150.953 104.455V105.545H139.26V102.955H146.624C146.618 102.58 146.521 102.25 146.334 101.966C146.152 101.676 145.905 101.452 145.592 101.293C145.286 101.128 144.936 101.045 144.544 101.045C144.163 101.045 143.814 101.128 143.496 101.293C143.178 101.452 142.922 101.673 142.729 101.957C142.541 102.241 142.442 102.574 142.43 102.955V105.75C142.43 106.17 142.518 106.545 142.695 106.875C142.871 107.205 143.124 107.463 143.453 107.651C143.783 107.838 144.18 107.932 144.646 107.932C144.97 107.932 145.266 107.886 145.533 107.795C145.805 107.705 146.038 107.574 146.232 107.403C146.425 107.227 146.567 107.017 146.658 106.773H150.953C150.805 107.682 150.456 108.472 149.905 109.142C149.354 109.807 148.624 110.324 147.714 110.693C146.811 111.057 145.754 111.239 144.544 111.239ZM157.577 103.636V111H152.873V97.9091H157.339V100.398H157.475C157.759 99.5682 158.259 98.9176 158.975 98.446C159.697 97.9744 160.538 97.7386 161.498 97.7386C162.424 97.7386 163.228 97.9517 163.91 98.3778C164.597 98.7983 165.129 99.3778 165.504 100.116C165.884 100.855 166.072 101.699 166.066 102.648V111H161.362V103.636C161.367 102.989 161.202 102.48 160.867 102.111C160.538 101.741 160.077 101.557 159.487 101.557C159.1 101.557 158.762 101.642 158.472 101.812C158.188 101.977 157.969 102.216 157.816 102.528C157.663 102.835 157.583 103.205 157.577 103.636ZM176.195 97.9091V101.318H167.57V97.9091H176.195ZM169.241 94.7727H173.945V106.79C173.945 106.972 173.977 107.125 174.039 107.25C174.102 107.369 174.198 107.46 174.329 107.523C174.46 107.58 174.627 107.608 174.832 107.608C174.974 107.608 175.138 107.591 175.326 107.557C175.519 107.523 175.661 107.494 175.752 107.472L176.434 110.778C176.224 110.841 175.923 110.918 175.531 111.009C175.144 111.099 174.684 111.159 174.15 111.188C173.07 111.244 172.164 111.134 171.431 110.855C170.698 110.571 170.147 110.125 169.778 109.517C169.408 108.909 169.229 108.148 169.241 107.233V94.7727Z" fill="black"/>
<rect x="382" y="37" width="238" height="66" rx="7" fill="black" fill-opacity="0.1" stroke="black" stroke-width="5"/>
<path d="M471.159 67C471.114 66.4318 470.901 65.9886 470.52 65.6705C470.145 65.3523 469.574 65.1932 468.807 65.1932C468.318 65.1932 467.918 65.2528 467.605 65.3722C467.298 65.4858 467.071 65.642 466.923 65.8409C466.776 66.0398 466.699 66.267 466.693 66.5227C466.682 66.733 466.719 66.9233 466.804 67.0938C466.895 67.2585 467.037 67.4091 467.23 67.5455C467.423 67.6761 467.67 67.7955 467.972 67.9034C468.273 68.0114 468.631 68.108 469.045 68.1932L470.477 68.5C471.443 68.7045 472.27 68.9744 472.957 69.3097C473.645 69.6449 474.207 70.0398 474.645 70.4943C475.082 70.9432 475.403 71.4489 475.608 72.0114C475.818 72.5739 475.926 73.1875 475.932 73.8523C475.926 75 475.639 75.9716 475.071 76.767C474.503 77.5625 473.69 78.1676 472.634 78.5824C471.582 78.9972 470.318 79.2045 468.841 79.2045C467.324 79.2045 466 78.9801 464.869 78.5312C463.744 78.0824 462.869 77.392 462.244 76.4602C461.625 75.5227 461.313 74.3239 461.307 72.8636H465.807C465.835 73.3977 465.969 73.8466 466.207 74.2102C466.446 74.5739 466.781 74.8494 467.213 75.0369C467.651 75.2244 468.17 75.3182 468.773 75.3182C469.278 75.3182 469.702 75.2557 470.043 75.1307C470.384 75.0057 470.642 74.8324 470.818 74.6108C470.994 74.3892 471.085 74.1364 471.091 73.8523C471.085 73.5852 470.997 73.3523 470.827 73.1534C470.662 72.9489 470.389 72.767 470.009 72.608C469.628 72.4432 469.114 72.2898 468.466 72.1477L466.727 71.7727C465.182 71.4375 463.963 70.8778 463.071 70.0938C462.185 69.304 461.744 68.2273 461.75 66.8636C461.744 65.7557 462.04 64.7869 462.636 63.9574C463.239 63.1222 464.071 62.4716 465.134 62.0057C466.202 61.5398 467.426 61.3068 468.807 61.3068C470.216 61.3068 471.435 61.5426 472.463 62.0142C473.491 62.4858 474.284 63.1506 474.841 64.0085C475.403 64.8608 475.688 65.858 475.693 67H471.159ZM485.609 65.9091V69.3182H476.984V65.9091H485.609ZM478.655 62.7727H483.359V74.7898C483.359 74.9716 483.391 75.125 483.453 75.25C483.516 75.3693 483.612 75.4602 483.743 75.5227C483.874 75.5795 484.041 75.608 484.246 75.608C484.388 75.608 484.553 75.5909 484.74 75.5568C484.933 75.5227 485.075 75.4943 485.166 75.4716L485.848 78.7784C485.638 78.8409 485.337 78.9176 484.945 79.0085C484.558 79.0994 484.098 79.1591 483.564 79.1875C482.484 79.2443 481.578 79.1335 480.845 78.8551C480.112 78.571 479.561 78.125 479.192 77.517C478.822 76.9091 478.643 76.1477 478.655 75.233V62.7727ZM493.695 79.2386C492.275 79.2386 491.059 78.9574 490.048 78.3949C489.036 77.8267 488.261 77.0369 487.721 76.0256C487.181 75.0085 486.911 73.8295 486.911 72.4886C486.911 71.1477 487.181 69.9716 487.721 68.9602C488.261 67.9432 489.036 67.1534 490.048 66.5909C491.059 66.0227 492.275 65.7386 493.695 65.7386C495.116 65.7386 496.332 66.0227 497.343 66.5909C498.354 67.1534 499.13 67.9432 499.67 68.9602C500.21 69.9716 500.479 71.1477 500.479 72.4886C500.479 73.8295 500.21 75.0085 499.67 76.0256C499.13 77.0369 498.354 77.8267 497.343 78.3949C496.332 78.9574 495.116 79.2386 493.695 79.2386ZM493.729 75.7614C494.127 75.7614 494.471 75.6278 494.761 75.3608C495.05 75.0937 495.275 74.7131 495.434 74.2188C495.593 73.7244 495.673 73.1364 495.673 72.4545C495.673 71.767 495.593 71.179 495.434 70.6903C495.275 70.196 495.05 69.8153 494.761 69.5483C494.471 69.2812 494.127 69.1477 493.729 69.1477C493.309 69.1477 492.948 69.2812 492.647 69.5483C492.346 69.8153 492.116 70.196 491.957 70.6903C491.798 71.179 491.718 71.767 491.718 72.4545C491.718 73.1364 491.798 73.7244 491.957 74.2188C492.116 74.7131 492.346 75.0937 492.647 75.3608C492.948 75.6278 493.309 75.7614 493.729 75.7614ZM502.388 79V65.9091H506.957V68.3977H507.093C507.332 67.4773 507.71 66.804 508.227 66.3778C508.749 65.9517 509.36 65.7386 510.059 65.7386C510.263 65.7386 510.465 65.7557 510.664 65.7898C510.869 65.8182 511.065 65.8608 511.252 65.9176V69.9318C511.019 69.8523 510.732 69.7926 510.391 69.7528C510.05 69.7131 509.758 69.6932 509.513 69.6932C509.053 69.6932 508.638 69.7983 508.269 70.0085C507.906 70.2131 507.619 70.5028 507.408 70.8778C507.198 71.2472 507.093 71.6818 507.093 72.1818V79H502.388ZM518.317 79.2386C516.92 79.2386 515.715 78.9716 514.704 78.4375C513.698 77.8977 512.923 77.125 512.377 76.1193C511.837 75.108 511.567 73.8977 511.567 72.4886C511.567 71.1364 511.84 69.9545 512.386 68.9432C512.931 67.9318 513.701 67.1449 514.695 66.5824C515.69 66.0199 516.863 65.7386 518.215 65.7386C519.204 65.7386 520.099 65.892 520.9 66.1989C521.701 66.5057 522.386 66.9517 522.954 67.5369C523.522 68.1165 523.96 68.821 524.266 69.6506C524.573 70.4801 524.727 71.4148 524.727 72.4545V73.5455H513.033V70.9545H520.397C520.391 70.5795 520.295 70.25 520.107 69.9659C519.925 69.6761 519.678 69.4517 519.366 69.2926C519.059 69.1278 518.71 69.0455 518.317 69.0455C517.937 69.0455 517.587 69.1278 517.269 69.2926C516.951 69.4517 516.695 69.6733 516.502 69.9574C516.315 70.2415 516.215 70.5739 516.204 70.9545V73.75C516.204 74.1705 516.292 74.5455 516.468 74.875C516.644 75.2045 516.897 75.4631 517.227 75.6506C517.556 75.8381 517.954 75.9318 518.42 75.9318C518.744 75.9318 519.039 75.8864 519.306 75.7955C519.579 75.7045 519.812 75.5739 520.005 75.4034C520.198 75.2273 520.34 75.017 520.431 74.7727H524.727C524.579 75.6818 524.229 76.4716 523.678 77.142C523.127 77.8068 522.397 78.3239 521.488 78.6932C520.585 79.0568 519.528 79.2386 518.317 79.2386ZM539.95 61.5455V79H535.212V65.9091H535.109L531.291 68.1932V64.1705L535.587 61.5455H539.95Z" fill="black"/>
<rect x="383" y="195" width="238" height="66" rx="7" fill="black" fill-opacity="0.1" stroke="black" stroke-width="5"/>
<path d="M470.132 225C470.086 224.432 469.873 223.989 469.493 223.67C469.118 223.352 468.547 223.193 467.779 223.193C467.291 223.193 466.89 223.253 466.578 223.372C466.271 223.486 466.044 223.642 465.896 223.841C465.748 224.04 465.672 224.267 465.666 224.523C465.654 224.733 465.691 224.923 465.777 225.094C465.868 225.259 466.01 225.409 466.203 225.545C466.396 225.676 466.643 225.795 466.944 225.903C467.245 226.011 467.603 226.108 468.018 226.193L469.45 226.5C470.416 226.705 471.243 226.974 471.93 227.31C472.618 227.645 473.18 228.04 473.618 228.494C474.055 228.943 474.376 229.449 474.581 230.011C474.791 230.574 474.899 231.187 474.904 231.852C474.899 233 474.612 233.972 474.044 234.767C473.475 235.562 472.663 236.168 471.606 236.582C470.555 236.997 469.291 237.205 467.814 237.205C466.297 237.205 464.973 236.98 463.842 236.531C462.717 236.082 461.842 235.392 461.217 234.46C460.598 233.523 460.285 232.324 460.279 230.864H464.779C464.808 231.398 464.941 231.847 465.18 232.21C465.419 232.574 465.754 232.849 466.186 233.037C466.623 233.224 467.143 233.318 467.745 233.318C468.251 233.318 468.674 233.256 469.015 233.131C469.356 233.006 469.615 232.832 469.791 232.611C469.967 232.389 470.058 232.136 470.064 231.852C470.058 231.585 469.97 231.352 469.799 231.153C469.635 230.949 469.362 230.767 468.981 230.608C468.6 230.443 468.086 230.29 467.439 230.148L465.7 229.773C464.154 229.437 462.936 228.878 462.044 228.094C461.157 227.304 460.717 226.227 460.723 224.864C460.717 223.756 461.012 222.787 461.609 221.957C462.211 221.122 463.044 220.472 464.106 220.006C465.174 219.54 466.399 219.307 467.779 219.307C469.189 219.307 470.407 219.543 471.436 220.014C472.464 220.486 473.257 221.151 473.814 222.009C474.376 222.861 474.66 223.858 474.666 225H470.132ZM484.582 223.909V227.318H475.957V223.909H484.582ZM477.627 220.773H482.332V232.79C482.332 232.972 482.363 233.125 482.426 233.25C482.488 233.369 482.585 233.46 482.716 233.523C482.846 233.58 483.014 233.608 483.218 233.608C483.36 233.608 483.525 233.591 483.713 233.557C483.906 233.523 484.048 233.494 484.139 233.472L484.821 236.778C484.61 236.841 484.309 236.918 483.917 237.009C483.531 237.099 483.071 237.159 482.537 237.188C481.457 237.244 480.551 237.134 479.818 236.855C479.085 236.571 478.534 236.125 478.164 235.517C477.795 234.909 477.616 234.148 477.627 233.233V220.773ZM492.668 237.239C491.248 237.239 490.032 236.957 489.02 236.395C488.009 235.827 487.233 235.037 486.694 234.026C486.154 233.009 485.884 231.83 485.884 230.489C485.884 229.148 486.154 227.972 486.694 226.96C487.233 225.943 488.009 225.153 489.02 224.591C490.032 224.023 491.248 223.739 492.668 223.739C494.088 223.739 495.304 224.023 496.316 224.591C497.327 225.153 498.103 225.943 498.642 226.96C499.182 227.972 499.452 229.148 499.452 230.489C499.452 231.83 499.182 233.009 498.642 234.026C498.103 235.037 497.327 235.827 496.316 236.395C495.304 236.957 494.088 237.239 492.668 237.239ZM492.702 233.761C493.1 233.761 493.444 233.628 493.733 233.361C494.023 233.094 494.248 232.713 494.407 232.219C494.566 231.724 494.645 231.136 494.645 230.455C494.645 229.767 494.566 229.179 494.407 228.69C494.248 228.196 494.023 227.815 493.733 227.548C493.444 227.281 493.1 227.148 492.702 227.148C492.282 227.148 491.921 227.281 491.62 227.548C491.319 227.815 491.088 228.196 490.929 228.69C490.77 229.179 490.691 229.767 490.691 230.455C490.691 231.136 490.77 231.724 490.929 232.219C491.088 232.713 491.319 233.094 491.62 233.361C491.921 233.628 492.282 233.761 492.702 233.761ZM501.361 237V223.909H505.929V226.398H506.066C506.304 225.477 506.682 224.804 507.199 224.378C507.722 223.952 508.333 223.739 509.032 223.739C509.236 223.739 509.438 223.756 509.637 223.79C509.841 223.818 510.037 223.861 510.225 223.918V227.932C509.992 227.852 509.705 227.793 509.364 227.753C509.023 227.713 508.73 227.693 508.486 227.693C508.026 227.693 507.611 227.798 507.242 228.009C506.878 228.213 506.591 228.503 506.381 228.878C506.171 229.247 506.066 229.682 506.066 230.182V237H501.361ZM517.29 237.239C515.892 237.239 514.688 236.972 513.676 236.438C512.671 235.898 511.895 235.125 511.35 234.119C510.81 233.108 510.54 231.898 510.54 230.489C510.54 229.136 510.813 227.955 511.358 226.943C511.904 225.932 512.674 225.145 513.668 224.582C514.662 224.02 515.836 223.739 517.188 223.739C518.176 223.739 519.071 223.892 519.873 224.199C520.674 224.506 521.358 224.952 521.926 225.537C522.495 226.116 522.932 226.821 523.239 227.651C523.546 228.48 523.699 229.415 523.699 230.455V231.545H512.006V228.955H519.37C519.364 228.58 519.267 228.25 519.08 227.966C518.898 227.676 518.651 227.452 518.338 227.293C518.032 227.128 517.682 227.045 517.29 227.045C516.909 227.045 516.56 227.128 516.242 227.293C515.924 227.452 515.668 227.673 515.475 227.957C515.287 228.241 515.188 228.574 515.176 228.955V231.75C515.176 232.17 515.265 232.545 515.441 232.875C515.617 233.205 515.87 233.463 516.199 233.651C516.529 233.838 516.926 233.932 517.392 233.932C517.716 233.932 518.012 233.886 518.279 233.795C518.551 233.705 518.784 233.574 518.978 233.403C519.171 233.227 519.313 233.017 519.404 232.773H523.699C523.551 233.682 523.202 234.472 522.651 235.142C522.1 235.807 521.37 236.324 520.461 236.693C519.557 237.057 518.5 237.239 517.29 237.239ZM537.184 237.239C535.809 237.239 534.588 237.003 533.52 236.531C532.457 236.054 531.622 235.398 531.014 234.562C530.406 233.727 530.099 232.767 530.093 231.682H534.866C534.872 232.017 534.974 232.318 535.173 232.585C535.377 232.847 535.656 233.051 536.008 233.199C536.36 233.347 536.764 233.42 537.218 233.42C537.656 233.42 538.042 233.344 538.377 233.19C538.713 233.031 538.974 232.812 539.162 232.534C539.349 232.256 539.44 231.937 539.434 231.58C539.44 231.227 539.332 230.915 539.11 230.642C538.895 230.369 538.591 230.156 538.199 230.003C537.806 229.849 537.355 229.773 536.843 229.773H535.071V226.5H536.843C537.315 226.5 537.73 226.423 538.088 226.27C538.451 226.116 538.733 225.903 538.931 225.631C539.136 225.358 539.235 225.045 539.23 224.693C539.235 224.352 539.153 224.051 538.983 223.79C538.812 223.528 538.574 223.324 538.267 223.176C537.966 223.028 537.616 222.955 537.218 222.955C536.787 222.955 536.4 223.031 536.059 223.185C535.724 223.338 535.46 223.551 535.267 223.824C535.074 224.097 534.974 224.409 534.968 224.761H530.434C530.44 223.693 530.733 222.75 531.312 221.932C531.897 221.114 532.699 220.472 533.716 220.006C534.733 219.54 535.9 219.307 537.218 219.307C538.508 219.307 539.647 219.526 540.636 219.963C541.63 220.401 542.406 221.003 542.963 221.77C543.525 222.531 543.804 223.403 543.798 224.386C543.809 225.364 543.474 226.165 542.792 226.79C542.116 227.415 541.258 227.784 540.218 227.898V228.034C541.627 228.187 542.687 228.619 543.397 229.33C544.108 230.034 544.457 230.92 544.446 231.989C544.451 233.011 544.145 233.918 543.525 234.707C542.912 235.497 542.056 236.116 540.96 236.565C539.869 237.014 538.61 237.239 537.184 237.239Z" fill="black"/>
<rect x="382" y="117" width="238" height="66" rx="7" fill="black" fill-opacity="0.1" stroke="black" stroke-width="5"/>
<path d="M469.472 147C469.426 146.432 469.213 145.989 468.832 145.67C468.457 145.352 467.886 145.193 467.119 145.193C466.631 145.193 466.23 145.253 465.918 145.372C465.611 145.486 465.384 145.642 465.236 145.841C465.088 146.04 465.011 146.267 465.006 146.523C464.994 146.733 465.031 146.923 465.116 147.094C465.207 147.259 465.349 147.409 465.543 147.545C465.736 147.676 465.983 147.795 466.284 147.903C466.585 148.011 466.943 148.108 467.358 148.193L468.79 148.5C469.756 148.705 470.582 148.974 471.27 149.31C471.957 149.645 472.52 150.04 472.957 150.494C473.395 150.943 473.716 151.449 473.92 152.011C474.131 152.574 474.239 153.187 474.244 153.852C474.239 155 473.952 155.972 473.384 156.767C472.815 157.562 472.003 158.168 470.946 158.582C469.895 158.997 468.631 159.205 467.153 159.205C465.636 159.205 464.313 158.98 463.182 158.531C462.057 158.082 461.182 157.392 460.557 156.46C459.938 155.523 459.625 154.324 459.619 152.864H464.119C464.148 153.398 464.281 153.847 464.52 154.21C464.759 154.574 465.094 154.849 465.526 155.037C465.963 155.224 466.483 155.318 467.085 155.318C467.591 155.318 468.014 155.256 468.355 155.131C468.696 155.006 468.955 154.832 469.131 154.611C469.307 154.389 469.398 154.136 469.403 153.852C469.398 153.585 469.31 153.352 469.139 153.153C468.974 152.949 468.702 152.767 468.321 152.608C467.94 152.443 467.426 152.29 466.778 152.148L465.04 151.773C463.494 151.437 462.276 150.878 461.384 150.094C460.497 149.304 460.057 148.227 460.062 146.864C460.057 145.756 460.352 144.787 460.949 143.957C461.551 143.122 462.384 142.472 463.446 142.006C464.514 141.54 465.739 141.307 467.119 141.307C468.528 141.307 469.747 141.543 470.776 142.014C471.804 142.486 472.597 143.151 473.153 144.009C473.716 144.861 474 145.858 474.006 147H469.472ZM483.922 145.909V149.318H475.297V145.909H483.922ZM476.967 142.773H481.672V154.79C481.672 154.972 481.703 155.125 481.766 155.25C481.828 155.369 481.925 155.46 482.055 155.523C482.186 155.58 482.354 155.608 482.558 155.608C482.7 155.608 482.865 155.591 483.053 155.557C483.246 155.523 483.388 155.494 483.479 155.472L484.161 158.778C483.95 158.841 483.649 158.918 483.257 159.009C482.871 159.099 482.411 159.159 481.876 159.188C480.797 159.244 479.891 159.134 479.158 158.855C478.425 158.571 477.874 158.125 477.504 157.517C477.135 156.909 476.956 156.148 476.967 155.233V142.773ZM492.008 159.239C490.587 159.239 489.371 158.957 488.36 158.395C487.349 157.827 486.573 157.037 486.033 156.026C485.494 155.009 485.224 153.83 485.224 152.489C485.224 151.148 485.494 149.972 486.033 148.96C486.573 147.943 487.349 147.153 488.36 146.591C489.371 146.023 490.587 145.739 492.008 145.739C493.428 145.739 494.644 146.023 495.656 146.591C496.667 147.153 497.442 147.943 497.982 148.96C498.522 149.972 498.792 151.148 498.792 152.489C498.792 153.83 498.522 155.009 497.982 156.026C497.442 157.037 496.667 157.827 495.656 158.395C494.644 158.957 493.428 159.239 492.008 159.239ZM492.042 155.761C492.44 155.761 492.783 155.628 493.073 155.361C493.363 155.094 493.587 154.713 493.746 154.219C493.906 153.724 493.985 153.136 493.985 152.455C493.985 151.767 493.906 151.179 493.746 150.69C493.587 150.196 493.363 149.815 493.073 149.548C492.783 149.281 492.44 149.148 492.042 149.148C491.621 149.148 491.261 149.281 490.96 149.548C490.658 149.815 490.428 150.196 490.269 150.69C490.11 151.179 490.031 151.767 490.031 152.455C490.031 153.136 490.11 153.724 490.269 154.219C490.428 154.713 490.658 155.094 490.96 155.361C491.261 155.628 491.621 155.761 492.042 155.761ZM500.701 159V145.909H505.269V148.398H505.406C505.644 147.477 506.022 146.804 506.539 146.378C507.062 145.952 507.673 145.739 508.371 145.739C508.576 145.739 508.778 145.756 508.977 145.79C509.181 145.818 509.377 145.861 509.565 145.918V149.932C509.332 149.852 509.045 149.793 508.704 149.753C508.363 149.713 508.07 149.693 507.826 149.693C507.366 149.693 506.951 149.798 506.582 150.009C506.218 150.213 505.931 150.503 505.721 150.878C505.511 151.247 505.406 151.682 505.406 152.182V159H500.701ZM516.63 159.239C515.232 159.239 514.028 158.972 513.016 158.438C512.011 157.898 511.235 157.125 510.69 156.119C510.15 155.108 509.88 153.898 509.88 152.489C509.88 151.136 510.153 149.955 510.698 148.943C511.244 147.932 512.013 147.145 513.008 146.582C514.002 146.02 515.175 145.739 516.528 145.739C517.516 145.739 518.411 145.892 519.212 146.199C520.013 146.506 520.698 146.952 521.266 147.537C521.835 148.116 522.272 148.821 522.579 149.651C522.886 150.48 523.039 151.415 523.039 152.455V153.545H511.346V150.955H518.71C518.704 150.58 518.607 150.25 518.42 149.966C518.238 149.676 517.991 149.452 517.678 149.293C517.371 149.128 517.022 149.045 516.63 149.045C516.249 149.045 515.9 149.128 515.582 149.293C515.263 149.452 515.008 149.673 514.815 149.957C514.627 150.241 514.528 150.574 514.516 150.955V153.75C514.516 154.17 514.604 154.545 514.781 154.875C514.957 155.205 515.21 155.463 515.539 155.651C515.869 155.838 516.266 155.932 516.732 155.932C517.056 155.932 517.352 155.886 517.619 155.795C517.891 155.705 518.124 155.574 518.317 155.403C518.511 155.227 518.653 155.017 518.744 154.773H523.039C522.891 155.682 522.542 156.472 521.991 157.142C521.44 157.807 520.71 158.324 519.8 158.693C518.897 159.057 517.84 159.239 516.63 159.239ZM529.706 159V155.591L536.217 150.205C536.649 149.847 537.018 149.511 537.325 149.199C537.638 148.881 537.876 148.554 538.041 148.219C538.212 147.884 538.297 147.511 538.297 147.102C538.297 146.653 538.2 146.27 538.007 145.952C537.82 145.634 537.558 145.389 537.223 145.219C536.888 145.043 536.501 144.955 536.064 144.955C535.626 144.955 535.24 145.043 534.905 145.219C534.575 145.395 534.32 145.653 534.138 145.994C533.956 146.335 533.865 146.75 533.865 147.239H529.365C529.365 146.011 529.641 144.955 530.192 144.068C530.743 143.182 531.521 142.5 532.527 142.023C533.533 141.545 534.712 141.307 536.064 141.307C537.462 141.307 538.672 141.531 539.695 141.98C540.723 142.423 541.516 143.048 542.072 143.855C542.635 144.662 542.916 145.608 542.916 146.693C542.916 147.364 542.777 148.031 542.499 148.696C542.22 149.355 541.72 150.085 540.999 150.886C540.277 151.688 539.251 152.642 537.922 153.75L536.286 155.114V155.216H543.104V159H529.706Z" fill="black"/>
<rect x="383" y="275" width="238" height="66" rx="7" fill="black" fill-opacity="0.1" stroke="black" stroke-width="5"/>
<path d="M469.804 305C469.758 304.432 469.545 303.989 469.164 303.67C468.789 303.352 468.218 303.193 467.451 303.193C466.963 303.193 466.562 303.253 466.25 303.372C465.943 303.486 465.716 303.642 465.568 303.841C465.42 304.04 465.343 304.267 465.338 304.523C465.326 304.733 465.363 304.923 465.449 305.094C465.539 305.259 465.681 305.409 465.875 305.545C466.068 305.676 466.315 305.795 466.616 305.903C466.917 306.011 467.275 306.108 467.69 306.193L469.122 306.5C470.088 306.705 470.914 306.974 471.602 307.31C472.289 307.645 472.852 308.04 473.289 308.494C473.727 308.943 474.048 309.449 474.252 310.011C474.463 310.574 474.571 311.187 474.576 311.852C474.571 313 474.284 313.972 473.716 314.767C473.147 315.562 472.335 316.168 471.278 316.582C470.227 316.997 468.963 317.205 467.485 317.205C465.968 317.205 464.645 316.98 463.514 316.531C462.389 316.082 461.514 315.392 460.889 314.46C460.27 313.523 459.957 312.324 459.951 310.864H464.451C464.48 311.398 464.613 311.847 464.852 312.21C465.091 312.574 465.426 312.849 465.858 313.037C466.295 313.224 466.815 313.318 467.417 313.318C467.923 313.318 468.346 313.256 468.687 313.131C469.028 313.006 469.287 312.832 469.463 312.611C469.639 312.389 469.73 312.136 469.735 311.852C469.73 311.585 469.642 311.352 469.471 311.153C469.306 310.949 469.034 310.767 468.653 310.608C468.272 310.443 467.758 310.29 467.11 310.148L465.372 309.773C463.826 309.437 462.608 308.878 461.716 308.094C460.829 307.304 460.389 306.227 460.395 304.864C460.389 303.756 460.684 302.787 461.281 301.957C461.883 301.122 462.716 300.472 463.778 300.006C464.846 299.54 466.071 299.307 467.451 299.307C468.86 299.307 470.079 299.543 471.108 300.014C472.136 300.486 472.929 301.151 473.485 302.009C474.048 302.861 474.332 303.858 474.338 305H469.804ZM484.254 303.909V307.318H475.629V303.909H484.254ZM477.299 300.773H482.004V312.79C482.004 312.972 482.035 313.125 482.098 313.25C482.16 313.369 482.257 313.46 482.387 313.523C482.518 313.58 482.686 313.608 482.89 313.608C483.032 313.608 483.197 313.591 483.385 313.557C483.578 313.523 483.72 313.494 483.811 313.472L484.493 316.778C484.282 316.841 483.981 316.918 483.589 317.009C483.203 317.099 482.743 317.159 482.208 317.188C481.129 317.244 480.223 317.134 479.49 316.855C478.757 316.571 478.206 316.125 477.836 315.517C477.467 314.909 477.288 314.148 477.299 313.233V300.773ZM492.34 317.239C490.919 317.239 489.703 316.957 488.692 316.395C487.681 315.827 486.905 315.037 486.365 314.026C485.826 313.009 485.556 311.83 485.556 310.489C485.556 309.148 485.826 307.972 486.365 306.96C486.905 305.943 487.681 305.153 488.692 304.591C489.703 304.023 490.919 303.739 492.34 303.739C493.76 303.739 494.976 304.023 495.988 304.591C496.999 305.153 497.775 305.943 498.314 306.96C498.854 307.972 499.124 309.148 499.124 310.489C499.124 311.83 498.854 313.009 498.314 314.026C497.775 315.037 496.999 315.827 495.988 316.395C494.976 316.957 493.76 317.239 492.34 317.239ZM492.374 313.761C492.772 313.761 493.115 313.628 493.405 313.361C493.695 313.094 493.919 312.713 494.078 312.219C494.238 311.724 494.317 311.136 494.317 310.455C494.317 309.767 494.238 309.179 494.078 308.69C493.919 308.196 493.695 307.815 493.405 307.548C493.115 307.281 492.772 307.148 492.374 307.148C491.953 307.148 491.593 307.281 491.292 307.548C490.99 307.815 490.76 308.196 490.601 308.69C490.442 309.179 490.363 309.767 490.363 310.455C490.363 311.136 490.442 311.724 490.601 312.219C490.76 312.713 490.99 313.094 491.292 313.361C491.593 313.628 491.953 313.761 492.374 313.761ZM501.033 317V303.909H505.601V306.398H505.738C505.976 305.477 506.354 304.804 506.871 304.378C507.394 303.952 508.005 303.739 508.703 303.739C508.908 303.739 509.11 303.756 509.309 303.79C509.513 303.818 509.709 303.861 509.897 303.918V307.932C509.664 307.852 509.377 307.793 509.036 307.753C508.695 307.713 508.402 307.693 508.158 307.693C507.698 307.693 507.283 307.798 506.914 308.009C506.55 308.213 506.263 308.503 506.053 308.878C505.843 309.247 505.738 309.682 505.738 310.182V317H501.033ZM516.962 317.239C515.564 317.239 514.36 316.972 513.348 316.438C512.343 315.898 511.567 315.125 511.022 314.119C510.482 313.108 510.212 311.898 510.212 310.489C510.212 309.136 510.485 307.955 511.03 306.943C511.576 305.932 512.346 305.145 513.34 304.582C514.334 304.02 515.507 303.739 516.86 303.739C517.848 303.739 518.743 303.892 519.544 304.199C520.346 304.506 521.03 304.952 521.598 305.537C522.167 306.116 522.604 306.821 522.911 307.651C523.218 308.48 523.371 309.415 523.371 310.455V311.545H511.678V308.955H519.042C519.036 308.58 518.939 308.25 518.752 307.966C518.57 307.676 518.323 307.452 518.01 307.293C517.703 307.128 517.354 307.045 516.962 307.045C516.581 307.045 516.232 307.128 515.914 307.293C515.596 307.452 515.34 307.673 515.147 307.957C514.959 308.241 514.86 308.574 514.848 308.955V311.75C514.848 312.17 514.936 312.545 515.113 312.875C515.289 313.205 515.542 313.463 515.871 313.651C516.201 313.838 516.598 313.932 517.064 313.932C517.388 313.932 517.684 313.886 517.951 313.795C518.223 313.705 518.456 313.574 518.65 313.403C518.843 313.227 518.985 313.017 519.076 312.773H523.371C523.223 313.682 522.874 314.472 522.323 315.142C521.772 315.807 521.042 316.324 520.132 316.693C519.229 317.057 518.172 317.239 516.962 317.239ZM529.868 314.273V310.591L536.89 299.545H540.231V304.455H538.322L534.538 310.455V310.591H544.902V314.273H529.868ZM538.356 317V313.148L538.458 311.545V299.545H542.89V317H538.356Z" fill="black"/>
<rect x="18" y="3" width="238" height="66" rx="7" fill="black" fill-opacity="0.1" stroke="black" stroke-width="5"/>
<path d="M47.3125 45V27.5455H54.8466C56.142 27.5455 57.2756 27.7812 58.2472 28.2528C59.2188 28.7244 59.9744 29.4034 60.5142 30.2898C61.054 31.1761 61.3239 32.2386 61.3239 33.4773C61.3239 34.7273 61.0455 35.7812 60.4886 36.6392C59.9375 37.4972 59.1619 38.1449 58.1619 38.5824C57.1676 39.0199 56.0057 39.2386 54.6761 39.2386H50.1761V35.5568H53.7216C54.2784 35.5568 54.7528 35.4886 55.1449 35.3523C55.5426 35.2102 55.8466 34.9858 56.0568 34.679C56.2727 34.3722 56.3807 33.9716 56.3807 33.4773C56.3807 32.9773 56.2727 32.571 56.0568 32.2585C55.8466 31.9403 55.5426 31.7074 55.1449 31.5597C54.7528 31.4062 54.2784 31.3295 53.7216 31.3295H52.0511V45H47.3125ZM57.5398 36.9886L61.9034 45H56.7557L52.4943 36.9886H57.5398ZM69.4034 45.2386C68.0057 45.2386 66.8011 44.9716 65.7898 44.4375C64.7841 43.8977 64.0085 43.125 63.4631 42.1193C62.9233 41.108 62.6534 39.8977 62.6534 38.4886C62.6534 37.1364 62.9261 35.9545 63.4716 34.9432C64.017 33.9318 64.7869 33.1449 65.7812 32.5824C66.7756 32.0199 67.9489 31.7386 69.3011 31.7386C70.2898 31.7386 71.1847 31.892 71.9858 32.1989C72.7869 32.5057 73.4716 32.9517 74.0398 33.5369C74.608 34.1165 75.0455 34.821 75.3523 35.6506C75.6591 36.4801 75.8125 37.4148 75.8125 38.4545V39.5455H64.1193V36.9545H71.483C71.4773 36.5795 71.3807 36.25 71.1932 35.9659C71.0114 35.6761 70.7642 35.4517 70.4517 35.2926C70.1449 35.1278 69.7955 35.0455 69.4034 35.0455C69.0227 35.0455 68.6733 35.1278 68.3551 35.2926C68.0369 35.4517 67.7813 35.6733 67.5881 35.9574C67.4006 36.2415 67.3011 36.5739 67.2898 36.9545V39.75C67.2898 40.1705 67.3778 40.5455 67.554 40.875C67.7301 41.2045 67.983 41.4631 68.3125 41.6506C68.642 41.8381 69.0398 41.9318 69.5057 41.9318C69.8295 41.9318 70.125 41.8864 70.392 41.7955C70.6648 41.7045 70.8977 41.5739 71.0909 41.4034C71.2841 41.2273 71.4261 41.017 71.517 40.7727H75.8125C75.6648 41.6818 75.3153 42.4716 74.7642 43.142C74.2131 43.8068 73.483 44.3239 72.5739 44.6932C71.6705 45.0568 70.6136 45.2386 69.4034 45.2386ZM82.4709 45.1705C81.5391 45.1705 80.6811 44.9261 79.897 44.4375C79.1186 43.9489 78.4936 43.2074 78.022 42.2131C77.5561 41.2187 77.3232 39.9659 77.3232 38.4545C77.3232 36.875 77.5675 35.5909 78.0561 34.6023C78.5504 33.6136 79.1868 32.8892 79.9652 32.429C80.7493 31.9688 81.5732 31.7386 82.4368 31.7386C83.0845 31.7386 83.6527 31.8523 84.1413 32.0795C84.63 32.3011 85.0391 32.5994 85.3686 32.9744C85.6982 33.3437 85.9482 33.75 86.1186 34.1932H86.1868V27.5455H90.8913V45H86.2209V42.8523H86.1186C85.9368 43.2955 85.6754 43.6932 85.3345 44.0455C84.9993 44.392 84.5902 44.6676 84.1072 44.8722C83.63 45.071 83.0845 45.1705 82.4709 45.1705ZM84.2095 41.5568C84.6413 41.5568 85.0107 41.4318 85.3175 41.1818C85.63 40.9261 85.8686 40.5682 86.0334 40.108C86.2038 39.642 86.2891 39.0909 86.2891 38.4545C86.2891 37.8068 86.2038 37.2528 86.0334 36.7926C85.8686 36.3267 85.63 35.9716 85.3175 35.7273C85.0107 35.4773 84.6413 35.3523 84.2095 35.3523C83.7777 35.3523 83.4084 35.4773 83.1016 35.7273C82.8004 35.9716 82.5675 36.3267 82.4027 36.7926C82.2436 37.2528 82.1641 37.8068 82.1641 38.4545C82.1641 39.1023 82.2436 39.6591 82.4027 40.125C82.5675 40.5852 82.8004 40.9403 83.1016 41.1903C83.4084 41.4347 83.7777 41.5568 84.2095 41.5568ZM101.69 39.2727V31.9091H106.394V45H101.928V42.5114H101.792C101.508 43.3466 101.011 44 100.3 44.4716C99.5902 44.9375 98.7464 45.1705 97.7692 45.1705C96.8544 45.1705 96.0533 44.9602 95.3658 44.5398C94.6839 44.1193 94.1527 43.5398 93.772 42.8011C93.397 42.0625 93.2067 41.2159 93.201 40.2614V31.9091H97.9055V39.2727C97.9112 39.9205 98.076 40.429 98.3999 40.7983C98.7294 41.1676 99.1896 41.3523 99.7805 41.3523C100.173 41.3523 100.511 41.2699 100.795 41.1051C101.085 40.9347 101.306 40.696 101.46 40.3892C101.619 40.0767 101.695 39.7045 101.69 39.2727ZM112.844 31.9091L114.753 35.9659L116.764 31.9091H121.435L117.923 38.4545L121.605 45H116.969L114.753 40.8409L112.605 45H107.901L111.616 38.4545L108.139 31.9091H112.844ZM127.82 45V27.5455H135.354C136.65 27.5455 137.783 27.8011 138.755 28.3125C139.727 28.8239 140.482 29.5426 141.022 30.4688C141.562 31.3949 141.832 32.4773 141.832 33.7159C141.832 34.9659 141.553 36.0483 140.996 36.9631C140.445 37.8778 139.67 38.5824 138.67 39.0767C137.675 39.571 136.513 39.8182 135.184 39.8182H130.684V36.1364H134.229C134.786 36.1364 135.261 36.0398 135.653 35.8466C136.05 35.6477 136.354 35.3665 136.565 35.0028C136.781 34.6392 136.888 34.2102 136.888 33.7159C136.888 33.2159 136.781 32.7898 136.565 32.4375C136.354 32.0795 136.05 31.8068 135.653 31.6193C135.261 31.4261 134.786 31.3295 134.229 31.3295H132.559V45H127.82ZM143.638 45V31.9091H148.207V34.3977H148.343C148.582 33.4773 148.96 32.804 149.477 32.3778C149.999 31.9517 150.61 31.7386 151.309 31.7386C151.513 31.7386 151.715 31.7557 151.914 31.7898C152.119 31.8182 152.315 31.8608 152.502 31.9176V35.9318C152.269 35.8523 151.982 35.7926 151.641 35.7528C151.3 35.7131 151.008 35.6932 150.763 35.6932C150.303 35.6932 149.888 35.7983 149.519 36.0085C149.156 36.2131 148.869 36.5028 148.658 36.8778C148.448 37.2472 148.343 37.6818 148.343 38.1818V45H143.638ZM159.602 45.2386C158.181 45.2386 156.965 44.9574 155.954 44.3949C154.942 43.8267 154.167 43.0369 153.627 42.0256C153.087 41.0085 152.817 39.8295 152.817 38.4886C152.817 37.1477 153.087 35.9716 153.627 34.9602C154.167 33.9432 154.942 33.1534 155.954 32.5909C156.965 32.0227 158.181 31.7386 159.602 31.7386C161.022 31.7386 162.238 32.0227 163.249 32.5909C164.261 33.1534 165.036 33.9432 165.576 34.9602C166.116 35.9716 166.386 37.1477 166.386 38.4886C166.386 39.8295 166.116 41.0085 165.576 42.0256C165.036 43.0369 164.261 43.8267 163.249 44.3949C162.238 44.9574 161.022 45.2386 159.602 45.2386ZM159.636 41.7614C160.033 41.7614 160.377 41.6278 160.667 41.3608C160.957 41.0937 161.181 40.7131 161.34 40.2188C161.499 39.7244 161.579 39.1364 161.579 38.4545C161.579 37.767 161.499 37.179 161.34 36.6903C161.181 36.196 160.957 35.8153 160.667 35.5483C160.377 35.2812 160.033 35.1477 159.636 35.1477C159.215 35.1477 158.854 35.2812 158.553 35.5483C158.252 35.8153 158.022 36.196 157.863 36.6903C157.704 37.179 157.624 37.767 157.624 38.4545C157.624 39.1364 157.704 39.7244 157.863 40.2188C158.022 40.7131 158.252 41.0937 158.553 41.3608C158.854 41.6278 159.215 41.7614 159.636 41.7614ZM181.089 31.9091L176.692 45H171.237L166.839 31.9091H171.783L173.896 40.5682H174.033L176.146 31.9091H181.089ZM182.428 45V31.9091H187.132V45H182.428ZM184.78 30.5455C184.143 30.5455 183.598 30.3352 183.143 29.9148C182.689 29.4943 182.462 28.9886 182.462 28.3977C182.462 27.8068 182.689 27.3011 183.143 26.8807C183.598 26.4602 184.143 26.25 184.78 26.25C185.422 26.25 185.967 26.4602 186.416 26.8807C186.871 27.3011 187.098 27.8068 187.098 28.3977C187.098 28.9886 186.871 29.4943 186.416 29.9148C185.967 30.3352 185.422 30.5455 184.78 30.5455ZM194.268 45.1705C193.336 45.1705 192.478 44.9261 191.694 44.4375C190.915 43.9489 190.29 43.2074 189.819 42.2131C189.353 41.2187 189.12 39.9659 189.12 38.4545C189.12 36.875 189.364 35.5909 189.853 34.6023C190.347 33.6136 190.984 32.8892 191.762 32.429C192.546 31.9688 193.37 31.7386 194.234 31.7386C194.881 31.7386 195.45 31.8523 195.938 32.0795C196.427 32.3011 196.836 32.5994 197.165 32.9744C197.495 33.3437 197.745 33.75 197.915 34.1932H197.984V27.5455H202.688V45H198.018V42.8523H197.915C197.734 43.2955 197.472 43.6932 197.131 44.0455C196.796 44.392 196.387 44.6676 195.904 44.8722C195.427 45.071 194.881 45.1705 194.268 45.1705ZM196.006 41.5568C196.438 41.5568 196.808 41.4318 197.114 41.1818C197.427 40.9261 197.665 40.5682 197.83 40.108C198.001 39.642 198.086 39.0909 198.086 38.4545C198.086 37.8068 198.001 37.2528 197.83 36.7926C197.665 36.3267 197.427 35.9716 197.114 35.7273C196.808 35.4773 196.438 35.3523 196.006 35.3523C195.575 35.3523 195.205 35.4773 194.898 35.7273C194.597 35.9716 194.364 36.3267 194.2 36.7926C194.04 37.2528 193.961 37.8068 193.961 38.4545C193.961 39.1023 194.04 39.6591 194.2 40.125C194.364 40.5852 194.597 40.9403 194.898 41.1903C195.205 41.4347 195.575 41.5568 196.006 41.5568ZM211.271 45.2386C209.873 45.2386 208.668 44.9716 207.657 44.4375C206.651 43.8977 205.876 43.125 205.33 42.1193C204.79 41.108 204.521 39.8977 204.521 38.4886C204.521 37.1364 204.793 35.9545 205.339 34.9432C205.884 33.9318 206.654 33.1449 207.648 32.5824C208.643 32.0199 209.816 31.7386 211.168 31.7386C212.157 31.7386 213.052 31.892 213.853 32.1989C214.654 32.5057 215.339 32.9517 215.907 33.5369C216.475 34.1165 216.913 34.821 217.219 35.6506C217.526 36.4801 217.68 37.4148 217.68 38.4545V39.5455H205.987V36.9545H213.35C213.344 36.5795 213.248 36.25 213.06 35.9659C212.879 35.6761 212.631 35.4517 212.319 35.2926C212.012 35.1278 211.663 35.0455 211.271 35.0455C210.89 35.0455 210.54 35.1278 210.222 35.2926C209.904 35.4517 209.648 35.6733 209.455 35.9574C209.268 36.2415 209.168 36.5739 209.157 36.9545V39.75C209.157 40.1705 209.245 40.5455 209.421 40.875C209.597 41.2045 209.85 41.4631 210.18 41.6506C210.509 41.8381 210.907 41.9318 211.373 41.9318C211.697 41.9318 211.992 41.8864 212.259 41.7955C212.532 41.7045 212.765 41.5739 212.958 41.4034C213.151 41.2273 213.293 41.017 213.384 40.7727H217.68C217.532 41.6818 217.183 42.4716 216.631 43.142C216.08 43.8068 215.35 44.3239 214.441 44.6932C213.538 45.0568 212.481 45.2386 211.271 45.2386ZM219.599 45V31.9091H224.168V34.3977H224.304C224.543 33.4773 224.92 32.804 225.438 32.3778C225.96 31.9517 226.571 31.7386 227.27 31.7386C227.474 31.7386 227.676 31.7557 227.875 31.7898C228.08 31.8182 228.276 31.8608 228.463 31.9176V35.9318C228.23 35.8523 227.943 35.7926 227.602 35.7528C227.261 35.7131 226.969 35.6932 226.724 35.6932C226.264 35.6932 225.849 35.7983 225.48 36.0085C225.116 36.2131 224.83 36.5028 224.619 36.8778C224.409 37.2472 224.304 37.6818 224.304 38.1818V45H219.599Z" fill="black"/>
<line x1="309.433" y1="69.4351" x2="380.435" y2="67.5666" stroke="black" stroke-width="5" stroke-linecap="round"/>
<path d="M312.41 68.4618C311.497 67.4256 309.918 67.3253 308.881 68.2377C307.845 69.1502 307.745 70.73 308.657 71.7662L312.41 68.4618ZM378.124 150.652L379.776 152.528L383.528 149.224L381.876 147.348L378.124 150.652ZM308.657 71.7662L378.124 150.652L381.876 147.348L312.41 68.4618L308.657 71.7662Z" fill="black"/>
<path d="M312.536 69.046C311.954 67.7942 310.467 67.2517 309.215 67.8343C307.963 68.4169 307.421 69.904 308.003 71.1557L312.536 69.046ZM379.997 225.844L381.052 228.111L385.585 226.001L384.53 223.735L379.997 225.844ZM308.003 71.1557L379.997 225.844L384.53 223.735L312.536 69.046L308.003 71.1557Z" fill="black"/>
<path d="M312.395 69.2844C312 67.9614 310.607 67.2094 309.284 67.6046C307.961 67.9998 307.209 69.3927 307.605 70.7156L312.395 69.2844ZM379.605 311.716L380.32 314.111L385.111 312.68L384.395 310.284L379.605 311.716ZM307.605 70.7156L379.605 311.716L384.395 310.284L312.395 69.2844L307.605 70.7156Z" fill="black"/>
</svg>
