<svg width="274" height="378" viewBox="0 0 274 378" fill="none" xmlns="http://www.w3.org/2000/svg">
<rect x="156" y="311" width="115" height="64" rx="7" fill="black" fill-opacity="0.1" stroke="black" stroke-width="5"/>
<path d="M199.604 341.091H194.797C194.763 340.693 194.672 340.332 194.525 340.009C194.382 339.685 194.184 339.406 193.928 339.173C193.678 338.935 193.374 338.753 193.016 338.628C192.658 338.497 192.252 338.432 191.797 338.432C191.002 338.432 190.328 338.625 189.777 339.011C189.232 339.398 188.817 339.952 188.533 340.673C188.255 341.395 188.115 342.261 188.115 343.273C188.115 344.341 188.257 345.236 188.542 345.957C188.831 346.673 189.249 347.213 189.794 347.577C190.34 347.935 190.996 348.114 191.763 348.114C192.201 348.114 192.593 348.06 192.939 347.952C193.286 347.838 193.587 347.676 193.843 347.466C194.098 347.256 194.306 347.003 194.465 346.707C194.63 346.406 194.74 346.068 194.797 345.693L199.604 345.727C199.547 346.466 199.34 347.219 198.982 347.986C198.624 348.747 198.115 349.452 197.456 350.099C196.803 350.741 195.993 351.259 195.027 351.651C194.061 352.043 192.939 352.239 191.661 352.239C190.059 352.239 188.621 351.895 187.348 351.207C186.081 350.52 185.078 349.509 184.34 348.173C183.607 346.838 183.24 345.205 183.24 343.273C183.24 341.33 183.615 339.693 184.365 338.364C185.115 337.028 186.127 336.02 187.4 335.338C188.672 334.651 190.093 334.307 191.661 334.307C192.763 334.307 193.777 334.457 194.703 334.759C195.63 335.06 196.442 335.5 197.141 336.08C197.84 336.653 198.402 337.361 198.828 338.202C199.255 339.043 199.513 340.006 199.604 341.091ZM206.527 344.636V352H201.822V334.545H206.356V341.398H206.493C206.788 340.562 207.279 339.912 207.967 339.446C208.654 338.974 209.481 338.739 210.447 338.739C211.373 338.739 212.177 338.949 212.859 339.369C213.547 339.79 214.078 340.369 214.453 341.108C214.833 341.847 215.021 342.693 215.015 343.648V352H210.311V344.636C210.316 343.989 210.154 343.48 209.825 343.111C209.501 342.741 209.038 342.557 208.436 342.557C208.055 342.557 207.72 342.642 207.43 342.812C207.146 342.977 206.924 343.216 206.765 343.528C206.612 343.835 206.532 344.205 206.527 344.636ZM217.338 352V338.909H222.042V352H217.338ZM219.69 337.545C219.054 337.545 218.508 337.335 218.054 336.915C217.599 336.494 217.372 335.989 217.372 335.398C217.372 334.807 217.599 334.301 218.054 333.881C218.508 333.46 219.054 333.25 219.69 333.25C220.332 333.25 220.877 333.46 221.326 333.881C221.781 334.301 222.008 334.807 222.008 335.398C222.008 335.989 221.781 336.494 221.326 336.915C220.877 337.335 220.332 337.545 219.69 337.545ZM229.144 334.545V352H224.439V334.545H229.144ZM236.279 352.17C235.348 352.17 234.49 351.926 233.706 351.438C232.927 350.949 232.302 350.207 231.831 349.213C231.365 348.219 231.132 346.966 231.132 345.455C231.132 343.875 231.376 342.591 231.865 341.602C232.359 340.614 232.995 339.889 233.774 339.429C234.558 338.969 235.382 338.739 236.245 338.739C236.893 338.739 237.461 338.852 237.95 339.08C238.439 339.301 238.848 339.599 239.177 339.974C239.507 340.344 239.757 340.75 239.927 341.193H239.995V334.545H244.7V352H240.029V349.852H239.927C239.745 350.295 239.484 350.693 239.143 351.045C238.808 351.392 238.399 351.668 237.916 351.872C237.439 352.071 236.893 352.17 236.279 352.17ZM238.018 348.557C238.45 348.557 238.819 348.432 239.126 348.182C239.439 347.926 239.677 347.568 239.842 347.108C240.012 346.642 240.098 346.091 240.098 345.455C240.098 344.807 240.012 344.253 239.842 343.793C239.677 343.327 239.439 342.972 239.126 342.727C238.819 342.477 238.45 342.352 238.018 342.352C237.586 342.352 237.217 342.477 236.91 342.727C236.609 342.972 236.376 343.327 236.211 343.793C236.052 344.253 235.973 344.807 235.973 345.455C235.973 346.102 236.052 346.659 236.211 347.125C236.376 347.585 236.609 347.94 236.91 348.19C237.217 348.435 237.586 348.557 238.018 348.557Z" fill="black"/>
<rect x="3" y="311" width="115" height="64" rx="7" fill="black" fill-opacity="0.1" stroke="black" stroke-width="5"/>
<path d="M45.604 341.091H40.7972C40.7631 340.693 40.6722 340.332 40.5245 340.009C40.3825 339.685 40.1836 339.406 39.9279 339.173C39.6779 338.935 39.3739 338.753 39.016 338.628C38.658 338.497 38.2518 338.432 37.7972 338.432C37.0018 338.432 36.3285 338.625 35.7773 339.011C35.2319 339.398 34.8171 339.952 34.533 340.673C34.2546 341.395 34.1154 342.261 34.1154 343.273C34.1154 344.341 34.2575 345.236 34.5415 345.957C34.8313 346.673 35.2489 347.213 35.7944 347.577C36.3398 347.935 36.9961 348.114 37.7631 348.114C38.2006 348.114 38.5927 348.06 38.9393 347.952C39.2859 347.838 39.587 347.676 39.8427 347.466C40.0984 347.256 40.3058 347.003 40.4648 346.707C40.6296 346.406 40.7404 346.068 40.7972 345.693L45.604 345.727C45.5472 346.466 45.3398 347.219 44.9819 347.986C44.6239 348.747 44.1154 349.452 43.4563 350.099C42.8029 350.741 41.9933 351.259 41.0273 351.651C40.0614 352.043 38.9393 352.239 37.6609 352.239C36.0586 352.239 34.6211 351.895 33.3484 351.207C32.0813 350.52 31.0785 349.509 30.3398 348.173C29.6069 346.838 29.2404 345.205 29.2404 343.273C29.2404 341.33 29.6154 339.693 30.3654 338.364C31.1154 337.028 32.1268 336.02 33.3995 335.338C34.6722 334.651 36.0927 334.307 37.6609 334.307C38.7631 334.307 39.7773 334.457 40.7035 334.759C41.6296 335.06 42.4421 335.5 43.141 336.08C43.8398 336.653 44.4023 337.361 44.8285 338.202C45.2546 339.043 45.5131 340.006 45.604 341.091ZM52.5266 344.636V352H47.8221V334.545H52.3562V341.398H52.4925C52.788 340.562 53.2795 339.912 53.967 339.446C54.6545 338.974 55.4812 338.739 56.4471 338.739C57.3732 338.739 58.1772 338.949 58.859 339.369C59.5465 339.79 60.0778 340.369 60.4528 341.108C60.8335 341.847 61.021 342.693 61.0153 343.648V352H56.3107V344.636C56.3164 343.989 56.1545 343.48 55.8249 343.111C55.5011 342.741 55.038 342.557 54.4357 342.557C54.055 342.557 53.7198 342.642 53.43 342.812C53.146 342.977 52.9244 343.216 52.7653 343.528C52.6119 343.835 52.5323 344.205 52.5266 344.636ZM63.3377 352V338.909H68.0423V352H63.3377ZM65.69 337.545C65.0536 337.545 64.5082 337.335 64.0536 336.915C63.5991 336.494 63.3718 335.989 63.3718 335.398C63.3718 334.807 63.5991 334.301 64.0536 333.881C64.5082 333.46 65.0536 333.25 65.69 333.25C66.332 333.25 66.8775 333.46 67.3263 333.881C67.7809 334.301 68.0082 334.807 68.0082 335.398C68.0082 335.989 67.7809 336.494 67.3263 336.915C66.8775 337.335 66.332 337.545 65.69 337.545ZM75.1438 334.545V352H70.4393V334.545H75.1438ZM82.2795 352.17C81.3477 352.17 80.4897 351.926 79.7056 351.438C78.9272 350.949 78.3022 350.207 77.8306 349.213C77.3647 348.219 77.1317 346.966 77.1317 345.455C77.1317 343.875 77.3761 342.591 77.8647 341.602C78.359 340.614 78.9954 339.889 79.7738 339.429C80.5579 338.969 81.3817 338.739 82.2454 338.739C82.8931 338.739 83.4613 338.852 83.9499 339.08C84.4386 339.301 84.8477 339.599 85.1772 339.974C85.5067 340.344 85.7567 340.75 85.9272 341.193H85.9954V334.545H90.6999V352H86.0295V349.852H85.9272C85.7454 350.295 85.484 350.693 85.1431 351.045C84.8079 351.392 84.3988 351.668 83.9158 351.872C83.4386 352.071 82.8931 352.17 82.2795 352.17ZM84.0181 348.557C84.4499 348.557 84.8192 348.432 85.1261 348.182C85.4386 347.926 85.6772 347.568 85.842 347.108C86.0124 346.642 86.0977 346.091 86.0977 345.455C86.0977 344.807 86.0124 344.253 85.842 343.793C85.6772 343.327 85.4386 342.972 85.1261 342.727C84.8192 342.477 84.4499 342.352 84.0181 342.352C83.5863 342.352 83.217 342.477 82.9102 342.727C82.609 342.972 82.3761 343.327 82.2113 343.793C82.0522 344.253 81.9727 344.807 81.9727 345.455C81.9727 346.102 82.0522 346.659 82.2113 347.125C82.3761 347.585 82.609 347.94 82.9102 348.19C83.217 348.435 83.5863 348.557 84.0181 348.557Z" fill="black"/>
<rect x="80" y="135" width="115" height="64" rx="7" fill="black" fill-opacity="0.1" stroke="black" stroke-width="5"/>
<path d="M115.995 164C115.95 163.432 115.737 162.989 115.356 162.67C114.981 162.352 114.41 162.193 113.643 162.193C113.154 162.193 112.754 162.253 112.441 162.372C112.134 162.486 111.907 162.642 111.759 162.841C111.612 163.04 111.535 163.267 111.529 163.523C111.518 163.733 111.555 163.923 111.64 164.094C111.731 164.259 111.873 164.409 112.066 164.545C112.259 164.676 112.506 164.795 112.808 164.903C113.109 165.011 113.467 165.108 113.881 165.193L115.313 165.5C116.279 165.705 117.106 165.974 117.793 166.31C118.481 166.645 119.043 167.04 119.481 167.494C119.918 167.943 120.239 168.449 120.444 169.011C120.654 169.574 120.762 170.187 120.768 170.852C120.762 172 120.475 172.972 119.907 173.767C119.339 174.562 118.526 175.168 117.469 175.582C116.418 175.997 115.154 176.205 113.677 176.205C112.16 176.205 110.836 175.98 109.705 175.531C108.58 175.082 107.705 174.392 107.08 173.46C106.461 172.523 106.148 171.324 106.143 169.864H110.643C110.671 170.398 110.805 170.847 111.043 171.21C111.282 171.574 111.617 171.849 112.049 172.037C112.487 172.224 113.006 172.318 113.609 172.318C114.114 172.318 114.538 172.256 114.879 172.131C115.219 172.006 115.478 171.832 115.654 171.611C115.83 171.389 115.921 171.136 115.927 170.852C115.921 170.585 115.833 170.352 115.663 170.153C115.498 169.949 115.225 169.767 114.844 169.608C114.464 169.443 113.95 169.29 113.302 169.148L111.563 168.773C110.018 168.437 108.799 167.878 107.907 167.094C107.021 166.304 106.58 165.227 106.586 163.864C106.58 162.756 106.876 161.787 107.472 160.957C108.075 160.122 108.907 159.472 109.969 159.006C111.038 158.54 112.262 158.307 113.643 158.307C115.052 158.307 116.271 158.543 117.299 159.014C118.327 159.486 119.12 160.151 119.677 161.009C120.239 161.861 120.523 162.858 120.529 164H115.995ZM130.445 162.909V166.318H121.82V162.909H130.445ZM123.491 159.773H128.195V171.79C128.195 171.972 128.227 172.125 128.289 172.25C128.352 172.369 128.448 172.46 128.579 172.523C128.71 172.58 128.877 172.608 129.082 172.608C129.224 172.608 129.388 172.591 129.576 172.557C129.769 172.523 129.911 172.494 130.002 172.472L130.684 175.778C130.474 175.841 130.173 175.918 129.781 176.009C129.394 176.099 128.934 176.159 128.4 176.188C127.32 176.244 126.414 176.134 125.681 175.855C124.948 175.571 124.397 175.125 124.028 174.517C123.658 173.909 123.479 173.148 123.491 172.233V159.773ZM136.013 176.205C135.178 176.205 134.439 176.068 133.797 175.795C133.161 175.517 132.661 175.097 132.297 174.534C131.933 173.972 131.751 173.256 131.751 172.386C131.751 171.67 131.874 171.06 132.118 170.554C132.362 170.043 132.703 169.625 133.141 169.301C133.578 168.977 134.087 168.73 134.666 168.56C135.251 168.389 135.882 168.278 136.558 168.227C137.291 168.17 137.879 168.102 138.322 168.023C138.771 167.937 139.095 167.821 139.294 167.673C139.493 167.52 139.592 167.318 139.592 167.068V167.034C139.592 166.693 139.462 166.432 139.2 166.25C138.939 166.068 138.604 165.977 138.195 165.977C137.746 165.977 137.379 166.077 137.095 166.276C136.817 166.469 136.649 166.767 136.592 167.17H132.263C132.32 166.375 132.572 165.642 133.021 164.972C133.476 164.295 134.138 163.756 135.007 163.352C135.876 162.943 136.962 162.739 138.263 162.739C139.2 162.739 140.041 162.849 140.786 163.071C141.53 163.287 142.163 163.591 142.686 163.983C143.209 164.369 143.607 164.824 143.879 165.347C144.158 165.864 144.297 166.426 144.297 167.034V176H139.899V174.159H139.797C139.536 174.648 139.217 175.043 138.842 175.344C138.473 175.645 138.05 175.864 137.572 176C137.101 176.136 136.581 176.205 136.013 176.205ZM137.547 173.239C137.905 173.239 138.24 173.165 138.553 173.017C138.871 172.869 139.129 172.656 139.328 172.378C139.527 172.099 139.626 171.761 139.626 171.364V170.273C139.501 170.324 139.368 170.372 139.226 170.418C139.089 170.463 138.942 170.506 138.783 170.545C138.629 170.585 138.464 170.622 138.288 170.656C138.118 170.69 137.939 170.722 137.751 170.75C137.388 170.807 137.089 170.901 136.857 171.031C136.629 171.156 136.459 171.312 136.345 171.5C136.237 171.682 136.183 171.886 136.183 172.114C136.183 172.477 136.311 172.756 136.567 172.949C136.822 173.142 137.149 173.239 137.547 173.239ZM154.352 162.909V166.318H145.727V162.909H154.352ZM147.397 159.773H152.102V171.79C152.102 171.972 152.133 172.125 152.195 172.25C152.258 172.369 152.354 172.46 152.485 172.523C152.616 172.58 152.783 172.608 152.988 172.608C153.13 172.608 153.295 172.591 153.482 172.557C153.675 172.523 153.817 172.494 153.908 172.472L154.59 175.778C154.38 175.841 154.079 175.918 153.687 176.009C153.3 176.099 152.84 176.159 152.306 176.188C151.227 176.244 150.32 176.134 149.587 175.855C148.854 175.571 148.303 175.125 147.934 174.517C147.565 173.909 147.386 173.148 147.397 172.233V159.773ZM162.403 176.239C161.006 176.239 159.801 175.972 158.79 175.438C157.784 174.898 157.009 174.125 156.463 173.119C155.923 172.108 155.653 170.898 155.653 169.489C155.653 168.136 155.926 166.955 156.472 165.943C157.017 164.932 157.787 164.145 158.781 163.582C159.776 163.02 160.949 162.739 162.301 162.739C163.29 162.739 164.185 162.892 164.986 163.199C165.787 163.506 166.472 163.952 167.04 164.537C167.608 165.116 168.045 165.821 168.352 166.651C168.659 167.48 168.812 168.415 168.812 169.455V170.545H157.119V167.955H164.483C164.477 167.58 164.381 167.25 164.193 166.966C164.011 166.676 163.764 166.452 163.452 166.293C163.145 166.128 162.795 166.045 162.403 166.045C162.023 166.045 161.673 166.128 161.355 166.293C161.037 166.452 160.781 166.673 160.588 166.957C160.401 167.241 160.301 167.574 160.29 167.955V170.75C160.29 171.17 160.378 171.545 160.554 171.875C160.73 172.205 160.983 172.463 161.312 172.651C161.642 172.838 162.04 172.932 162.506 172.932C162.83 172.932 163.125 172.886 163.392 172.795C163.665 172.705 163.898 172.574 164.091 172.403C164.284 172.227 164.426 172.017 164.517 171.773H168.812C168.665 172.682 168.315 173.472 167.764 174.142C167.213 174.807 166.483 175.324 165.574 175.693C164.67 176.057 163.614 176.239 162.403 176.239Z" fill="black"/>
<path d="M212.674 300.479C214.043 300.659 215.299 299.695 215.479 298.326L218.411 276.018C218.591 274.649 217.627 273.393 216.258 273.213C214.889 273.033 213.633 273.997 213.453 275.366L210.847 295.196L191.018 292.589C189.649 292.409 188.393 293.373 188.213 294.742C188.033 296.111 188.997 297.367 190.366 297.547L212.674 300.479ZM135.017 200.522L211.017 299.522L214.983 296.478L138.983 197.478L135.017 200.522Z" fill="black"/>
<path d="M57.5193 298.31C57.6906 299.68 58.94 300.652 60.3101 300.481L82.6363 297.69C84.0064 297.519 84.9782 296.269 84.8069 294.899C84.6357 293.529 83.3862 292.557 82.0162 292.729L62.1706 295.209L59.6899 275.364C59.5187 273.994 58.2692 273.022 56.8991 273.193C55.5291 273.364 54.5573 274.614 54.7285 275.984L57.5193 298.31ZM135.027 197.465L58.0266 296.465L61.9734 299.535L138.973 200.535L135.027 197.465Z" fill="black"/>
<rect x="18" y="3" width="238" height="132" rx="7" fill="black" fill-opacity="0.1" stroke="black" stroke-width="5"/>
<path d="M98.2031 77V59.5455H105.737C107.033 59.5455 108.166 59.8011 109.138 60.3125C110.109 60.8239 110.865 61.5426 111.405 62.4688C111.945 63.3949 112.214 64.4773 112.214 65.7159C112.214 66.9659 111.936 68.0483 111.379 68.9631C110.828 69.8778 110.053 70.5824 109.053 71.0767C108.058 71.571 106.896 71.8182 105.567 71.8182H101.067V68.1364H104.612C105.169 68.1364 105.643 68.0398 106.036 67.8466C106.433 67.6477 106.737 67.3665 106.947 67.0028C107.163 66.6392 107.271 66.2102 107.271 65.7159C107.271 65.2159 107.163 64.7898 106.947 64.4375C106.737 64.0795 106.433 63.8068 106.036 63.6193C105.643 63.4261 105.169 63.3295 104.612 63.3295H102.942V77H98.2031ZM117.083 77.2045C116.248 77.2045 115.509 77.0682 114.867 76.7955C114.231 76.517 113.731 76.0966 113.367 75.5341C113.004 74.9716 112.822 74.2557 112.822 73.3864C112.822 72.6705 112.944 72.0597 113.188 71.554C113.433 71.0426 113.773 70.625 114.211 70.3011C114.648 69.9773 115.157 69.7301 115.737 69.5597C116.322 69.3892 116.952 69.2784 117.629 69.2273C118.362 69.1705 118.95 69.1023 119.393 69.0227C119.842 68.9375 120.165 68.821 120.364 68.6733C120.563 68.5199 120.663 68.3182 120.663 68.0682V68.0341C120.663 67.6932 120.532 67.4318 120.271 67.25C120.009 67.0682 119.674 66.9773 119.265 66.9773C118.816 66.9773 118.45 67.0767 118.165 67.2756C117.887 67.4687 117.719 67.767 117.663 68.1705H113.333C113.39 67.375 113.643 66.642 114.092 65.9716C114.546 65.2955 115.208 64.7557 116.077 64.3523C116.947 63.9432 118.032 63.7386 119.333 63.7386C120.271 63.7386 121.112 63.8494 121.856 64.071C122.6 64.2869 123.234 64.5909 123.756 64.983C124.279 65.3693 124.677 65.8239 124.95 66.3466C125.228 66.8636 125.367 67.4261 125.367 68.0341V77H120.969V75.1591H120.867C120.606 75.6477 120.288 76.0426 119.913 76.3438C119.543 76.6449 119.12 76.8636 118.643 77C118.171 77.1364 117.651 77.2045 117.083 77.2045ZM118.617 74.2386C118.975 74.2386 119.31 74.1648 119.623 74.017C119.941 73.8693 120.2 73.6562 120.398 73.3778C120.597 73.0994 120.697 72.7614 120.697 72.3636V71.2727C120.572 71.3239 120.438 71.3722 120.296 71.4176C120.16 71.4631 120.012 71.5057 119.853 71.5455C119.7 71.5852 119.535 71.6222 119.359 71.6562C119.188 71.6903 119.009 71.7216 118.822 71.75C118.458 71.8068 118.16 71.9006 117.927 72.0312C117.7 72.1562 117.529 72.3125 117.415 72.5C117.308 72.6818 117.254 72.8864 117.254 73.1136C117.254 73.4773 117.381 73.7557 117.637 73.9489C117.893 74.142 118.219 74.2386 118.617 74.2386ZM127.615 77V63.9091H132.183V66.3977H132.32C132.558 65.4773 132.936 64.804 133.453 64.3778C133.976 63.9517 134.587 63.7386 135.286 63.7386C135.49 63.7386 135.692 63.7557 135.891 63.7898C136.095 63.8182 136.291 63.8608 136.479 63.9176V67.9318C136.246 67.8523 135.959 67.7926 135.618 67.7528C135.277 67.7131 134.984 67.6932 134.74 67.6932C134.28 67.6932 133.865 67.7983 133.496 68.0085C133.132 68.2131 132.845 68.5028 132.635 68.8778C132.425 69.2472 132.32 69.6818 132.32 70.1818V77H127.615ZM143.544 77.2386C142.146 77.2386 140.942 76.9716 139.93 76.4375C138.925 75.8977 138.149 75.125 137.604 74.1193C137.064 73.108 136.794 71.8977 136.794 70.4886C136.794 69.1364 137.067 67.9545 137.612 66.9432C138.158 65.9318 138.928 65.1449 139.922 64.5824C140.916 64.0199 142.089 63.7386 143.442 63.7386C144.43 63.7386 145.325 63.892 146.126 64.1989C146.928 64.5057 147.612 64.9517 148.18 65.5369C148.749 66.1165 149.186 66.821 149.493 67.6506C149.8 68.4801 149.953 69.4148 149.953 70.4545V71.5455H138.26V68.9545H145.624C145.618 68.5795 145.521 68.25 145.334 67.9659C145.152 67.6761 144.905 67.4517 144.592 67.2926C144.286 67.1278 143.936 67.0455 143.544 67.0455C143.163 67.0455 142.814 67.1278 142.496 67.2926C142.178 67.4517 141.922 67.6733 141.729 67.9574C141.541 68.2415 141.442 68.5739 141.43 68.9545V71.75C141.43 72.1705 141.518 72.5455 141.695 72.875C141.871 73.2045 142.124 73.4631 142.453 73.6506C142.783 73.8381 143.18 73.9318 143.646 73.9318C143.97 73.9318 144.266 73.8864 144.533 73.7955C144.805 73.7045 145.038 73.5739 145.232 73.4034C145.425 73.2273 145.567 73.017 145.658 72.7727H149.953C149.805 73.6818 149.456 74.4716 148.905 75.142C148.354 75.8068 147.624 76.3239 146.714 76.6932C145.811 77.0568 144.754 77.2386 143.544 77.2386ZM156.577 69.6364V77H151.873V63.9091H156.339V66.3977H156.475C156.759 65.5682 157.259 64.9176 157.975 64.446C158.697 63.9744 159.538 63.7386 160.498 63.7386C161.424 63.7386 162.228 63.9517 162.91 64.3778C163.597 64.7983 164.129 65.3778 164.504 66.1165C164.884 66.8551 165.072 67.6989 165.066 68.6477V77H160.362V69.6364C160.367 68.9886 160.202 68.4801 159.867 68.1108C159.538 67.7415 159.077 67.5568 158.487 67.5568C158.1 67.5568 157.762 67.642 157.472 67.8125C157.188 67.9773 156.969 68.2159 156.816 68.5284C156.663 68.8352 156.583 69.2045 156.577 69.6364ZM175.195 63.9091V67.3182H166.57V63.9091H175.195ZM168.241 60.7727H172.945V72.7898C172.945 72.9716 172.977 73.125 173.039 73.25C173.102 73.3693 173.198 73.4602 173.329 73.5227C173.46 73.5795 173.627 73.608 173.832 73.608C173.974 73.608 174.138 73.5909 174.326 73.5568C174.519 73.5227 174.661 73.4943 174.752 73.4716L175.434 76.7784C175.224 76.8409 174.923 76.9176 174.531 77.0085C174.144 77.0994 173.684 77.1591 173.15 77.1875C172.07 77.2443 171.164 77.1335 170.431 76.8551C169.698 76.571 169.147 76.125 168.778 75.517C168.408 74.9091 168.229 74.1477 168.241 73.233V60.7727Z" fill="black"/>
</svg>
